<svg xmlns="http://www.w3.org/2000/svg" viewBox="0 0 1912.14 977.4"><defs><style>.cls-1{fill:#272525;}</style></defs><g id="Layer_2" data-name="Layer 2"><g id="Layer_1-2" data-name="Layer 1"><path class="cls-1" d="M1864.7,814.26c-7.8-7.8-12.35-20.15-22.1-26,0,2.6-.65,5.85,1.3,7.8l35.1,46.8c9.74,10.4,16.24,25.34,27.94,33.79,2-3.25,1.3-5.2-1.3-8.45C1891.34,850,1878.35,832.46,1864.7,814.26Z"/><path class="cls-1" d="M818.9,639.42c-1.95,6.5,4.55,9.1,7.8,14.3,11,10.4,19.5,24,32.5,31.84a14.92,14.92,0,0,0-2.6-9.1C843.6,664.77,833.85,648.52,818.9,639.42Z"/><path class="cls-1" d="M1836.75,813.61l33.15,44.19c9.1,10.4,19.49,31.85,31.19,36.4-.65-9.75-9.75-16.25-14.95-24.05-7.79-11-16.24-22.09-24.69-33.14-7.8-8.45-15.6-26-25.35-30.55.65-8.45.65-17.55,1.3-26.65a18,18,0,0,0-.65-5.85A1035.37,1035.37,0,0,0,1905,855.85c1.3,1.3,4.55,1.3,7.15,1.95-2-10.39-11.7-16.24-18.2-24-7.79-8.45-15.59-16.9-22.74-26-29.9-39-58.5-79.3-87.75-119-2.6-3.9-6.5-9.1-10.4-9.1a164.34,164.34,0,0,0-35.75,0c-5.2,1.3-10.4,0-13.65-3.9-49.39-55.89-88.39-120.89-139.74-175.49-18.2-18.2-36.4-39-60.45-49.39a77.66,77.66,0,0,0-42.24,1.95,12.43,12.43,0,0,1-11.7,0c-39.65-20.8-61.1-61.75-93.6-91a688.49,688.49,0,0,1-78-72.8c-15.6-17.54-20.15,13-34.45,3.25-11.7-11.05-24-20.14-35.1-31.84-11.7-13-20.8-27.3-37.05-34.45-1.95-1.3-3.25-2.6-3.25-5.2-5.2-26-19.5-48.1-33.15-70.2C1051.59-13.8,802-59.95,668.76,94.74c-58.5,68.9-80,146.9-72.8,235.94-.65,11.7,8.45,31.2.65,40.3-41.6,50-76,105.29-115.69,156-17.55,24.7-33.8,50-50.7,74.75-8.45,13-8.45,12.35-22.75,6.5-7.8-4.55-17.55-4.55-26-1.3-18.2,7.8-28.6,35.1-50.69,20.15-3.9-2-7.8-3.25-12.35-2.6-39,8.45-40.95,27.3-87.1,14.3-13-1.95-18.2-2.6-22.1,7.15-9.1,23.39-24.7,44.19-38.35,65.64-16.89,27.3-35.09,54-52,81.25-6.5,10.4-12.35,18.85-26,15.6-20.15,7.15-48.1-11-63.7,5.85-2,13.65-37.7,54.59-27.3,60.44,2,.65,3.9-.65,5.2-2,5.85-16.24,17.55-29.24,27.3-42.24,4.55-5.2,5.85-13.65,14.3-12.35.65,8.45-11,15.6-14.3,22.75-5.2,9.75-15.6,18.84-16.25,29.89,16.25-11.69,21.45-34.44,35.75-47.44,3.9,4.55,3.25,5.2-.65,9.75C48.69,843.51,18.79,876.65,24,883.8c15-14.95,24.05-35.09,36.4-52a32.55,32.55,0,0,1,4.55,5.2,56,56,0,0,0-9.1,11.7c-3.9,9.75-16.25,17.54-13,29.24,8.45-6.5,12.35-16.9,18.85-25.34,2.6-3.25,4.55-7.15,7.15-11.05,2.6,9.1-5.85,15-12.35,26-.65,1.3,0,3.25,0,5.2,9.75-.65,17.55-32.49,26-21.44.65,1.3,2,2,2.6,3.25A20.41,20.41,0,0,0,76,871.45c6.5-.65,7.15-5.2,10.4-10.39a4.93,4.93,0,0,0,1.3-2.6,30.52,30.52,0,0,0,5.85,7.79c.65-2,2.6-3.9,2.6-5.19-3.9-17.55-22.75-19.5-30.55-34.45-2.6-3.9-7.8-6.5-10.4-10.4,1.3,0,3.9-1.3,4.55-.65a79.08,79.08,0,0,0,29.9,3.9c8.45-.65,17.55-2.6,26-2.6a10.57,10.57,0,0,0,11-7.15c13-24.7,31.84-46.15,45.49-70.2,16.9-28.6,32.5-58.5,48.1-87.74a10.12,10.12,0,0,1,11.7-5.85,109.15,109.15,0,0,0,48.1,2.6,9.24,9.24,0,0,1,3.9,1.3c-9.75,13.65-13.65,30.54-22.75,44.19-5.2-9.1-11.05-18.2-18.2-26-4.55-4.55-10.4-7.8-10.4-14.95,0-1.3-2.6-2.6-3.9-3.9a11.81,11.81,0,0,0,0,13c5.2,6.5,2,11.69-1.95,16.89-7.8,16.25-40.3,58.5-37.05,71.5,18.2-22.75,29.25-51.35,44.85-76,.65-1.3,2.6-1.3,3.9-2-5.2,15-15.6,28-22.75,42.9-4.55,10.4-13.65,20.8-14.95,32.5,17.55-20.8,24.7-50.05,42.25-71.5,2.6,5.85-2.6,10.4-4.55,15.6-7.15,13-14.3,25.35-21.45,37.7-5.2,11-14.95,21.45-15.6,33.8,1.95-.65,3.9-1.3,5.2-2.6,15-24.7,24.7-54,42.9-76.05,2.6,9.75-13,26.65-16.25,37.05s-18.2,28.6-14.3,37c13.65-19.5,21.45-43.55,34.45-64.35,8.45,2.6-12.35,46.15-16.9,52C222.23,773.31,204,798,187.78,824c-3.9,8.45-18.2,22.75-16.9,31.2,9.75-2.6,13-16.9,19.5-24.05,12.35-18.2,24.7-37.7,37.7-55.9,25.35-40.3,39-86.45,63-128,6.5-10.4,32.5-18.85,42.9-13,6.5,2.6,14.3,3.25,15.59,11.7,1.31,9.1,4.55,18.2,8.45,26.64,3.9,15,7.8,30.55,11.05,45.5-3.25,7.15-21.44-4.55-27.29-6.5-6.25-3.74-17.88-12.89-17.64-19.94-.06.37-.15.73-.24,1.09l.33-2c-6.5-12.35-13-24-20.15-36.39-5.2-8.45-5.85-8.45-9.75.65-11.7,28.59-29.9,55.24-37.7,85.14,19.5-25.35,25.35-59.8,44.2-84.49-1.95,15.59-12.35,29.24-18.2,43.54s-17.55,29.25-17.55,45.5c11.05-11.05,13.65-27.3,20.8-40.3,6.5-11,10.4-30.55,20.8-37,0,18.19-25.35,44.19-22.75,61.74,9.1-3.25,20.15-51.35,29.9-52,.65,3.9,3.9,7.15.65,11.7-6.5,11.7-12.35,23.4-18.2,35.75-.65,2.6.65,5.2,1.95,7.15,11.05-11.05,13.65-29.25,22.1-42.9l3.33,5a5,5,0,0,0-.08.85l.13-.78.52.78c-1.95,7.15-6.5,16.25-8.45,24.05,0,.65,1.3,2.6,1.3,3.9,5.85-2.6,5.2-11.05,9.75-15,9.1,18.85,43.54,12.35,39.64,26-22.74,36.4-46.79,72.8-68.24,109.85-1.3,2,0,5.2,0,7.15,20.8-26.65,37.05-56.55,55.89-85.15,10.4-16.9,20.8-33.8,30.55-50.7,3.25-5.85,5.85-5.85,10.4-1.3,1.95,2.6,3.25,3.9,0,6.5-5.2,6.5-23.4,28-20.8,34.45,12.35-3.25,23.4-44.2,34.45-34.45-9.1,14.3-20.15,27.3-29.9,40.3-.65.65,0,2.6,0,3.9,14.95-9.75,22.75-29.9,36.4-41-.65,13.65-36.4,42.25-35.1,55.25,15.6-12.35,25.35-32.5,39-47.45,2.6-3.9,4.55-4.55,7.15,0-12.35,15.6-24.05,33.15-35.75,49.4-3.9,7.15-13.65,14.3-11.05,22.75,1.3-.65,2.6-.65,3.25-1.3C399,780.46,412,755.11,430.22,735c.65,1.95,2.6,4.55,1.95,5.2-5.85,12.35-37.7,44.2-33.8,54.6,16.9-15,24.05-39,40.3-54,.65,2.6,1.95,5.2-.65,7.8l-32.5,48.1c-4.55,9.75-18.85,21.45-16.9,31.85a26.24,26.24,0,0,0,8.45-8.45c16.25-24.05,34.45-46.15,46.15-72.8,3.25-1.95,7.15,0,11,2.6-7.8,3.9-10.4,13-15.6,19.5-12.35,17.55-24.7,35.75-37.7,54-3.9,3.9-3.25,6.5-2.6,11,13-11.7,20.8-28.6,31.2-42.25,7.8-14.3,21.45-26,26-41.6,1.3.65,1.95,1.3,3.25,1.3,13.65,5.2,10.4,11,1.3,20.15-18.2,18.2-28.6,41-38.35,63.7-16.9,32.49-37,62.39-48.1,96.84l1.95,1.3a87.18,87.18,0,0,0,11.7-18.2c20.8-44.85,44.2-87.74,69.55-130,16.9-26.65,42.9-44.85,65-66.95,20.14-20.15,37.69-42.9,53.29-66.94,16.9-26.65,35.1-53.3,47.45-83.2,7.15-11.05,7.8-50.05,24.7-39.65a124.3,124.3,0,0,0-10.4,20.8c-2.6,5.85-5.2,9.75-2.6,15.6,8.45-8.45,11.05-22.1,16.9-33.15,1.95,1.3,3.25,3.25,4.55,4.55-7.8,7.15-17.55,31.2-22.75,39-.65,1.3.65,3.9,1.3,6.5,3.25-2.6,6.5-5.85,7.8-9.75,4.55-11.05,13-21.45,15.6-32.5a68.85,68.85,0,0,0,6.5,7.8c-10.4,12.35-15,28.6-22.75,42.25a5.92,5.92,0,0,0,.65,7.8c3.25-3.9,6.5-8.45,7.8-13,4.55-13,14.3-23.4,15.6-36.4,7.15,5.85,4.55,11.7.65,18.2-6.5,15.6-20.15,30.55-20.15,48.1,13-13.65,17.55-33.15,26.65-49.4,1.3-4.55,3.25-3.9,6.5-1.3A76.58,76.58,0,0,0,672,576.37c-3.9,13-14.3,24.7-13,38.35,11-10.4,13.65-27.3,20.8-41a10.87,10.87,0,0,0,.65-7.8,71.17,71.17,0,0,1,6.5,7.15c-2.6,3.25-3.25,7.8-5.85,11.7-3.9,10.4-12.35,19.5-10.4,30.55,9.75-9.75,13-24.7,20.15-37v-.65l3.9,3.9a27.53,27.53,0,0,0-3.9,9.1c-3.9,11.7-18.85,31.85-15.6,42.9,11.7-13.65,16.25-32.5,24.7-48.75a35,35,0,0,0,8.45,4.55c-4.55,2-5.2,6.5-7.8,11-3.25,8.45-13,17.55-9.75,26.65,1.3-.65,3.25-1.3,3.25-2,3.9-10.4,14.95-24.7,14.3-35.1a20.32,20.32,0,0,1,7.15,5.85c-8.45,13.65-15.6,28-20.15,42.9a32.63,32.63,0,0,0,1.3,7.8c8.45-7.8,9.75-21.45,15.6-31.2a76.21,76.21,0,0,0,5.85-15.6c2,3.25,4.55,6.5,5.85,10.4-4.55,3.9-15,26.65-13,30.55,6.5-2,7.15-9.1,11-14.3a69.31,69.31,0,0,0,4.55-12.35,44.71,44.71,0,0,0,7.14,8.45c5.85-7.8-9.74-29.9-16.89-33.8a141.93,141.93,0,0,1-41-37.7c-20.15-32.5-34.45-22.1-50.7-43.55-16.25-27.3-39.65-37.69-23.4-72.14,5.2-18.2,9.75-36.4,14.3-55.25,1.3-6.5,7.15-9.1,11-4.55,17.55,19.5,31.2,46.15,52,62.4,33.8,22.1,52.64,57.19,74.09,89.69,35.75,43.55,33.15,87.1,19.5,139.09-4.55,33.15-8.45,66.3-14.3,98.8-1.3,12.35-9.1,60.45-8.45,74.1,7.15-18.2,15-74.75,18.85-94.25,1.3-8.45,2.6-17.55,4.55-25.35,5.85,6.5,10.4,16.25,19.5,19.5-.65-2-1.3-4.55-2.6-6.5-5.85-5.2-9.1-12.35-15.6-16.25a23.09,23.09,0,0,1,2.6-5.85c11.7,10.4,20.15,24.7,31.2,37.05.65,1.3,2.6,1.3,4.55,1.95-.65-11-22.75-30.55-30.55-40.3a11.38,11.38,0,0,1,0-16.25c2,8.45,24,26.65,28,33.15a102.82,102.82,0,0,0,22.1,18.85c-5.2-15.6-20.15-24.7-29.9-37.05-5.85-5.2-11-13.65-18.2-17.55a37.16,37.16,0,0,1,4.55-5.2,5.62,5.62,0,0,0,2,3.9c11.7,11.7,20.8,27.3,35.1,35.1-.65-1.95-1.3-4.55-2.6-6.5-11.7-11-20.15-26-32.5-35.1a27.52,27.52,0,0,0,3.25-4.55c7.15,1.3,12.35,11.7,18.2,16.9,11.7,13.65,23.4,27.3,35.75,41,1.3,1.3,3.9,1.3,5.2,2-.65-2,0-5.2-1.3-6.5-14.95-17.55-30.55-34.45-45.5-51.35-6.5-7.8-8.45-11.05-3.9-18.19,2,5.84,7.8,9.74,11.7,14.94,11,11,18.85,26,31.85,33.8-.65-11.7-12.35-18.2-18.85-27.95-7.8-7.15-13-20.14-23.4-22.74,2.6-3.25,5.2-7.15,7.8-10.4a101.68,101.68,0,0,0,12.35,16.89c14.3,15.6,25.35,33.8,41.6,47.45-.65-3.9,0-7.8-3.25-10.4l-28.6-34.45c-6.5-7.79-13-14.94-20.15-22.09l5.2-7.8h0l3.9-5.85c6.5,11,17.55,18.85,25.35,29.25,9.1,8.44,15,18.84,25.35,24.69a14.76,14.76,0,0,0-3.9-10.4c-14.3-15.59-28.6-31.84-42.9-47.44l-.65-.65,3.9-5.2c9.75,12.35,36.4,48.09,46.8,49.39-11-20.14-29.9-35.09-44.2-52.64l7.15-10.4c5.2,10.4,15.6,18.2,23.4,28,11,10.4,21.45,31.19,35.1,34.44-2.6-11-13.65-16.89-20.15-25.34-11-12.35-22.1-25.35-33.8-37.7a4.93,4.93,0,0,0-2.6-1.3l5.85-7.8A78.42,78.42,0,0,0,861.15,616c9.1,9.75,18.2,19.5,26.65,29.9.65.65,2.6-.65,3.25-1.3-12.35-16.25-26-30.55-39.65-46.15-.65-.65-1.3-1.3-1.95-1.3l1.3-1.95,2.6-3.25v1.3c14.3,16.25,29.25,31.85,43.55,47.45,4.55,3.9,7.8,10.4,14.3,10.4,0-10.4-17.55-21.45-23.4-30.55-11-9.75-20.15-23.4-32.5-31.2l5.85-9.75c0,2,1.3,3.25,2.6,5.2,9.75,9.1,17.55,24,29.25,29.9,2.6-10.4-13-19.5-18.85-28-4.55-3.25-7.15-7.8-12.35-9.1a28.63,28.63,0,0,0,1.3-19.5c-.65-16.25,1.95-33.15-3.9-49.4-.65-5.85,3.9-7.15,7.8-3.9,21.45,14.3,44.85,25.35,65.64,41.6,32.5,22.1,66.3,42.9,93.6,70.85,3.9,3.9,7.8,7.8,11,11.7,10.4,13.65,37,23.4,38.35,36.4-17.55-7.8-30.55-23.4-46.8-34.45-.65-.65-2.6,0-3.9,0,7.8,11,22.75,18.2,33.15,27.3,7.15,6.5,18.2,10.39,18.2,20.79-16.9-11-31.2-26.64-47.45-39-1.95-.65-3.25-1.3-5.2-2,5.85,13,20.8,20.15,31.2,30.54,5.85,7.15,24.05,13,21.45,23.4-12.35-5.2-20.8-18.2-31.85-26-6.5-4.54-11-13-18.85-14.29,0,9.1,28.6,26.64,35.75,35.74,5.85,6.5,16.9,9.75,13,20.8-10.4-7.8-31.2-33.15-40.95-33.8,6.5,13,22.1,22.1,31.85,33.15,5.2,4.55,13,6.5,10.4,15-12.35-4.55-28.6-33.8-39.65-31.85,7.8,15.6,24.7,24.7,37,36.4,1.3,1.3,0,5.2,0,7.8-9.1-5.85-18.2-21.45-28.6-21.45,1.3,7.15,8.45,11.7,13.65,16.9,16.25,9.1,11.7,17.55,7.15,32.5-.65,3.25,0,5.2,4.55,3.9,12.35-.65,20.15,19.5,31.85,19.5-3.25-10.4-18.2-14.95-23.4-24a77.9,77.9,0,0,1,7.8-7.15c11,11,22.75,23.4,34.44,34.45.65.65,2.6,0,3.9.65,0-7.8-26.64-29.25-33.14-35.1-5.85-3.9,1.3-8.45,3.25-12.35,5.2,2,7.8,11,12.35,15s9.74,12.35,16.89,10.4c-3.25-9.1-36.39-28.6-24.69-36.4,7.8,11.7,18.84,21.45,28.59,31.85a26.35,26.35,0,0,0,5.85,3.25c.65-14.3-37-31.85-31.84-45.5,5.2-4.55,2.6,2.6,3.9,3.9,10.39,7.8,23.39,28.6,33.79,31.2a11.06,11.06,0,0,0-.65-4.55c-10.4-11.05-21.45-22.1-32.49-33.8-1.3-.65-1.3-3.9-.65-7.15,0,.65.65.65.65,1.3,11.69,11,20.79,25.35,35.09,33.15,2-5.2-2.6-7.15-5.85-11.05-10.4-9.1-17.55-22.1-29.24-28.6,1.3-5.2,3.24-9.1,5.19-9.75,3.25,0,3.9,3.9,5.2,6.5,13,13.65,26,26.65,38.35,40.3.65,1.3,2.6,1.3,4.55,1.3-.65-8.45-9.75-13-14.3-19.5-8.45-9.75-16.9-18.85-26-27.95-6.68-4.32-5.52-9.59-4.27-15.24,3.1,6.35,11.85,13.69,15.32,19.14,8.45,7.15,13.65,18.85,24,22.75,0-1.3.65-3.25,0-4.55-13.72-13.1-25.06-29.18-38.59-41.37a15.58,15.58,0,0,0-.41-7.38c2-11,14.3,13.65,17.55,15.6,7.15,7.8,15,15,22.1,22.1,18.85,2.6-37.7-42.24-37-49.39v-6.5c.65,1.3,1.3,3.25,2.6,4.55,11.7,11,20.8,26.64,34.45,35.09.65-7.15-5.85-11-9.1-17.55-9.75-9.09-16.9-20.14-27.3-27.29-.65-3.9,0-8.45.65-12.35,3.9,6.5,12.35,11,17.55,16.9,10.4,7.15,22.1,24,35.1,24.69-7.8-13.64-22.75-21.44-33.8-32.49-5.85-4.55-10.4-10.4-16.9-12.35,1.3-2.6,4.55-3.25,9.1-1.3,18.2,7.8,33.15,22.1,48.75,34.45,19.5,16.89,37,35.74,56.55,53.29,6.5,7.15,18.2,11.05,21.45,20.15-7.8.65-10.4-11-18.85-9.75,3.25,9.75,18.85,12.35,18.85,22.75-7.15-3.25-11-11-18.2-13.65,0,5.2,5.2,9.1,7.8,13.65s7.8,4.55,7.8,9.1c-6.5.65-9.1-7.8-17.55-7.15,3.25,7.15,13,9.75,16.25,16.9-7.15,0-11.7-7.8-18.85-9.75,3.25,10.4,18.2,11.05,17.55,19.5-5.85-1.95-9.1-7.15-15.6-7.8a50,50,0,0,0,11.7,11.7c9.1,11.05,9.1,27.3,16.9,39,14.3,22.1,11.7,49.39,21.45,72.14,3.9-5.85.65-13.65.65-20.8-.65-18.19-11.7-37-5.85-54.59a130.23,130.23,0,0,0,6.5-16.9c3.25,5.85,16.24,10.4,21.44,15.6,7.8,2.6,15.6,13.65,23.4,10.4-1.95-4.55-6.5-5.85-10.4-8.45-11.7-5.85-22.09-16.9-33.79-19.5a50.17,50.17,0,0,0,1.3-9.75c2.6,2.6,7.15,4.55,10.4,7.15,11,5.85,20.14,14.95,31.19,18.2-.65-1.3-.65-3.25-2-3.9-13.65-7.8-26-18.85-39.64-24.7v-5.85c10.4,8.45,23.39,14.3,34.44,22.1,7.15,3.9,13.65,11.7,22.1,10.4-3.9-6.5-11-9.1-16.9-13.65-13-7.8-25.35-15-37.69-22.1a2.39,2.39,0,0,0-2-.65v-1.3c0-3.9,0-4.55,3.9-1.95,16.24,10.4,33.14,20.15,50,29.9,1.3.65,3.25,0,5.2.65-3.9-11-58.49-29.9-58.49-40.3,20.79,9.1,39.64,22.75,59.79,33.15,1.3.65,4.55,0,6.5,0-9.75-13-65.64-31.85-68.89-44.85a22.11,22.11,0,0,1,6.5.65c17.54,10.4,35.09,20.8,52.64,30.55a22.11,22.11,0,0,0,6.5.65c-3.9-13-61.09-31.2-62.39-44.2,18.84,8.45,37,20.15,55.24,29.9,1.3.65,3.9,0,5.2,0-.65-1.3-1.3-3.25-2.6-3.9-17.55-10.4-37-18.2-53.94-29.25,16.24-2.6,32.49,10.4,46.79,17.55a390.64,390.64,0,0,1,68.25,48.1c17.55,15.6,34.45,31.2,51.35,47.45,3.9,3.25,6.5,9.09,12.35,9.09-.65-2.59-.65-5.19-3.25-7.14a607.58,607.58,0,0,0-58.5-57.2c-31.2-26-109.2-90.35-149.49-61.1a5.55,5.55,0,0,1-4.55,0c-31.85-30.55-64.35-61.75-97.5-91-20.8-18.85-51.35-27.95-78-15.6-13,11-29.9,7.8-41.6-3.25-34.45-26.65-68.25-55.25-104-80-7.8-5.2-8.45-7.8-1.95-15a270.28,270.28,0,0,0,20.8-25.35c18.85-26,37.7-53.29,56.55-79.29,3.25-3.9,17.55-25.35,20.8-16.9-3.25,19.5,3.25,39.65-7.8,57.2-7.15,16.24-4.55,35.09-5.85,52.64.65,22.1-11.7,39.65-18.85,59.15,2,9.75,12.35-10.4,14.3-13.65a121.46,121.46,0,0,0,11.7-47.45c1.3-11.7-2-53.94,12.35-54.59a513.82,513.82,0,0,1,38.35,37c.65,1.3.65,2.6,1.3,4.55-10.4,0-14.3-14.95-24-16.25,2.6,9.75,14.3,13.65,20.15,21.45-10.4,1.3-13.65-11.7-22.75-13,.65,1.3,1.3,3.9.65,5.2-12.35,4.55,15.6,15.6,14.3,24.05-7.8,0-10.4-9.1-16.25-12.35-1.3,9.1,9.75,13,12.35,20.8-10.4-.65-11.7-15.6-21.45-17.55.65,10.4,15.6,14.3,16.9,25.35-8.45-2.6-10.4-14.3-18.85-17.55,1.3,11.05,16.25,15.6,15.6,27.3-9.75-3.9-12.35-17.55-22.1-20.8,2.6,11.05,15.6,16.9,19.5,28-8.45.65-12.35-15-20.8-18.2,1.3,12.35,16.9,17.55,18.2,29.25-9.75-3.25-11.7-16.25-22.1-20.15,2,11.7,14.3,21.45,22.1,29.25,7.15-24,22.75-45.5,33.8-68.9,7.8-15.6,11.7-34.45,26-46.79,3.9-5.2,10.4-12.35,9.1-19.5-9.1,4.55-11,16.9-18.19,23.4-8.45-8.45,20.79-27.3,16.89-37.7-10.39,5.85-12.34,20.8-22.09,28.6-1.3-10.4,8.45-18.2,13-27.3,2.59-7.15,13.64-14.3,9.74-22.1-11.69,10.4-16.89,27.3-27.94,38.35-1.3-3.25-2.6-6.5.65-9.1,7.15-9.75,14.3-20.15,21.44-29.9,3.25-5.85,11-9.75,7.15-17.55-11.69,13-20.79,28.6-31.84,42.25a7,7,0,0,1-3.9,1.3,5.4,5.4,0,0,1,1.3-7.8L1114,383.33a23.09,23.09,0,0,0,1.3-6.5c-15.59,7.8-24.69,35.1-38.34,46.15-.65-16.25,24.7-33.15,26.65-50.7-14.3,9.75-20.15,28.6-32.5,41-1.3-3.25-6.5-7.15-2.6-10.4,9.1-17.55,24.7-29.9,36.4-45.5,32.49-37.05,55.24-80.59,85.79-118.94,2,13,0,26,3.9,39,2,14.94-5.2,27.94-8.45,41.59-4.55,16.9-4.55,35.1-.65,52.65a53.09,53.09,0,0,1-.65,26.65c-13.65,48.1-42.9,89-66.95,132.59-3.9,9.75-15.59,19.5-14.29,29.9,9.74-13.65,19.49-27.3,27.94-41.6,2,5.2,5.2,11.05,11,10.4.65-4.55-3.25-7.15-5.85-10.4l-3.9-1.3,6.5-10.4a3.91,3.91,0,0,0,.65,2.6c7.8,9.1,13.65,20.15,23.4,26.65v-5.85c-7.8-8.45-13-20.15-22.1-26.65a43.72,43.72,0,0,1,4.55-7.15c1.3,2.6,3.25,4.55,4.55,7.15,11,11.7,18.85,28.6,31.85,37.7,3.9-7.15-19.5-29.25-24.7-38.35-3.25-3.9-5.85-7.8-9.1-11.05l6.5-11a53.14,53.14,0,0,0,7.8,13c10.4,13,16.9,29.9,29.9,40.3-.65-2.6.65-5.85-.65-7.8-11-16.9-22.75-33.15-34.45-50.05l-.65-.65a62,62,0,0,1,6.5-11c1.3,8.45,9.1,15.59,13.65,23.39,9.75,14.3,20.15,28,29.9,42.25,1.3,2,3.9,2.6,6.5,3.9a23.37,23.37,0,0,0-1.3-7.15c-9.1-13-18.85-26.65-28-39.65-7.15-7.8-11-18.19-19.5-24a71,71,0,0,0,5.2-9.75c2.6,11.05,13.65,20.15,19.5,29.89,10.4,12.35,16.9,29.25,29.9,38.35-.65-3.25-1.3-6.5-3.25-9.1-15.6-19.5-28-43.54-46.15-61.09l2.6-5.2c.65,2.6,3.25,5.2,4.55,7.8,15,22.74,29.9,43.54,45.5,65a6.86,6.86,0,0,0,3.25,1.3c2.6-7.8-15-26-18.85-34.45-11-14.29-19.5-31.19-32.5-44.19l5.85-10.4c0,2.6,1.3,4.55,2.6,6.5,16.25,22.1,27.95,48.09,47.45,66.94-9.1-27.3-30.55-49.39-45.5-74.74l-3.25-1.95,5.85-11.05a39.76,39.76,0,0,0,3.25-7.8c0,.65.65,1.3,1.3,1.95,8.45,9.1,18.2,29.25,28.6,32.5,0-1.95.65-4.55-.65-5.85-9.75-11.05-16.9-24.7-28-34.45a53.12,53.12,0,0,0,.65-17.55c1.3,6.5,10.4,9.1,14.95,14.3,9.75,6.5,17.55,18.85,28.6,19.5-4.55-11.7-29.9-26-39.65-35.75-.65-.65-2.6,0-4.55-.65a147.89,147.89,0,0,1-1.3-16.9c5.85,7.8,16.9,13.65,24,21.45,7.15,3.9,11.7,11.7,20.15,11.05-7.15-11.7-20.8-18.2-30.55-27.3-4.55-2.6-8.45-9.1-13.65-9.75a62.64,62.64,0,0,1,0-15.6c5.2,9.75,29.25,24.05,35.75,30.55,6.5,5.2,12.35,13.65,21.45,12.35a35.62,35.62,0,0,0-10.4-11.7c-15.6-11.7-29.9-26-46.15-36.4l2-7.8c13.65,15.6,32.5,26,48.1,39,6.5,3.9,12.35,11.7,20.15,10.4-18.2-20.15-43.55-33.8-65-50.7-3.25-3.9-2-10.4-.65-16.9,0,7.8,10.4,11.7,14.95,16.9,11.05,7.15,22.75,22.75,35.75,25.35-.65-8.45-9.75-11.05-15.6-16.9-11.7-8.45-21.45-20.8-35.1-26a43.7,43.7,0,0,0,2.6-15.6v-2.6A16.83,16.83,0,0,0,1203,304l37.7,34.45c3.9,3.9,7.8,8.45,13.65,4.55-16.9-16.25-33.8-31.85-51.35-47.45a12.05,12.05,0,0,0-4.55-1.3,67.81,67.81,0,0,0,0-16.24c5.2,11.69,27.3,26,36.4,36.39,4.55,3.25,9.1,9.1,15.6,7.15-5.85-9.75-15.6-15.6-24-24.05-10.4-5.85-16.25-18.19-28-20.79-.65-5.2-.65-11.05-1.3-16.25,5.2,6.5,15,14.3,16.9,17.55,7.15,5.19,27.3,31.19,33.8,30.54,0-2.6-.65-5.2-2.6-6.5l-48.75-50c0-3.25-.65-7.15,0-10.4,3.25-5.2,14.3,12.35,16.9,14.95a218.82,218.82,0,0,0,46.8,48.09c8.45,11.05,2.6,27.95,6.5,41.6-2,9.75.65,20.8-.65,31.2,1.3,14.3-.65,32.5,3.25,46.8-3.9,14.3-1.95,29.9-2.6,44.85A98.57,98.57,0,0,0,1283,515.92c19.5,31.2,37.69,63.7,57.84,94.25.65,1.3,3.25,1.3,4.55,1.3-20.8-41.6-48.74-80-68.89-122.85-2-5.85-7.15-13.65-4.55-19.49,16.9,25.34,33.14,50.69,50.69,76,5.2,5.85,7.8,12.35,13.65,15.6-.65-13.65-20.15-33.8-27.3-46.8-11.69-16.9-24-33.15-35.74-50a9,9,0,0,1-1.3-7.15,8.24,8.24,0,0,0,.65-3.9c6.5,14.95,19.5,27.94,27.3,41.59,9.74,12.35,17.54,28.6,29.24,39,3.25-7.8-17.55-30.55-22.75-39.65-11.69-16.25-21.44-32.49-33.14-48.09a45.66,45.66,0,0,0-3.9-22.75c3.25-25.35-1.95-55.25-.65-80a134,134,0,0,0-.65-27.95c-2-8.45,12.35-11.05,17.55-15.6,9.1-6.5,16.24,5.2,13.65,14.3-1.3,2.6-1.3,5.85-2,8.45a267.68,267.68,0,0,1-7.15,75.4c-1.3,16.9-13,35.75-3.25,51.35,18.84,25.35,33.79,55.89,55.24,78.64,3.9-10.4-20.8-35.75-26-46.8-9.1-13.64-18.84-26.64-27.29-40.29-1.95-2.6,0-7.8.65-11.7,15.59,18.85,28.59,39.65,43.54,58.49a7.81,7.81,0,0,0,0-9.1c-11-15.59-22.1-30.54-33.14-46.14-6.5-7.8-13.65-16.9-4.55-26,18.84,25.35,35.74,52.65,55.89,77.34,1.3,1.3,3.9,1.95,5.85,3.25-.65-1.95,0-5.2-1.3-6.5-14.3-20.14-29.25-39.64-43.55-59.79-5.2-9.75-18.19-17.55-14.29-29.9,15.59,19.5,31.19,40.3,46.14,60.45,2.6,3.25,3.9,6.5,9.1,5.2-12.35-25.35-32.5-45.5-49.4-68.25-9.09-6.5-2-5.85-2.59-17.55,19.49,25.35,37.69,51.35,56.54,76.7,1.3,2,4.55,2.6,6.5,3.9-.65-3.25.65-7.8-3.25-9.75-18.85-26-38.35-50.7-57.2-76.05-4.54-5.85-.65-14.95,0-21.45,5.85,1.95,5.85,9.1,9.1,13.65,16.25,21.45,28.6,46.8,47.45,66.3-6.5-21.45-24-38.35-35.1-57.85a200.63,200.63,0,0,0-16.9-24,16.89,16.89,0,0,1-5.2-16.25c5.85,2.6,7.15,9.75,11.05,14.3,19.5,26,33.8,57.2,55.9,80a22.11,22.11,0,0,0-.65-6.5c-12.35-18.85-25.35-37.05-38.35-55.25-5.85-11.7-27.3-32.5-26.65-43.55,2.6,1.3,6.5,1.3,7.15,3.25l-2.6-1.3c9.1,17.55,22.1,32.5,33.15,49.4,2.6,3.25,4.55,6.5,7.8,8.45,5.2-6.5-11.05-20.8-14.3-28-5.85-6.5-11-14.95-16.9-22.1,8.45,7.8,16.25,16.25,25.35,23.4,42.25,31.85,70.2,78.65,111.15,111.15a35.25,35.25,0,0,0,18.85,9.75c-1.3,2.6-.65,11-1.3,11-11.7-7.14-20.15-18.19-33.8-21.44,7.15,14.95,29.25,18.19,35.1,33.79-14.3-4.55-22.75-20.14-37-24.69,7.15,14.29,23.4,20.14,33.15,31.84,2.6,2,.65,8.45,1.3,13-13-3.25-28.6-31.85-39.65-27.95,5.2,9.75,16.25,16.25,23.4,24.7,5.85,5.85,13,9.75,11.7,19.5-10.4-3.9-26.65-31.2-35.1-27.95,2,9.1,16.25,16.9,22.1,24.7,3.9,5.2,18.2,14.3,14.3,20.8-13-6.5-19.5-22.75-33.8-26.65,1.95,11.7,22.1,24.05,30.55,31.85a13.35,13.35,0,0,1,4.55,17.55c-11-7.15-19.5-20.8-31.85-24.05-.65,10.4,18.2,18.85,24.7,26,6.5,3.25,6.5,8.45,5.85,15-11-5.2-18.2-16.9-29.9-19.5,3.9,11,17.55,16.25,25.35,24.7,6.5,7.15-2.6,14.3-4.55,21.45-6.5,17.55-13.65,35.1-20.15,52a11,11,0,0,0,0,6.49c13.65-20.79,20.8-45.49,31.2-68.24a98.53,98.53,0,0,0,5.85-43.55c-.65-15.6-5.2-30.55,0-46.8,2-11,8.45-36.4,1.3-42.89a120.85,120.85,0,0,0,26.64-5.2c-2,7.8,1.3,16.89,3.9,24.69,9.75,22.75,8.45,48.1,12.35,72.8,0,1.3-.65,2-.65,3.25a161.45,161.45,0,0,1-17.55,65l-.65,1.3c-.65,1.3-.65,1.95-1.3,2.6l-2.6,4.55a26.35,26.35,0,0,1-3.25,5.85c-10.39,18.2-24.69,33.79-41.59,46.79-3.9,3.25-9.1,6.5-9.75,12.35a44.78,44.78,0,0,0,5.2-2c.65,9.75,25.35,24.7,31.2,31.85,5.2,4.55,8.45,11.7,15.59,12.35,1.3-3.25,1.3-5.85-2.59-7.8-13.65-13-26.65-26-40.3-38.35h-.65a69.08,69.08,0,0,0,7.15-5.85c3.9,8.45,16.25,14.3,22.1,22.1,9.1,6.5,14.94,16.9,25.34,20.15-3.9-13-23.39-25.35-32.49-36.4a69.57,69.57,0,0,0-10.4-9.1c1.3-1.3,3.25-2,4.55-3.25l3.25-3.9c1.3,7.8,11.7,12.35,16.9,18.2,14.94,13,27.94,30.55,46.14,38.35,0-8.45-7.8-11.7-13.65-17.55-13.65-12.35-26.65-24.7-39.64-37.05a19,19,0,0,0-7.8-4.55c2-2,3.9-4.55,5.85-6.5l.65.65c13.64,13,27.29,26,41.59,39,5.85,4.55,11.05,12.35,19.5,13-.65-2-1.3-3.25-1.95-5.2-13.65-13-26.65-26.65-41.6-38.35-5.19-3.9-8.44-11.05-14.29-12.35,2-2.6,4.55-5.19,6.5-7.79a5.62,5.62,0,0,0,2,3.9c16.89,14.94,33.79,30.54,50.69,45.49,4.55,2.6,10.4,11,16.25,9.75,3.25-8.45-34.45-33.15-42.25-41.6-9.1-6.5-15.6-15.59-25.34-18.84,2.59-3.9,5.19-7.15,7.79-11,5.85,9.75,21.45,17.54,29.25,26,10.4,7.15,18.2,18.85,30.55,22.1-.65-3.25-.65-7.15-3.9-9.1l-34.45-28.59c-5.85-5.2-11.7-10.4-18.85-15a38.6,38.6,0,0,0,2.6-5.2l3.9-7.15c4.55,11.7,42.25,35.09,52,45.49a26.66,26.66,0,0,0,7.15.65c-7.15-11.7-20.15-18.84-29.9-27.94-9.1-5.85-17.55-16.9-28-20.15.65-1.3,2-2.6,2.6-3.9a86.81,86.81,0,0,1,4.55-11.7c7.15,10.4,25.35,21.45,33.8,29.9,6.5,5.2,11.7,11.05,18.2,15,1.95,1.3,4.55,8.44,8.45,2.6.65-1.3-2.6-6.5-5.2-9.1-16.9-15-35.1-28.6-52.65-42.9-.65,0-.65-.65-1.3-.65,1.3-3.25,2-6.5,3.25-9.75,2,8.45,20.8,18.2,27.3,25.35,11.7,8.45,28.6,29.9,42.25,30.55-9.1-14.3-26-22.75-38.35-34.45-9.75-6.5-19.5-18.85-31.2-22.1a95,95,0,0,0,3.25-13,211.45,211.45,0,0,0,18.85,15c9.75,5.2,22.75,21.45,33.8,19.5a11,11,0,0,1-1.3-3.25c-12.35-7.15-37-31.2-50.7-34.45,1.3-5.2,1.3-10.4,2-16.25.65.65.65,2,2,2.6,22.1,15.6,44.2,31.2,66.3,46.15a27.64,27.64,0,0,0,7.15,1.3,26.35,26.35,0,0,0-3.25-5.85c-22.75-13.65-44.2-31.2-67-46.15a12.25,12.25,0,0,0-5.2-1.3,56.89,56.89,0,0,0-1.3-10.4v-8.45c6.5,8.45,16.9,14.3,24.7,22.1,9.75,6.5,28.6,29.25,39,28-1.3-10.4-26.65-24-35.1-33.15-5.2-2.6-21.45-20.8-28.6-22.75-.65-4.55-.65-9.1-1.3-13.65,3.25,3.9,8.45,7.15,12.35,11,15,13.65,29.25,26.65,43.55,39.65,3.25,2.6,6.5,4.55,10.4,5.2,0-5.2-4.55-8.45-7.8-12.35-20.15-15.6-37.7-36.4-59.15-49.4a130.15,130.15,0,0,0-2.6-15.6l.65.65c13,12.35,25.35,23.4,39,35.1,10.4,7.8,18.85,20.15,30.55,24.7,1.3-5.85-4.55-8.45-7.8-11.7-22.1-17.55-40.3-41-64.35-55.9a141.17,141.17,0,0,0-4.55-15.6c3.9,5.2,9.75,9.1,14.3,14.3,11.7,8.45,27.3,29.9,40.3,32.5-5.85-13-18.85-19.5-28.6-29.9-9.75-7.8-16.9-19.5-28-24a77.7,77.7,0,0,0-5.2-13l3.25-.65c5.85,8.45,15.6,14.29,22.75,22.74,9.75,7.8,16.25,18.85,28,23.4-5.85-13.65-24-25.35-34.45-37l-11.7-9.75a32,32,0,0,1,18.85,3.9c48.1,37.69,84.5,89,120.9,138.44l37.69,51.35c8.45,13.64,22.1,24.69,26.65,40.29a24.19,24.19,0,0,0-11.7-1.3c2,6.5,10.4,5.85,11,13-7.8,2.6-13.65-10.4-18.85-3.9,2.6,5.2,20.8,13,18.2,18.85-9.1-.65-15-11.7-25.35-9.1,3.25,11.7,30.55,11.7,23.4,25.35-9.75-3.9-27.3-22.75-35.74-18.85,9.09,10.4,22.74,15.6,33.14,24,1.3.65.65,4.55.65,6.5-9.1-1.3-36.39-28-41.59-22.1,9.75,12.35,25.34,17.55,37,28,2,1.3.65,6.5.65,9.1-11.7,1.95-34.44-29.9-47.44-29.9,1.3,13,53.94,35.1,41.59,44.2-11.69,1.3-37-33.15-50.69-33.8,5.2,13.65,26,22.1,36.4,33.15,4.54,4.55,13.64,6.5,9.74,16.9-1.3,3.25-1.3,3.9-3.9,1.3-14.29-11.7-28.59-24-42.89-35.75-2-1.3-4.55-1.3-6.5-1.95,8.45,14.3,26,22.75,37.7,34.45,8.44,5.85,14.94,11.7,13,22.75-13-9.1-22.74-22.1-34.44-32.5-7.8-5.85-15.6-19.5-25.35-19.5,11.7,20.8,34.45,35.1,50.7,52.65,4.54,5.2,9.74,1.3,10.39,9.75,2.6,6.5,3.9,16.25,11.7,18.85-12.35-41.6-5.85-53.95,7.15-66.95a5.34,5.34,0,0,0,2.6,3.9c7.15,8.45,11.7,18.85,20.8,25.35,1.3-3.9,1.95-7.15-1.3-10.4-5.85-7.8-11.7-15-18.2-22.1l7.15-6.5c5.2,14.95,18.85,26,27.3,39,.65,1.3,2.6,1.3,3.9,1.95,2-3.25,1.3-7.15-1.3-9.1-9.75-11.05-16.9-24.05-28.6-33.15l5.2-5.2c8.45,10.4,15,24.7,26,32.5,2-6.5-3.9-9.75-7.15-15-5.2-6.5-10.4-13-16.25-19.5a36.05,36.05,0,0,0,3.9-5.2c2,3.9,5.2,6.5,7.15,10.4,9.75,13,17.55,27.3,28.6,38.35,5.85-8.45-15.6-26.65-19.5-35.1-4.55-5.2-7.8-12.35-13.65-16.9,1.3-2,3.25-4.55,4.55-6.5,3.25,8.45,15.6,21.45,18.85,27.3l2-2c-.65-6.5-12.35-22.75-18.85-28.6l1.3-2c.65-1.3,2.6-5.85,5.2-2,10.4,11.05,20.15,36.4,33.15,41.6-1.3-11.7-22.1-35.1-30.55-44.85-5.2-4.55-5.85-10.4-1.3-14.3,13,13,21.45,32.5,35.75,43.55,2-9.1-18.2-24.7-22.75-34.45-4.55-7.15-14.3-10.4-13.65-20.8a8.24,8.24,0,0,0,.65-3.9c3.25,9.75,17.55,22.1,22.75,30.55,11,11.7,18.2,27.3,30.55,36.4,1.3-8.45-7.15-11.7-11-18.2-14.3-16.9-27.3-36.4-42.9-52.65a12,12,0,0,1-.42-1.24c-1.94,33-5.54,45.46-32.73,71.44-2.6-13.65,5.2-28.6,5.85-42.9,1.3-9.1,0-18.2,0-27.95,0-7.8,2.6-10.4,10.4-10.4,4.19,1.2,15.51-4.74,16.8.36,0-.12.06-.24.1-.36a7.54,7.54,0,0,0,0,.82c0-.16,0-.31-.08-.46a16.48,16.48,0,0,0-.32,9.45c.15-2.5.28-5.1.42-7.86,0-.15,0-.3,0-.44.55,5.72,7.39,10,10.38,15.39,13,17.55,26,33.8,39.65,50.7.65,1.3,3.25,1.3,5.2,2-2-11-13-18.85-18.85-28.6-11-13.65-22.1-27.3-33.15-40.3-.65-.65-2-.65-2.6-1.3.65-1.3,2.6-1.95,3.9-2.6a12.13,12.13,0,0,1,15,3.9c11,16.9,22.75,33.15,33.8,49.4,7.8,11,15,21.45,22.75,31.85-1.95,5.2-3.25,11-2.6,16.9-1.3,33.15-4.55,63-16.9,83.19-2.6,5.2-5.85,14.3-3.25,20.8,3.25-4.55,6.5-9.75,9.1-14.3,5.2,10.4,18.2,19.5,24.7,29.25,9.75,10.4,28.6,39.65,40.29,42.25-.65-9.75-10.39-14.3-15.59-22.1-15.6-17.55-30.55-35.1-45.5-52.65a2,2,0,0,0-1.3-.65l5.85-15.6c3.9,11,17.55,20.8,24.7,31.2,9.75,14.3,22.75,26.65,33.14,40.3l3.9,1.95c0-10.4-16.24-22.1-21.44-31.2-9.75-9.75-28-40.3-39.65-45.49.65-2.6,1.3-5.85,2-8.45,3.25,4.55,8.45,9.09,10.4,13,18.85,22.1,34.45,49.4,55.24,68.9.65-11.7-22.74-31.85-29.24-44.2-12.35-15-22.1-31.19-35.1-44.19.65-2.6.65-5.85,1.3-8.45,2.6,5.85,8.45,10.4,11.7,15.6,11,13.64,22.1,27.29,33.15,41.59,7.14,9.1,11.69,20.15,22.74,24-4.55-14.95-18.2-26-26.64-39-12.35-15.6-24.7-31.84-37-46.79a4.93,4.93,0,0,0-2.6-1.3c.65-4.55.65-9.1,1.3-13.65A1.4,1.4,0,0,0,1836.75,813.61ZM368.47,684.91a33.16,33.16,0,0,1,16.25-20.14c2.6,5.19-3.25,9.09-5.85,13C376.92,680.36,369.12,692.71,368.47,684.91Zm3.25,14.3v-5.85c5.2-5.2,7.15-11.05,14.3-13,0,1.95.65,3.9,0,4.55C382.12,688.81,377.57,699.86,371.72,699.21Zm2.6,14.3c-3.25-5.2,11.05-26,12.35-14.3C383.42,703.11,380.17,718.06,374.32,713.51ZM386,619.92c-8.45,2-18.85,18.2-26.65,24.05-.65.65,0,2.6,0,3.9,11.05-5.85,16.9-18.2,27.3-24.7,1.95,10.4-26.65,24.7-24.05,35.1,9.1-3.9,12.35-15.6,20.8-20.8,6.5,10.4-18.2,18.2-16.9,29.25,6.5-3.9,9.75-11.05,16.9-13.65.65,9.1-9.75,14.29-14.3,20.79-6.5.65-9.1-16.89-12.35-22.09-3.25-2.6-3.25-8.45,1.3-13,10.4-8.45,19.5-19.5,31.85-25.35C388.62,615.37,388,618,386,619.92Zm29.25,98.79c-7.15-5.2-19.5-7.8-22.75-16.25a335.59,335.59,0,0,1,2-88.39c9.75-1.3,27.3,1.95,26,14.3-2,11,3.25,21.45,7.15,31.85,3.9,13,18.2,16.89,22.1,29.24,5.85,20.15,15.6,40.3,18.85,60.45C447.77,746.66,432.82,729.11,415.27,718.71ZM610.91,385.93c-.65,14.3-12.35,22.1-21.45,31.85-15.6,20.8-31.2,41-46.15,61.74-3.25,2-1.3,5.2-.65,7.8,13-11,20.8-26.64,31.2-39.64,9.75-11.05,16.25-27.95,27.3-36.4a84.1,84.1,0,0,1-7.8,24.7c-23.4,20.8-38.35,48.74-59.14,71.49-1.3,3.25-7.15,7.8-2.6,11,.65.65,5.2-3.25,6.5-5.2,17.54-20.8,33.79-48.09,51.34-66.94,1.95,14.3-11.7,22.75-18.2,33.79-12.35,18.85-25.35,37.7-38.34,55.9-3.25,3.25-1.95,7.8-3.25,11.7,24-21.45,35.74-55.9,59.14-78,.65,3.25,3.25,7.14,2,9.09-6.5,9.1-13.65,17.55-20.15,26.65-11.7,16.25-24.05,33.15-35.74,50.05-2,2.6-2.6,5.85-.65,8.45,10.39-5.2,19.49-26,27.29-35.1,10.4-15.6,20.8-31.2,31.85-46.8.65-.65,1.95,0,3.25,0a26.66,26.66,0,0,1-.65,7.15c-13.65,20.15-27.3,40.3-41,59.8-2.6,1.95-3.25,5.85-1.3,9.1,13-11,20.15-29.25,31.2-42.9,5.2-5.2,12.35-24.7,18.85-23.4,1.3,1.95,3.9,5.85,3.25,7.15-6.5,9.1-14.3,18.2-20.8,27.3-10.4,13.65-19.5,27.95-29.9,42.25-3.25,2.6-.65,5.85,0,9.1,18.85-24.7,37.05-50,53.3-77.35a56.13,56.13,0,0,0,8.45,9.1c-13,9.75-19.5,26.65-29.9,39-4.55,8.45-14.3,16.25-14.3,26,9.1-4.55,13-15.6,20.15-24,8.45-13.65,20.8-24.7,26-39.65,2,2.6,4.55,5.85,5.85,8.45-2.6,2.6-4.55,5.85-6.5,8.45-10.4,15-20.8,29.25-29.9,44.85-.65,1.3,0,3.25,0,4.55,5.85-1.3,7.8-7.8,11-11.7,5.2-10.4,22.75-30.55,27.3-42.9.65,1.3.65,2.6,1.3,4.55-25.35,72.8-66.3,143-121.54,197.59-8.45,5.85-20.15,26.65-29.9,26.65-3.25-2.6-3.9-6.5-1.3-9.75,11.7-16.25,22.75-33.15,33.8-50.05,5.85-9.1,13.65-15.6,14.3-26-2,1.3-5.2,2-6.5,3.89-15.6,21.45-29.25,45.5-44.2,67-3.25-7.15-9.1-18.2-4.55-26,18.2-22.75,36.4-45.49,53.3-69.54,1.3-1.3.65-3.9,1.3-5.85-2,.65-4.55.65-5.85,2.6-16.25,22.1-35.1,42.89-49.4,66.29-1.3,4.55-3.9,2.6-4.55.65-1.95-4.55-3.9-8.45,0-13.65l29.25-39c9.75-13,17.55-25.35,26.65-37.7,2-2,2.6-5.2,2.6-7.8-8.45,1.3-14.3,16.25-20.15,22.1-11.7,16.9-24.05,33.8-35.75,50.69-1.95,2.6-3.25,14.3-7.8,7.8-7.8-11.7-7.8-13,1.3-24.69,14.95-19.5,29.9-39.65,44.2-59.8,1.3-1.3.65-3.9.65-5.85-2,.65-4.55,1.3-5.85,2.6-14.95,20.15-30.55,40.3-45.5,61.1-1.3,1.3-1.3,3.9-2.6,4.55s-5.2,2.6-6.5,2-7.15-3.25-3.25-8.45c21.45-28.6,45.5-56.55,63.7-87.1-8.45-1.3-11.05,9.1-16.25,14.3-16.9,22.75-35.75,44.85-50.7,68.9-6.5,3.9-10.4-5.85-4.55-11,10.4-11.7,19.5-24.7,29.25-37.05,9.75-15.6,25.35-28.6,31.85-46.15-1.95.65-5.2.65-6.5,2-19.5,26.65-40.3,52.65-59.8,79.3a18,18,0,0,1-2.6-18.2c15.6-9.75,22.75-26.65,33.15-40.95,30.55-41,58.5-84.5,91-124.14,12.35-15.6,24.7-31.85,37.05-48.1,8.45-9.1,13-23.4,24-29.25Zm653.22,358.78a19.13,19.13,0,0,1,22.75-11.7c-7.8,17.55-3.25,37-5.85,55.25a185.37,185.37,0,0,1-8.45,31.2C1257,798,1250.48,769.41,1264.13,744.71ZM1112,632.27c-1.3,25.35-2,50-12.35,73.44-7.15,14.95-10.4,42.25-24,51.35,1.3-22.75,10.4-45.5,8.45-68.9-.65-16.25-7.15-33.14-8.45-49.39C1078.89,631,1110.09,618.62,1112,632.27Zm-63,2c8.45,2.6,23.4,7.15,22.1,17.55a63.25,63.25,0,0,1-25.35-18.2C1046.39,634.22,1047.69,634.22,1049,634.22Zm19.5-119.6c-4.55-3.9-11-7.15-12.35-13,5.2,0,9.1,7.15,13.65,10.4A9.26,9.26,0,0,1,1068.49,514.62ZM851.4,569.22c.65,11-5.85,18.2-11,25.35A470.94,470.94,0,0,0,807.85,642a233.31,233.31,0,0,0-15.6,31.19c-.65,1.95-3.25,3.25-5.2,4.55-7.8-6.5-2.6-16.24-2.6-24.69a267.56,267.56,0,0,0,5.85-55.9,80.14,80.14,0,0,0-9.1-50.7c-2-9.1,14.95-13,21.45-13.65,18.2-.65,31.2-13,46.8-20.15C854,530.87,849.45,550.37,851.4,569.22Zm227.49-78.65c-2.6-1.3-5.2-3.25-7.8-4.55l5.2-.65a18.44,18.44,0,0,1,5.85,3.9C1081.49,489.92,1079.54,491.22,1078.89,490.57Zm1.95-50.69c5.85,7.8,16.25,40.94-.65,39.64a28,28,0,0,1-20.8-9.09c-5.85-9.1-19.5-13.65-21.45-24.7-.65-11.05,1.3-22.1-1.3-33.15,0-7.15-3.25-13.65,0-18.85C1055.49,395,1071.74,425.58,1080.84,439.88Zm92.29-189.79c-22.1,24.7-38.35,53.94-57.84,81.24-16.25,20.8-35.1,40.3-52.65,61.1-5.85,8.45-16.25-4.55-23.4-6.5-4.55-3.25-10.4-1.95-13.65,2.6,0,.65-.65.65-.65,1.3-20.15,28.6-40.3,58.5-61.1,86.45-58.49,78-28,55.24-105.94,18.84-10.4-2.6-16.25,6.5-22.1,11.7-16.25,18.85-53.95,11.7-58.5,31.2,0,0-2.6,0-2.6-.65-10.4-15.6-19.5-31.85-30.55-46.8-11.69-16.24-25.34-31.19-38.34-46.79-18.85-13.65-38.35-26-49.4-47.45-6.5-10.4-16.9-17.55-25.35-26.65-18.85-52.65-8.45-126.74,9.1-180C711,3.75,945.64-38.5,1086,97.34c41.59,33.8,65,82.55,88.39,129.35C1183.53,235.79,1180.28,242.29,1173.13,250.09Z"/><path class="cls-1" d="M1803,976.75a13.37,13.37,0,0,0-1.38-2.85C1802,974.85,1802.47,975.8,1803,976.75Z"/><path class="cls-1" d="M1094.49,976.75a11.65,11.65,0,0,0-.59-1.43C1094.09,975.8,1094.3,976.27,1094.49,976.75Z"/><path class="cls-1" d="M850.75,809.71c-9.1-11.05-20.8,14.95-28.6,20.15-9.75,11-19.5,21.45-29.25,32.49-3.25,3.25-5.85,3.9-10.4.65-11.7-8.45-24-15.59-36.4-23.39a867.6,867.6,0,0,1-84.49-52c-13-11.7-24.05,12.35-31.85,21.45-10.4,12.35-28,22.75-44.2,18.2-31.2-12.35-31.85-16.25-54.59,10.4-18.2,15.59-36.4,30.54-49.4,51.34-5.2,10.4-24.05,42.25-28.6,52l1.95,2a6.48,6.48,0,0,1,2.6-.65l.65-.65c-.65,0,.65-.65,0,0a4.93,4.93,0,0,0,1.3-2.6c-1.3,2,.65-1.3,1.3-2.6,4.55-10.4,9.75-20.8,16.25-29.9,11.05-24.7,41.6-53.3,65-70.19,2-1.3,4.55-2,6.5-1.3-.65,0-.65.65-1.3.65a334,334,0,0,0-35.09,39.64c-1.3,1.3,3.25,5.2,4.55,3.9,9.1-9.1,16.9-18.85,26-28.59A42.4,42.4,0,0,0,553.06,837a41.73,41.73,0,0,1,6.5,8.45c-9.75,3.9-22.74,27.29-29.24,35.74-.65,1.3,3.25,5.2,3.9,4.55,9.09-12.35,20.14-24,26-38.34a66,66,0,0,1,4.55,9.74,7.43,7.43,0,0,0-5.2,4.55c-3.25,5.85-6.5,11-9.1,16.9-.65,1.3,4.55,4.55,4.55,3.25,2.6-6.5,10.4-15,10.4-22.1,3.25,7.8,5.2,15,6.5,18.2,3.9,11,2.6,24,9.1,34.45,6.5-11.7-1.3-24.7-2.6-36.4-1.95-19.5-14.3-31.84-23.4-47.44,21.45-4.55,36.4,22.1,69.55-4.55,3.9,5.2-.65,11.7.65,17.55,1.95,14.94,5.2,29.89,5.85,45.49,2,10.4-1.95,24.05,6.5,31.85,3.9-7.8,1.3-16.9,2-25.35,3.9-18.2,24.7-28.6,26.65-47.44-11.7,7.15-16.9,22.74-25.35,33.79-1.3-3.9-2.6-7.8.65-11,4.55-9.1,26-30.54,20.15-39.64-9.75,10.4-15,26-25.35,36.39.65-4.55-1.3-10.39,3.25-13.64,5.85-9.75,11.7-18.85,17.55-28.6.65-.65,0-2.6-.65-3.9-7.8,1.3-15.6,24-21.45,31.2-9.1-14.95,12.35-26.65,14.3-41.6-9.1,1.3-9.75,13-16.25,18.2-7.8-7.15,9.75-20.15,12.35-27.3,1.3-2,2.6-4.55,4.55-6.5,2.6,7.8,13,24.7,16.9,31.85,11.7,16.25,17.55,35.74,18.2,55.89-.65,12.35,4.55,24,14.3,31.2,5.85-9.1-9.75-8.45-8.45-37.7,0-13-3.9-25.34-10.4-36.39-11.7-17.55-18.85-37.7-28.6-46.15,2.6-1.3,5.2,0,11.7,3.9a1138.86,1138.86,0,0,0,113.09,71.49c5.85,3.25,4.55,5.85.65,9.1-26,18.85-37,48.1-55.89,72.8,9.74,1.95,14.29-9.75,19.49-16.25A163.1,163.1,0,0,1,771.45,891c24-22.75,47.45-46.14,69.55-69.54.65,2,.65,4.55,1.3,6.5C826.7,839,815.65,856.5,802,870.8a22.79,22.79,0,0,0-3.9,9.1c14.95-7.8,23.4-23.4,35.1-35.74,3.25-4.55,7.8-7.15,9.1-12.35.65,5.2-.65,9.75-2.6,14.3-9.1,11-18.85,21.44-28,32.49-3.9,5.85-12.35,11-11,19.5,11-2,30.55-42.25,42.25-45.49.65,4.54-2.6,9.74-7.15,11.69-11,14.3-22.75,28.6-34.45,42.9-1.3,1.3-.65,4.55-.65,6.5,1.95-.65,3.9-1.3,5.2-2.6,13-16.25,26.65-32.5,39-49.4l1.3,9.1c-8.45,3.9-13.65,13.65-20.8,20.15-1.3,1.95-.65,5.2-.65,7.8,3.25-1.3,6.5-3.9,7.8-7.15,4.55-5.2,13-12.35,13.65-19.5a73.09,73.09,0,0,1-2,40.95c-4.55,17.55-13.65,39-3.9,55.9,4.55-12.35.65-26,5.85-39a127.12,127.12,0,0,0,7.8-49.4c-2-19.5-7.15-39-6.5-57.84,11,1.95,15.6,14.3,24,20.8a84.24,84.24,0,0,0,33.8,17.54c13.64,3.9,26.64,6.5,40.29,10.4,4.55,1.3,5.85,4.55,4.55,9.1-2.6,15-3.9,31.85-15,43.55a76.54,76.54,0,0,0-26.64,35.75c-.65,1.95.65,4.55,1.3,7.15,9.09-12.35,12.34-26.65,26-35.75,15.6-13,18.2-33.8,20.15-52.65l13.65,7.15c-7.8,7.15-15,28-20.8,35.1-5.2,12.35-22.75,35.1-20.15,46.8l13.65-21.45c-.12.35-.25.7-.37,1,3.09-4.31,5.09-9.14,8.92-12.72,0-.22-.06-.44-.1-.67,8.45-15,16.25-30.55,24.7-45.5v-.65l7.15,3.9c-12.71,15.9-19.22,35.52-28.62,54a23.07,23.07,0,0,0,2.88,9.75c9.67-20.14,22.65-39.72,27.69-60.52a59.34,59.34,0,0,1,8.45,5.2c-.65.65-.65,1.3-1.3,1.3-9.1,18.85-17.55,38.35-26.65,57.2a12.07,12.07,0,0,0-.65,12.35c8.45-7.8,10.4-18.85,15.6-29.9,5.2-13.65,13-25.35,16.9-39,1.3.65,2.6,2,3.9,2.6l3.25,2.6c-4.55,5.2-5.2,13.65-8.45,19.5-3.25,11-11.7,20.8-7.8,32.5a36.05,36.05,0,0,0,3.9-5.2c3.25-12.35,13.65-31.2,15.6-44.2l6.5,5.85c-7.15,7.8-8.45,19.5-12.35,29.25-.65,1.3.65,3.9,1.3,5.2,7.8-6.5,8.45-18.2,13.65-27.3v-4.55c10.4,9.75,20.8,19.5,31.85,29.25,2,2,3.9,6.5,7.8,3.25.65-.65-1.3-5.2-3.25-7.15C947.59,826,909.9,889,850.75,809.71Z"/><path class="cls-1" d="M513.42,975.45a11.65,11.65,0,0,0-.59-1.43C513,974.5,513.23,975,513.42,975.45Z"/><path class="cls-1" d="M1006.74,977.4a11.65,11.65,0,0,0-.59-1.43C1006.35,976.45,1006.55,976.92,1006.74,977.4Z"/><polygon class="cls-1" points="312.58 905.9 313.23 903.3 311.93 900.7 312.58 905.9"/><polygon class="cls-1" points="366.52 920.2 366.52 919.55 365.87 918.25 366.52 920.2"/><polygon class="cls-1" points="766.25 920.2 766.25 919.55 765.6 918.25 766.25 920.2"/></g></g></svg>