<svg id="Layer_1" data-name="Layer 1" xmlns="http://www.w3.org/2000/svg" viewBox="0 0 1912.14 977.4"><defs><style>.cls-1{fill:#1f5260;}</style></defs><path class="cls-1" d="M1869,816.68c-7.8-7.8-12.35-20.15-22.1-26,0,2.6-.65,5.85,1.3,7.8l35.1,46.8c9.75,10.4,16.25,25.35,28,33.8,2-3.25,1.3-5.2-1.3-8.45C1895.63,852.43,1882.63,834.88,1869,816.68Z" transform="translate(-4.29 -2.42)"/><path class="cls-1" d="M823.19,641.84c-2,6.5,4.55,9.1,7.8,14.3,11,10.4,19.5,24.05,32.5,31.85a14.92,14.92,0,0,0-2.6-9.1C847.89,667.19,838.14,650.94,823.19,641.84Z" transform="translate(-4.29 -2.42)"/><path class="cls-1" d="M1841,816l33.15,44.2c9.1,10.4,19.5,31.84,31.2,36.39-.65-9.75-9.75-16.24-15-24-7.8-11.05-16.25-22.1-24.7-33.15-7.8-8.45-15.6-26-25.34-30.55.65-8.45.65-17.55,1.3-26.65a18,18,0,0,0-.65-5.85,1033,1033,0,0,0,68.24,81.9c1.3,1.3,4.55,1.3,7.15,2-2-10.4-11.7-16.25-18.2-24.05-7.8-8.45-15.6-16.9-22.75-26-29.9-39-58.49-79.3-87.74-118.94-2.6-3.9-6.5-9.1-10.4-9.1a164.34,164.34,0,0,0-35.75,0c-5.2,1.3-10.4,0-13.65-3.9-49.4-55.9-88.39-120.9-139.74-175.5-18.2-18.19-36.4-39-60.45-49.39a77.7,77.7,0,0,0-42.25,1.95,12.43,12.43,0,0,1-11.7,0c-39.64-20.8-61.09-61.75-93.59-91a690.27,690.27,0,0,1-78-72.79c-15.6-17.55-20.15,13-34.44,3.25-11.7-11.05-24-20.15-35.1-31.85-11.7-13-20.8-27.3-37.05-34.45-1.95-1.3-3.25-2.6-3.25-5.2-5.2-26-19.5-48.1-33.15-70.2C1055.88-11.38,806.29-57.53,673.05,97.17c-58.5,68.89-79.95,146.89-72.8,235.93-.65,11.7,8.45,31.2.65,40.3-41.6,50.05-76,105.3-115.69,156-17.55,24.7-33.8,50.05-50.7,74.75-8.45,13-8.45,12.35-22.75,6.5-7.8-4.55-17.55-4.55-26-1.3-18.2,7.8-28.6,35.1-50.7,20.15-3.9-2-7.8-3.25-12.35-2.6-39,8.45-40.94,27.3-87.09,14.3-13-2-18.2-2.6-22.1,7.15-9.1,23.4-24.7,44.2-38.35,65.64-16.9,27.3-35.1,53.95-52,81.25-6.5,10.4-12.34,18.85-26,15.6C77,818,49.08,799.78,33.48,816.68c-1.95,13.65-37.7,54.6-27.3,60.45,2,.65,3.9-.65,5.2-2,5.85-16.25,17.55-29.25,27.3-42.25,4.55-5.2,5.85-13.65,14.3-12.35.65,8.45-11,15.6-14.3,22.75-5.2,9.75-15.6,18.85-16.25,29.9,16.25-11.7,21.45-34.45,35.75-47.45,3.9,4.55,3.25,5.2-.65,9.75-4.55,10.4-34.45,43.55-29.25,50.7,14.95-15,24-35.1,36.4-52a32.55,32.55,0,0,1,4.55,5.2,56,56,0,0,0-9.1,11.7c-3.9,9.75-16.25,17.55-13,29.25,8.45-6.5,12.35-16.9,18.85-25.35,2.6-3.25,4.55-7.15,7.15-11,2.6,9.1-5.85,14.95-12.35,26-.65,1.3,0,3.25,0,5.2,9.75-.65,17.55-32.5,26-21.45.65,1.3,2,1.95,2.6,3.25a20.43,20.43,0,0,0-9.1,16.9c6.5-.65,7.15-5.2,10.4-10.4a4.93,4.93,0,0,0,1.3-2.6,30.56,30.56,0,0,0,5.85,7.8c.65-1.95,2.6-3.9,2.6-5.2C96.53,845.93,77.68,844,69.88,829c-2.6-3.9-7.8-6.5-10.4-10.4,1.3,0,3.9-1.3,4.55-.65a79.08,79.08,0,0,0,29.9,3.9c8.45-.65,17.55-2.6,26-2.6a10.57,10.57,0,0,0,11-7.15c13-24.7,31.85-46.15,45.5-70.2,16.9-28.6,32.5-58.49,48.1-87.74a10.12,10.12,0,0,1,11.7-5.85,109.15,109.15,0,0,0,48.1,2.6,9.24,9.24,0,0,1,3.9,1.3c-9.75,13.65-13.65,30.55-22.75,44.2-5.2-9.1-11-18.2-18.2-26-4.55-4.55-10.4-7.8-10.4-15,0-1.3-2.6-2.6-3.9-3.9a11.81,11.81,0,0,0,0,13c5.2,6.5,1.95,11.7-2,16.9-7.8,16.25-40.3,58.49-37,71.49,18.2-22.75,29.25-51.35,44.85-76,.65-1.3,2.6-1.3,3.9-2-5.2,15-15.6,27.94-22.75,42.89-4.55,10.4-13.65,20.8-15,32.5,17.55-20.8,24.7-50,42.25-71.49,2.6,5.85-2.6,10.4-4.55,15.6-7.15,13-14.3,25.34-21.45,37.69-5.2,11.05-14.95,21.45-15.6,33.8,1.95-.65,3.9-1.3,5.2-2.6,15-24.7,24.7-54,42.9-76,2.6,9.75-13,26.64-16.25,37s-18.2,28.6-14.3,37c13.65-19.5,21.45-43.55,34.45-64.34,8.45,2.59-12.35,46.14-16.9,52-14.3,26.65-32.5,51.35-48.75,77.35-3.9,8.45-18.2,22.75-16.9,31.2,9.75-2.6,13-16.9,19.5-24,12.35-18.2,24.7-37.7,37.7-55.9,25.35-40.3,39-86.44,63.05-128,6.5-10.4,32.49-18.85,42.89-13,6.5,2.6,14.3,3.25,15.6,11.7,1.3,9.1,4.55,18.2,8.45,26.65,3.9,15,7.8,30.54,11.05,45.49-3.25,7.15-21.45-4.55-27.3-6.5-6.24-3.74-17.87-12.88-17.63-19.94-.06.37-.15.73-.24,1.1l.32-1.95c-6.5-12.35-13-24.05-20.15-36.4-5.19-8.45-5.84-8.45-9.74.65C287,686,268.77,712.68,261,742.58c19.5-25.35,25.35-59.79,44.2-84.49-1.95,15.6-12.35,29.25-18.2,43.54s-17.55,29.25-17.55,45.5c11.05-11,13.65-27.3,20.8-40.3,6.5-11,10.4-30.54,20.79-37,0,18.2-25.34,44.19-22.74,61.74,9.1-3.25,20.14-51.34,29.89-52,.65,3.9,3.9,7.15.65,11.7-6.5,11.69-12.34,23.39-18.19,35.74-.65,2.6.65,5.2,1.95,7.15,11-11,13.64-29.25,22.09-42.89l3.34,5a5,5,0,0,0-.09.86l.13-.78.52.78c-1.95,7.14-6.5,16.24-8.45,24,0,.65,1.3,2.6,1.3,3.9,5.85-2.6,5.2-11,9.75-14.95,9.1,18.85,43.55,12.35,39.65,26-22.75,36.4-46.8,72.8-68.24,109.85-1.3,2,0,5.2,0,7.15,20.79-26.65,37-56.55,55.89-85.15,10.4-16.9,20.8-33.8,30.55-50.7,3.25-5.85,5.85-5.85,10.4-1.3,1.95,2.6,3.25,3.9,0,6.5-5.2,6.5-23.4,28-20.8,34.45,12.35-3.25,23.4-44.2,34.45-34.45-9.1,14.3-20.15,27.3-29.9,40.3-.65.65,0,2.6,0,3.9,14.95-9.75,22.75-29.9,36.4-41-.65,13.65-36.4,42.25-35.1,55.25,15.6-12.35,25.35-32.5,39-47.45,2.6-3.9,4.55-4.55,7.15,0-12.35,15.6-24.05,33.15-35.75,49.4-3.9,7.15-13.65,14.3-11.05,22.75,1.3-.65,2.6-.65,3.25-1.3,16.25-21.45,29.25-46.8,47.45-67,.65,2,2.6,4.55,1.95,5.2-5.85,12.35-37.7,44.2-33.8,54.6,16.9-14.95,24-39,40.3-53.95.65,2.6,2,5.2-.65,7.8l-32.5,48.1c-4.55,9.75-18.85,21.45-16.9,31.85a26.24,26.24,0,0,0,8.45-8.45c16.25-24,34.45-46.15,46.15-72.8,3.25-2,7.15,0,11.05,2.6-7.8,3.9-10.4,13-15.6,19.5-12.35,17.55-24.7,35.75-37.7,53.95-3.9,3.9-3.25,6.5-2.6,11.05,13-11.7,20.8-28.6,31.2-42.25,7.8-14.3,21.45-26,26-41.6,1.3.65,1.95,1.3,3.25,1.3,13.65,5.2,10.4,11.05,1.3,20.15-18.2,18.2-28.6,41-38.35,63.7C409.16,870.63,389,900.52,378,935l2,1.3a87.18,87.18,0,0,0,11.7-18.2c20.8-44.84,44.2-87.74,69.55-130,16.9-26.65,42.89-44.85,65-67,20.15-20.15,37.7-42.89,53.3-66.94,16.9-26.65,35.1-53.3,47.45-83.2,7.15-11,7.8-50,24.7-39.65a124.3,124.3,0,0,0-10.4,20.8c-2.6,5.85-5.2,9.75-2.6,15.6,8.45-8.45,11-22.1,16.9-33.15,2,1.3,3.25,3.25,4.55,4.55-7.8,7.15-17.55,31.2-22.75,39-.65,1.3.65,3.9,1.3,6.5,3.25-2.6,6.5-5.85,7.8-9.75,4.55-11,13-21.45,15.6-32.5a68.85,68.85,0,0,0,6.5,7.8c-10.4,12.35-15,28.6-22.75,42.25a5.92,5.92,0,0,0,.65,7.8c3.25-3.9,6.5-8.45,7.8-13,4.55-13,14.3-23.4,15.6-36.4,7.15,5.85,4.55,11.7.65,18.2-6.5,15.6-20.15,30.55-20.15,48.1,13-13.65,17.55-33.15,26.65-49.4,1.3-4.55,3.25-3.9,6.5-1.3a76.58,76.58,0,0,0-7.15,12.35c-3.9,13-14.3,24.7-13,38.35,11.05-10.4,13.65-27.3,20.8-40.95a10.87,10.87,0,0,0,.65-7.8,71.13,71.13,0,0,1,6.49,7.15c-2.6,3.25-3.25,7.8-5.84,11.7-3.9,10.4-12.35,19.5-10.4,30.55,9.75-9.75,13-24.7,20.14-37v-.65L699,584a27.53,27.53,0,0,0-3.9,9.1c-3.9,11.7-18.84,31.85-15.59,42.9,11.69-13.65,16.24-32.5,24.69-48.75a35,35,0,0,0,8.45,4.55c-4.55,2-5.2,6.5-7.8,11.05-3.25,8.45-13,17.55-9.75,26.65,1.3-.65,3.25-1.3,3.25-2,3.9-10.4,15-24.7,14.3-35.1a20.32,20.32,0,0,1,7.15,5.85c-8.45,13.65-15.6,28-20.15,42.9A32.63,32.63,0,0,0,701,649c8.45-7.8,9.75-21.45,15.6-31.2a76.21,76.21,0,0,0,5.85-15.6c1.95,3.25,4.55,6.5,5.85,10.4-4.55,3.9-14.95,26.65-13,30.55,6.5-1.95,7.15-9.1,11.05-14.3a69.31,69.31,0,0,0,4.55-12.35,44.75,44.75,0,0,0,7.15,8.45c5.85-7.8-9.75-29.9-16.9-33.8a141.76,141.76,0,0,1-40.94-37.7c-20.15-32.5-34.45-22.1-50.7-43.55-16.25-27.29-39.65-37.69-23.4-72.14,5.2-18.2,9.75-36.4,14.3-55.25,1.3-6.5,7.15-9.1,11.05-4.55,17.55,19.5,31.2,46.15,52,62.4,33.79,22.1,52.64,57.2,74.09,89.69,35.75,43.55,33.15,87.1,19.5,139.1-4.55,33.14-8.45,66.29-14.3,98.79-1.3,12.35-9.1,60.45-8.45,74.1,7.15-18.2,15-74.75,18.85-94.25,1.3-8.45,2.6-17.55,4.55-25.35,5.85,6.5,10.4,16.25,19.5,19.5-.65-1.95-1.3-4.55-2.6-6.5-5.85-5.2-9.1-12.35-15.6-16.25a23.09,23.09,0,0,1,2.6-5.85c11.7,10.4,20.15,24.7,31.2,37,.65,1.3,2.6,1.3,4.55,2-.65-11.05-22.75-30.55-30.55-40.3a11.38,11.38,0,0,1,0-16.25c2,8.45,24.05,26.65,28,33.15a102.82,102.82,0,0,0,22.1,18.85c-5.2-15.6-20.15-24.7-29.9-37-5.85-5.2-11.05-13.65-18.2-17.54a37.16,37.16,0,0,1,4.55-5.2,5.62,5.62,0,0,0,2,3.9c11.7,11.69,20.8,27.29,35.1,35.09-.65-2-1.3-4.55-2.6-6.5-11.7-11.05-20.15-26-32.5-35.09a27.52,27.52,0,0,0,3.25-4.55c7.15,1.3,12.35,11.7,18.2,16.89,11.7,13.65,23.4,27.3,35.75,40.95,1.3,1.3,3.9,1.3,5.2,2-.65-2,0-5.2-1.3-6.5-15-17.55-30.55-34.45-45.5-51.34-6.5-7.8-8.45-11-3.9-18.2,1.95,5.85,7.8,9.75,11.7,14.95,11.05,11.05,18.85,26,31.85,33.79-.65-11.7-12.35-18.19-18.85-27.94-7.8-7.15-13-20.15-23.4-22.75,2.6-3.25,5.2-7.15,7.8-10.4a102.17,102.17,0,0,0,12.35,16.9c14.3,15.6,25.35,33.79,41.6,47.44-.65-3.9,0-7.8-3.25-10.4l-28.6-34.44c-6.5-7.8-13-15-20.15-22.1l5.2-7.8h0l3.9-5.85c6.5,11,17.55,18.85,25.35,29.25,9.1,8.45,14.95,18.85,25.35,24.7a14.76,14.76,0,0,0-3.9-10.4c-14.3-15.6-28.6-31.85-42.9-47.45l-.65-.65,3.9-5.2c9.75,12.35,36.4,48.1,46.79,49.4-11-20.15-29.89-35.1-44.19-52.65l7.15-10.4c5.2,10.4,15.6,18.2,23.4,27.95,11.05,10.4,21.44,31.2,35.09,34.45-2.6-11-13.65-16.9-20.15-25.35-11-12.35-22.09-25.35-33.79-37.7a4.93,4.93,0,0,0-2.6-1.3l5.85-7.8a78.42,78.42,0,0,0,13.65,15.6c9.1,9.75,18.19,19.5,26.64,29.9.65.65,2.6-.65,3.25-1.3-12.35-16.25-26-30.55-39.64-46.15-.65-.65-1.3-1.3-2-1.3l1.3-2,2.6-3.25v1.3c14.3,16.25,29.24,31.85,43.54,47.45,4.55,3.9,7.8,10.4,14.3,10.4,0-10.4-17.55-21.45-23.4-30.55-11.05-9.75-20.14-23.4-32.49-31.2l5.85-9.75c0,2,1.3,3.25,2.6,5.2,9.74,9.1,17.54,24,29.24,29.9,2.6-10.4-13-19.5-18.85-27.95-4.54-3.25-7.14-7.8-12.34-9.1a28.63,28.63,0,0,0,1.3-19.5c-.65-16.25,2-33.15-3.9-49.4-.65-5.84,3.9-7.14,7.8-3.9,21.44,14.3,44.84,25.35,65.64,41.6,32.5,22.1,66.3,42.9,93.6,70.85,3.9,3.9,7.8,7.8,11,11.7,10.4,13.65,37,23.4,38.34,36.4-17.54-7.8-30.54-23.4-46.79-34.45-.65-.65-2.6,0-3.9,0,7.8,11.05,22.75,18.2,33.15,27.3,7.14,6.5,18.19,10.4,18.19,20.8-16.89-11-31.19-26.65-47.44-39-2-.65-3.25-1.3-5.2-2,5.85,13,20.8,20.15,31.2,30.55,5.85,7.15,24,13,21.44,23.4-12.34-5.2-20.79-18.2-31.84-26-6.5-4.55-11-13-18.85-14.3,0,9.1,28.6,26.65,35.75,35.75,5.84,6.49,16.89,9.74,13,20.79-10.39-7.8-31.19-33.14-40.94-33.79,6.5,13,22.1,22.09,31.84,33.14,5.2,4.55,13,6.5,10.4,14.95-12.34-4.55-28.59-33.79-39.64-31.84,7.8,15.59,24.7,24.69,37,36.39,1.3,1.3,0,5.2,0,7.8-9.09-5.85-18.19-21.45-28.59-21.45,1.3,7.15,8.45,11.7,13.65,16.9,16.24,9.1,11.69,17.55,7.15,32.5-.66,3.25,0,5.2,4.54,3.9,12.35-.65,20.15,19.5,31.85,19.5-3.25-10.4-18.2-15-23.4-24.05a77.9,77.9,0,0,1,7.8-7.15c11,11.05,22.75,23.4,34.45,34.45.65.65,2.6,0,3.9.65,0-7.8-26.65-29.25-33.15-35.1-5.85-3.9,1.3-8.45,3.25-12.35,5.2,2,7.8,11.05,12.35,15s9.75,12.35,16.9,10.4c-3.25-9.1-36.4-28.6-24.7-36.4,7.8,11.7,18.85,21.45,28.6,31.85a26.35,26.35,0,0,0,5.85,3.25c.65-14.3-37-31.85-31.85-45.5,5.2-4.55,2.6,2.6,3.9,3.9,10.4,7.8,23.4,28.6,33.8,31.2a11.06,11.06,0,0,0-.65-4.55c-10.4-11-21.45-22.1-32.5-33.8-1.3-.65-1.3-3.9-.65-7.15,0,.65.65.65.65,1.3,11.7,11,20.8,25.35,35.1,33.15,2-5.2-2.6-7.15-5.85-11-10.4-9.1-17.55-22.1-29.25-28.6,1.3-5.2,3.25-9.1,5.2-9.75,3.25,0,3.9,3.9,5.2,6.5,13,13.65,26,26.65,38.35,40.3.65,1.3,2.6,1.3,4.55,1.3-.65-8.45-9.75-13-14.3-19.5-8.45-9.75-16.9-18.85-26-28-6.68-4.32-5.52-9.59-4.27-15.24,3.09,6.35,11.85,13.69,15.32,19.14,8.45,7.15,13.65,18.85,24,22.75,0-1.3.65-3.25,0-4.55C1144.85,708,1133.51,692,1120,679.76a15.53,15.53,0,0,0-.41-7.37c2-11,14.3,13.65,17.55,15.6,7.15,7.79,15,14.94,22.1,22.09,18.85,2.6-37.7-42.24-37-49.39v-6.5c.65,1.3,1.3,3.25,2.6,4.55,11.7,11,20.8,26.65,34.45,35.1.65-7.15-5.85-11.05-9.1-17.55-9.75-9.1-16.9-20.15-27.3-27.3-.65-3.9,0-8.45.65-12.35,3.9,6.5,12.35,11.05,17.55,16.9,10.4,7.15,22.1,24.05,35.1,24.7-7.8-13.65-22.75-21.45-33.8-32.5-5.85-4.55-10.4-10.4-16.9-12.35,1.3-2.6,4.55-3.25,9.1-1.3,18.2,7.8,33.15,22.1,48.75,34.45,19.5,16.9,37,35.74,56.55,53.29,6.5,7.15,18.19,11,21.44,20.15-7.79.65-10.39-11.05-18.84-9.75,3.25,9.75,18.84,12.35,18.84,22.75-7.14-3.25-11-11.05-18.19-13.65,0,5.2,5.2,9.1,7.8,13.65s7.79,4.55,7.79,9.1c-6.49.65-9.09-7.8-17.54-7.15,3.25,7.15,13,9.75,16.24,16.9-7.14,0-11.69-7.8-18.84-9.75,3.25,10.4,18.2,11,17.54,19.5-5.84-2-9.09-7.15-15.59-7.8a50,50,0,0,0,11.7,11.7c9.09,11,9.09,27.3,16.89,39,14.3,22.1,11.7,49.4,21.45,72.14,3.9-5.84.65-13.64.65-20.79-.65-18.2-11.7-37.05-5.85-54.6a130.23,130.23,0,0,0,6.5-16.9c3.25,5.85,16.25,10.4,21.45,15.6,7.8,2.6,15.6,13.65,23.4,10.4-2-4.55-6.5-5.85-10.4-8.45-11.7-5.85-22.1-16.9-33.8-19.5a50.17,50.17,0,0,0,1.3-9.75c2.6,2.6,7.15,4.55,10.4,7.15,11,5.85,20.15,15,31.2,18.2-.65-1.3-.65-3.25-1.95-3.9-13.65-7.8-26-18.85-39.65-24.7v-5.85c10.4,8.45,23.4,14.3,34.45,22.1,7.15,3.9,13.65,11.7,22.1,10.4-3.9-6.5-11-9.1-16.9-13.65-13-7.8-25.35-15-37.7-22.1a2.39,2.39,0,0,0-2-.65v-1.3c0-3.9,0-4.55,3.9-2,16.25,10.4,33.15,20.15,50,29.9,1.3.65,3.25,0,5.2.65-3.9-11-58.5-29.9-58.5-40.3,20.8,9.1,39.65,22.75,59.8,33.15,1.3.65,4.55,0,6.5,0-9.75-13-65.65-31.85-68.9-44.85a22.11,22.11,0,0,1,6.5.65c17.55,10.4,35.1,20.8,52.65,30.55a22.11,22.11,0,0,0,6.5.65c-3.9-13-61.1-31.2-62.4-44.2,18.85,8.45,37,20.15,55.25,29.9,1.3.65,3.9,0,5.2,0-.65-1.3-1.3-3.25-2.6-3.9-17.55-10.4-37.05-18.2-54-29.25,16.25-2.6,32.5,10.4,46.8,17.55A390.64,390.64,0,0,1,1414,805c17.55,15.6,34.45,31.2,51.34,47.45,3.9,3.25,6.5,9.1,12.35,9.1-.65-2.6-.65-5.2-3.25-7.15a607.47,607.47,0,0,0-58.49-57.2c-31.2-26-109.2-90.35-149.5-61.1a5.55,5.55,0,0,1-4.55,0c-31.84-30.55-64.34-61.74-97.49-91-20.8-18.85-51.35-28-78-15.6-13,11-29.89,7.8-41.59-3.25-34.45-26.65-68.25-55.25-104-80-7.8-5.2-8.45-7.8-2-14.95A270.28,270.28,0,0,0,959.68,506c18.85-26,37.7-53.29,56.55-79.29,3.25-3.9,17.55-25.35,20.8-16.9-3.25,19.5,3.25,39.65-7.8,57.2-7.15,16.25-4.55,35.1-5.85,52.64.65,22.1-11.7,39.65-18.85,59.15,2,9.75,12.35-10.4,14.3-13.65a121.46,121.46,0,0,0,11.7-47.45c1.3-11.7-2-53.94,12.35-54.59a515.82,515.82,0,0,1,38.34,37c.65,1.3.65,2.59,1.3,4.54-10.4,0-14.3-14.94-24-16.24,2.6,9.75,14.29,13.64,20.14,21.44-10.4,1.3-13.65-11.69-22.74-13,.65,1.3,1.3,3.9.65,5.19-12.35,4.55,15.59,15.6,14.29,24.05-7.79,0-10.39-9.1-16.24-12.35-1.3,9.1,9.75,13,12.34,20.8-10.39-.65-11.69-15.6-21.44-17.55.65,10.4,15.6,14.3,16.9,25.35-8.45-2.6-10.4-14.3-18.85-17.55,1.3,11,16.25,15.6,15.6,27.3-9.75-3.9-12.35-17.55-22.1-20.8,2.6,11,15.6,16.9,19.5,27.95-8.45.65-12.35-14.95-20.8-18.2,1.3,12.35,16.9,17.55,18.2,29.25-9.75-3.25-11.7-16.25-22.1-20.15,2,11.7,14.3,21.45,22.1,29.25,7.15-24.05,22.74-45.5,33.79-68.9,7.8-15.59,11.7-34.44,26-46.79,3.9-5.2,10.4-12.35,9.1-19.5-9.1,4.55-11,16.9-18.2,23.4-8.45-8.45,20.8-27.3,16.9-37.7-10.4,5.85-12.35,20.8-22.1,28.6-1.3-10.4,8.45-18.2,13-27.3,2.6-7.15,13.65-14.3,9.75-22.1-11.7,10.4-16.9,27.3-28,38.35-1.3-3.25-2.6-6.5.65-9.1,7.15-9.75,14.3-20.15,21.45-29.9,3.25-5.85,11-9.75,7.15-17.55-11.7,13-20.8,28.6-31.85,42.25a7,7,0,0,1-3.9,1.3,5.4,5.4,0,0,1,1.3-7.8l29.25-40.95a23.09,23.09,0,0,0,1.3-6.5c-15.6,7.8-24.7,35.1-38.35,46.15-.65-16.25,24.7-33.15,26.65-50.7-14.3,9.75-20.15,28.6-32.5,40.95-1.3-3.25-6.5-7.15-2.6-10.4,9.1-17.55,24.7-29.9,36.4-45.5,32.5-37.05,55.25-80.59,85.8-118.94,2,13,0,26,3.9,39,2,14.95-5.2,27.95-8.45,41.59-4.55,16.9-4.55,35.1-.65,52.65a53.09,53.09,0,0,1-.65,26.65c-13.65,48.1-42.9,89.05-66.95,132.59-3.9,9.75-15.6,19.5-14.3,29.9,9.75-13.65,19.5-27.3,28-41.6,2,5.2,5.2,11,11,10.4.65-4.55-3.25-7.15-5.85-10.4l-3.9-1.3,6.5-10.4a3.91,3.91,0,0,0,.65,2.6c7.8,9.1,13.65,20.15,23.4,26.65v-5.85c-7.8-8.45-13-20.15-22.1-26.65a43.65,43.65,0,0,1,4.55-7.14c1.3,2.6,3.25,4.54,4.55,7.14,11,11.7,18.85,28.6,31.85,37.7,3.9-7.15-19.5-29.25-24.7-38.35-3.25-3.89-5.85-7.79-9.1-11l6.5-11.05a53.14,53.14,0,0,0,7.8,13c10.4,13,16.9,29.89,29.9,40.29-.65-2.6.65-5.85-.65-7.8-11-16.9-22.75-33.14-34.45-50l-.65-.65a61.72,61.72,0,0,1,6.5-11.05c1.3,8.45,9.1,15.6,13.65,23.4,9.75,14.3,20.15,27.94,29.9,42.24,1.3,2,3.9,2.6,6.5,3.9a23.37,23.37,0,0,0-1.3-7.15c-9.1-13-18.85-26.64-28-39.64-7.15-7.8-11-18.2-19.5-24a71,71,0,0,0,5.2-9.75c2.6,11,13.65,20.15,19.5,29.9,10.4,12.35,16.9,29.24,29.9,38.34-.65-3.25-1.3-6.5-3.25-9.1-15.6-19.49-28-43.54-46.15-61.09l2.6-5.2c.65,2.6,3.25,5.2,4.55,7.8,15,22.75,29.9,43.55,45.5,65a6.86,6.86,0,0,0,3.25,1.3c2.6-7.8-15-26-18.85-34.44-11-14.3-19.5-31.2-32.5-44.2l5.85-10.4c0,2.6,1.3,4.55,2.6,6.5,16.25,22.1,27.95,48.1,47.45,66.94-9.1-27.29-30.55-49.39-45.5-74.74l-3.25-1.95,5.85-11.05a39.76,39.76,0,0,0,3.25-7.8c0,.65.65,1.3,1.3,2,8.45,9.1,18.2,29.25,28.6,32.5,0-2,.65-4.55-.65-5.85-9.75-11.05-16.9-24.7-28-34.45a53.12,53.12,0,0,0,.65-17.55c1.3,6.5,10.4,9.1,14.95,14.3,9.75,6.5,17.55,18.85,28.6,19.5-4.55-11.7-29.9-26-39.65-35.75-.65-.65-2.6,0-4.55-.65a147.89,147.89,0,0,1-1.3-16.9c5.85,7.8,16.9,13.65,24,21.45,7.15,3.9,11.7,11.7,20.15,11.05-7.15-11.7-20.8-18.2-30.55-27.3-4.55-2.6-8.45-9.1-13.65-9.75a62.64,62.64,0,0,1,0-15.6c5.2,9.75,29.25,24,35.75,30.55,6.5,5.2,12.35,13.65,21.45,12.35a35.62,35.62,0,0,0-10.4-11.7c-15.6-11.7-29.9-26-46.15-36.4l2-7.8c13.65,15.6,32.5,26,48.1,39,6.5,3.9,12.34,11.7,20.14,10.4-18.19-20.15-43.54-33.8-65-50.7-3.25-3.9-2-10.4-.65-16.9,0,7.8,10.4,11.7,14.95,16.9,11.05,7.15,22.75,22.75,35.75,25.35-.65-8.45-9.75-11-15.6-16.9-11.7-8.45-21.45-20.8-35.1-26a43.61,43.61,0,0,0,2.6-15.59v-2.6a16.83,16.83,0,0,0,4.55,7.15L1245,340.9c3.9,3.9,7.8,8.45,13.65,4.55-16.9-16.25-33.8-31.85-51.35-47.44a12.05,12.05,0,0,0-4.55-1.3,67.89,67.89,0,0,0,0-16.25c5.2,11.7,27.3,26,36.4,36.39,4.55,3.25,9.1,9.1,15.6,7.15-5.85-9.75-15.6-15.59-24-24-10.4-5.85-16.25-18.2-28-20.8-.65-5.2-.65-11.05-1.3-16.25,5.2,6.5,15,14.3,16.9,17.55,7.15,5.2,27.3,31.2,33.8,30.55,0-2.6-.65-5.2-2.6-6.5l-48.75-50c0-3.25-.65-7.15,0-10.4,3.25-5.2,14.3,12.35,16.9,14.95a219,219,0,0,0,46.79,48.1c8.45,11,2.6,27.94,6.5,41.59-2,9.75.65,20.8-.65,31.2,1.3,14.3-.65,32.5,3.25,46.8-3.9,14.3-1.95,29.9-2.6,44.85a98.53,98.53,0,0,0,16.25,46.79c19.5,31.2,37.7,63.7,57.85,94.25.65,1.3,3.25,1.3,4.55,1.3-20.8-41.6-48.75-79.95-68.9-122.84-2-5.85-7.15-13.65-4.55-19.5,16.9,25.35,33.15,50.69,50.7,76,5.2,5.85,7.8,12.35,13.65,15.6-.65-13.65-20.15-33.8-27.3-46.8-11.7-16.89-24-33.14-35.75-50a9,9,0,0,1-1.3-7.15,8.24,8.24,0,0,0,.65-3.9c6.5,14.95,19.5,27.95,27.3,41.6,9.75,12.34,17.55,28.59,29.25,39,3.25-7.8-17.55-30.55-22.75-39.64-11.7-16.25-21.45-32.5-33.15-48.1a45.66,45.66,0,0,0-3.9-22.75c3.25-25.35-1.95-55.25-.65-79.95a134,134,0,0,0-.65-27.95c-2-8.44,12.35-11,17.55-15.59,9.1-6.5,16.25,5.2,13.65,14.29-1.3,2.6-1.3,5.85-2,8.45a267.68,267.68,0,0,1-7.15,75.4c-1.3,16.9-13,35.75-3.25,51.35,18.85,25.35,33.8,55.89,55.25,78.64,3.9-10.4-20.8-35.74-26-46.79-9.1-13.65-18.85-26.65-27.3-40.3-1.95-2.6,0-7.8.65-11.7,15.6,18.85,28.6,39.65,43.55,58.5a7.81,7.81,0,0,0,0-9.1c-11-15.6-22.1-30.55-33.15-46.15-6.5-7.8-13.65-16.9-4.55-26,18.85,25.35,35.75,52.65,55.9,77.35,1.3,1.3,3.9,1.95,5.85,3.25-.65-2,0-5.2-1.3-6.5-14.3-20.15-29.25-39.65-43.55-59.8-5.2-9.75-18.2-17.55-14.3-29.9,15.6,19.5,31.2,40.3,46.15,60.45,2.6,3.25,3.9,6.5,9.1,5.2-12.35-25.35-32.5-45.5-49.4-68.25-9.1-6.5-2-5.85-2.6-17.55,19.5,25.35,37.7,51.35,56.55,76.7,1.3,1.95,4.55,2.6,6.5,3.9-.65-3.25.65-7.8-3.25-9.75-18.85-26-38.35-50.7-57.2-76.05-4.55-5.85-.65-14.95,0-21.45,5.85,1.95,5.85,9.1,9.1,13.65,16.25,21.45,28.6,46.8,47.45,66.3-6.5-21.45-24-38.35-35.1-57.85a200.63,200.63,0,0,0-16.9-24.05,16.89,16.89,0,0,1-5.2-16.25c5.85,2.6,7.15,9.75,11,14.3,19.5,26,33.8,57.2,55.9,79.95a22.11,22.11,0,0,0-.65-6.5c-12.35-18.85-25.35-37-38.35-55.25-5.85-11.7-27.3-32.5-26.65-43.55,2.6,1.3,6.5,1.3,7.15,3.25l-2.6-1.3c9.1,17.55,22.1,32.5,33.15,49.4,2.6,3.25,4.55,6.5,7.8,8.45,5.2-6.5-11-20.8-14.3-27.95-5.85-6.5-11.05-14.95-16.9-22.1,8.45,7.8,16.25,16.25,25.35,23.4,42.25,31.85,70.2,78.65,111.14,111.15a35.25,35.25,0,0,0,18.85,9.75c-1.3,2.6-.65,11.05-1.3,11.05-11.7-7.15-20.15-18.2-33.79-21.45,7.15,14.95,29.24,18.2,35.09,33.8-14.3-4.55-22.75-20.15-37-24.7,7.15,14.3,23.39,20.15,33.14,31.85,2.6,1.95.65,8.44,1.3,13-13-3.25-28.59-31.84-39.64-27.94,5.2,9.75,16.24,16.24,23.39,24.69,5.85,5.85,13,9.75,11.7,19.5-10.4-3.9-26.64-31.19-35.09-28,2,9.1,16.25,16.9,22.09,24.7,3.9,5.2,18.2,14.3,14.3,20.8-13-6.5-19.5-22.75-33.79-26.65,2,11.7,22.09,24,30.54,31.85A13.35,13.35,0,0,1,1473.8,571c-11-7.15-19.5-20.8-31.84-24-.65,10.4,18.19,18.85,24.69,26,6.5,3.25,6.5,8.45,5.85,14.95-11-5.2-18.2-16.9-29.89-19.5,3.9,11.05,17.54,16.25,25.34,24.7,6.5,7.15-2.6,14.3-4.55,21.45-6.5,17.55-13.64,35.1-20.14,52a11.08,11.08,0,0,0,0,6.5c13.64-20.8,20.79-45.5,31.19-68.25a98.53,98.53,0,0,0,5.85-43.55c-.65-15.6-5.2-30.55,0-46.8,2-11,8.45-36.39,1.3-42.89a120.94,120.94,0,0,0,26.65-5.2c-2,7.8,1.3,16.9,3.9,24.7,9.75,22.74,8.45,48.09,12.35,72.79,0,1.3-.65,1.95-.65,3.25a161.45,161.45,0,0,1-17.55,65l-.65,1.3c-.65,1.3-.65,2-1.3,2.6l-2.6,4.55a26.35,26.35,0,0,1-3.25,5.85c-10.4,18.2-24.7,33.8-41.6,46.8-3.9,3.24-9.09,6.49-9.74,12.34a43.88,43.88,0,0,0,5.19-1.95c.65,9.75,25.35,24.7,31.2,31.85,5.2,4.55,8.45,11.7,15.6,12.35,1.3-3.25,1.3-5.85-2.6-7.8-13.65-13-26.65-26-40.3-38.35h-.65a69.08,69.08,0,0,0,7.15-5.85c3.9,8.45,16.25,14.3,22.1,22.1,9.1,6.5,15,16.9,25.35,20.15-3.9-13-23.4-25.35-32.5-36.4a69.51,69.51,0,0,0-10.4-9.09c1.3-1.3,3.25-1.95,4.55-3.25l3.25-3.9c1.3,7.8,11.7,12.34,16.9,18.19,15,13,28,30.55,46.15,38.35,0-8.45-7.8-11.7-13.65-17.55-13.65-12.35-26.65-24.7-39.65-37a19,19,0,0,0-7.8-4.55c2-1.95,3.9-4.55,5.85-6.5l.65.65c13.65,13,27.3,26,41.6,39,5.85,4.55,11,12.35,19.5,13-.65-1.95-1.3-3.25-2-5.2-13.65-13-26.65-26.64-41.6-38.34-5.2-3.9-8.45-11-14.3-12.35,2-2.6,4.55-5.2,6.5-7.8a5.62,5.62,0,0,0,2,3.9c16.9,15,33.8,30.54,50.7,45.49,4.55,2.6,10.4,11,16.25,9.75,3.25-8.45-34.45-33.14-42.25-41.59-9.1-6.5-15.6-15.6-25.35-18.85,2.6-3.9,5.2-7.15,7.8-11.05,5.85,9.75,21.45,17.55,29.25,26,10.4,7.15,18.2,18.84,30.55,22.09-.65-3.25-.65-7.14-3.9-9.09l-34.45-28.6c-5.85-5.2-11.7-10.4-18.85-14.95a38.6,38.6,0,0,0,2.6-5.2l3.9-7.15c4.55,11.7,42.25,35.1,52,45.5a26.66,26.66,0,0,0,7.15.65c-7.15-11.7-20.15-18.85-29.9-27.95-9.1-5.85-17.55-16.9-28-20.15.65-1.3,2-2.6,2.6-3.9a86.81,86.81,0,0,1,4.55-11.7c7.15,10.4,25.35,21.45,33.8,29.9,6.5,5.2,11.7,11,18.2,14.95,2,1.3,4.55,8.45,8.45,2.6.65-1.3-2.6-6.5-5.2-9.1-16.9-14.95-35.1-28.6-52.65-42.9-.65,0-.65-.65-1.3-.65,1.3-3.25,2-6.5,3.25-9.75,2,8.45,20.8,18.2,27.3,25.35,11.7,8.45,28.6,29.9,42.25,30.55-9.1-14.3-26-22.75-38.35-34.45-9.75-6.5-19.5-18.85-31.2-22.1a95,95,0,0,0,3.25-13,211.45,211.45,0,0,0,18.85,14.95c9.75,5.2,22.75,21.45,33.8,19.5a11,11,0,0,1-1.3-3.25c-12.35-7.15-37-31.2-50.7-34.45,1.3-5.2,1.3-10.4,1.95-16.25.65.65.65,1.95,2,2.6,22.1,15.6,44.2,31.2,66.3,46.15a27.64,27.64,0,0,0,7.15,1.3,26.35,26.35,0,0,0-3.25-5.85c-22.75-13.65-44.2-31.2-67-46.15a12.25,12.25,0,0,0-5.2-1.3,56.89,56.89,0,0,0-1.3-10.4v-8.45c6.5,8.45,16.9,14.3,24.7,22.1,9.75,6.5,28.6,29.25,39,27.95-1.3-10.4-26.65-24-35.1-33.15-5.2-2.6-21.45-20.8-28.6-22.75-.65-4.55-.65-9.1-1.3-13.65,3.25,3.9,8.45,7.15,12.35,11,15,13.65,29.25,26.65,43.55,39.65,3.25,2.6,6.5,4.55,10.4,5.2,0-5.2-4.55-8.45-7.8-12.35-20.15-15.6-37.7-36.4-59.15-49.4a130.15,130.15,0,0,0-2.6-15.6l.65.65c13,12.35,25.35,23.4,39,35.1,10.4,7.8,18.85,20.15,30.55,24.7,1.3-5.85-4.55-8.45-7.8-11.7-22.1-17.55-40.3-40.95-64.35-55.89a141.17,141.17,0,0,0-4.55-15.6c3.9,5.2,9.75,9.1,14.3,14.3,11.7,8.44,27.3,29.89,40.3,32.49-5.85-13-18.85-19.5-28.6-29.89-9.75-7.8-16.9-19.5-28-24.05a77.47,77.47,0,0,0-5.2-13l3.25-.65c5.85,8.45,15.6,14.3,22.75,22.75,9.75,7.8,16.25,18.84,28,23.39-5.85-13.64-24-25.34-34.45-37l-11.7-9.75a32,32,0,0,1,18.85,3.9c48.1,37.7,84.5,89,120.89,138.44l37.7,51.35c8.45,13.65,22.1,24.7,26.65,40.29a24.31,24.31,0,0,0-11.7-1.29c2,6.49,10.4,5.84,11,13-7.8,2.6-13.65-10.4-18.85-3.9,2.6,5.2,20.8,13,18.2,18.85-9.1-.65-15-11.7-25.35-9.1,3.25,11.7,30.55,11.7,23.4,25.35-9.75-3.9-27.3-22.75-35.75-18.85,9.1,10.4,22.75,15.6,33.15,24,1.3.65.65,4.55.65,6.5-9.1-1.3-36.4-27.95-41.6-22.1,9.75,12.35,25.35,17.55,37,27.95,2,1.3.65,6.5.65,9.1-11.7,2-34.45-29.9-47.45-29.9,1.3,13,54,35.1,41.6,44.2-11.7,1.3-37-33.15-50.7-33.8,5.2,13.65,26,22.1,36.4,33.15,4.55,4.55,13.65,6.5,9.75,16.9-1.3,3.25-1.3,3.9-3.9,1.3-14.3-11.7-28.6-24.05-42.9-35.75-2-1.3-4.55-1.3-6.5-2,8.45,14.3,26,22.75,37.7,34.45,8.45,5.85,14.95,11.7,13,22.75-13-9.1-22.75-22.1-34.45-32.5-7.8-5.85-15.6-19.5-25.34-19.5,11.69,20.8,34.44,35.1,50.69,52.65,4.55,5.2,9.75,1.3,10.4,9.75,2.6,6.5,3.9,16.25,11.7,18.85-12.35-41.6-5.85-54,7.15-67a5.34,5.34,0,0,0,2.6,3.9c7.15,8.45,11.7,18.85,20.8,25.35,1.3-3.9,2-7.15-1.3-10.4-5.85-7.8-11.7-15-18.2-22.1l7.15-6.5c5.2,15,18.85,26,27.3,39,.65,1.3,2.6,1.3,3.9,2,2-3.25,1.3-7.15-1.3-9.1-9.75-11-16.9-24-28.6-33.15l5.2-5.2c8.45,10.4,15,24.7,26,32.5,2-6.5-3.9-9.75-7.15-14.95-5.2-6.5-10.4-13-16.25-19.5a36.05,36.05,0,0,0,3.9-5.2c2,3.9,5.2,6.5,7.15,10.4,9.75,13,17.55,27.3,28.6,38.35,5.85-8.45-15.6-26.65-19.5-35.1-4.55-5.2-7.8-12.35-13.65-16.9,1.3-2,3.25-4.55,4.55-6.5,3.25,8.45,15.6,21.45,18.85,27.3l2-1.95c-.65-6.5-12.35-22.75-18.85-28.6l1.3-2c.65-1.3,2.6-5.85,5.2-1.95,10.4,11,20.15,36.4,33.15,41.6-1.3-11.7-22.1-35.1-30.55-44.85-5.2-4.55-5.85-10.4-1.3-14.3,13,13,21.45,32.5,35.75,43.55,2-9.1-18.2-24.7-22.75-34.45-4.55-7.15-14.3-10.4-13.65-20.8a8.24,8.24,0,0,0,.65-3.9c3.25,9.75,17.55,22.1,22.75,30.55,11,11.7,18.2,27.3,30.55,36.4,1.3-8.45-7.15-11.7-11-18.2-14.3-16.9-27.3-36.4-42.9-52.65a12.71,12.71,0,0,1-.42-1.23c-1.94,32.94-5.54,45.46-32.73,71.43-2.6-13.65,5.2-28.6,5.85-42.9,1.3-9.1,0-18.2,0-28,0-7.79,2.6-10.39,10.4-10.39,4.18,1.19,15.51-4.75,16.79.35,0-.12.07-.24.11-.35a7.3,7.3,0,0,0,0,.81,3.4,3.4,0,0,0-.09-.46,16.51,16.51,0,0,0-.31,9.46c.14-2.51.28-5.11.42-7.86,0-.16,0-.31,0-.45.56,5.72,7.4,10,10.39,15.39,13,17.55,26,33.8,39.65,50.7.65,1.3,3.25,1.3,5.2,1.95-1.95-11-13-18.85-18.85-28.6-11-13.65-22.1-27.3-33.15-40.29-.65-.65-1.95-.65-2.6-1.3.65-1.3,2.6-2,3.9-2.6a12.13,12.13,0,0,1,14.95,3.9c11.05,16.89,22.75,33.14,33.8,49.39,7.8,11.05,14.95,21.45,22.75,31.85-2,5.2-3.25,11.05-2.6,16.9-1.3,33.15-4.55,63.05-16.9,83.2-2.6,5.2-5.85,14.29-3.25,20.79,3.25-4.55,6.5-9.75,9.1-14.29,5.2,10.39,18.19,19.49,24.69,29.24,9.75,10.4,28.6,39.65,40.3,42.25-.65-9.75-10.4-14.3-15.6-22.1-15.6-17.55-30.55-35.1-45.49-52.64a2,2,0,0,0-1.3-.65l5.85-15.6c3.9,11,17.54,20.8,24.69,31.19,9.75,14.3,22.75,26.65,33.15,40.3l3.9,2c0-10.4-16.25-22.1-21.45-31.2-9.75-9.75-28-40.29-39.64-45.49.65-2.6,1.3-5.85,2-8.45,3.24,4.55,8.44,9.1,10.39,13,18.85,22.09,34.45,49.39,55.25,68.89.65-11.7-22.75-31.85-29.25-44.2-12.35-14.94-22.1-31.19-35.09-44.19.65-2.6.65-5.85,1.3-8.45,2.59,5.85,8.44,10.4,11.69,15.6,11.05,13.65,22.1,27.3,33.15,41.59,7.15,9.1,11.7,20.15,22.75,24.05-4.55-15-18.2-26-26.65-39-12.35-15.6-24.7-31.85-37-46.8a4.93,4.93,0,0,0-2.6-1.3c.65-4.55.65-9.1,1.3-13.65A1.4,1.4,0,0,0,1841,816ZM372.76,687.34A33.2,33.2,0,0,1,389,667.19c2.6,5.2-3.25,9.1-5.85,13C381.21,682.79,373.41,695.14,372.76,687.34ZM376,701.63v-5.84c5.2-5.2,7.15-11,14.3-13,0,2,.65,3.9,0,4.55C386.41,691.24,381.86,702.28,376,701.63Zm2.6,14.3c-3.25-5.2,11.05-26,12.35-14.3C387.71,705.53,384.46,720.48,378.61,715.93Zm11.7-93.59c-8.45,1.95-18.85,18.2-26.65,24-.65.65,0,2.6,0,3.9,11-5.85,16.9-18.2,27.3-24.7,2,10.4-26.65,24.7-24,35.1,9.1-3.9,12.35-15.6,20.8-20.8,6.5,10.4-18.2,18.2-16.9,29.25,6.5-3.9,9.75-11,16.9-13.65.65,9.1-9.75,14.3-14.3,20.8-6.5.65-9.1-16.9-12.35-22.1-3.25-2.6-3.25-8.45,1.3-13,10.4-8.45,19.5-19.5,31.85-25.35C392.91,617.79,392.26,620.39,390.31,622.34Zm29.25,98.79c-7.15-5.2-19.5-7.8-22.75-16.25a335.59,335.59,0,0,1,1.95-88.39c9.75-1.3,27.3,2,26,14.3-1.95,11.05,3.25,21.45,7.15,31.85,3.9,13,18.2,16.9,22.1,29.25,5.85,20.14,15.6,40.29,18.85,60.44C452.06,749.08,437.11,731.53,419.56,721.13ZM615.2,388.35c-.65,14.3-12.35,22.1-21.45,31.85-15.6,20.8-31.2,40.95-46.15,61.75-3.25,1.95-1.3,5.2-.65,7.8,13-11.05,20.8-26.65,31.2-39.65,9.75-11.05,16.25-28,27.3-36.4a84.1,84.1,0,0,1-7.8,24.7c-23.4,20.8-38.35,48.75-59.15,71.49-1.3,3.25-7.15,7.8-2.6,11.05.65.65,5.2-3.25,6.5-5.2C560,495,576.2,467.65,593.75,448.8c2,14.3-11.7,22.75-18.2,33.8-12.35,18.85-25.35,37.69-38.35,55.89-3.25,3.25-2,7.8-3.25,11.7,24-21.45,35.75-55.89,59.15-78,.65,3.25,3.25,7.15,1.95,9.1-6.5,9.1-13.65,17.55-20.15,26.64-11.7,16.25-24,33.15-35.75,50.05-1.95,2.6-2.6,5.85-.65,8.45,10.4-5.2,19.5-26,27.3-35.1,10.4-15.6,20.8-31.19,31.85-46.79.65-.65,2,0,3.25,0a26.66,26.66,0,0,1-.65,7.15c-13.65,20.14-27.3,40.29-41,59.79-2.6,2-3.25,5.85-1.3,9.1,13-11.05,20.15-29.25,31.2-42.9,5.2-5.2,12.35-24.69,18.85-23.39,1.3,1.95,3.9,5.85,3.25,7.15-6.5,9.09-14.3,18.19-20.8,27.29-10.4,13.65-19.5,28-29.9,42.25-3.25,2.6-.65,5.85,0,9.1,18.85-24.7,37-50.05,53.3-77.34a56.48,56.48,0,0,0,8.45,9.09c-13,9.75-19.5,26.65-29.9,39-4.55,8.45-14.3,16.25-14.3,26,9.1-4.55,13-15.6,20.15-24.05,8.45-13.65,20.8-24.7,26-39.65,2,2.6,4.55,5.85,5.85,8.45-2.6,2.6-4.55,5.85-6.5,8.45-10.4,15-20.8,29.25-29.9,44.85-.65,1.3,0,3.25,0,4.55,5.85-1.3,7.8-7.8,11-11.7,5.2-10.4,22.75-30.55,27.3-42.9.65,1.3.65,2.6,1.3,4.55-25.35,72.8-66.3,143-121.55,197.59-8.45,5.85-20.14,26.65-29.89,26.65-3.25-2.6-3.9-6.5-1.3-9.75,11.7-16.25,22.74-33.15,33.79-50,5.85-9.1,13.65-15.6,14.3-26-2,1.3-5.2,1.95-6.5,3.9-15.6,21.45-29.24,45.49-44.19,66.94-3.25-7.15-9.1-18.2-4.55-26,18.2-22.74,36.39-45.49,53.29-69.54,1.3-1.3.65-3.9,1.3-5.85-2,.65-4.55.65-5.85,2.6-16.25,22.1-35.09,42.9-49.39,66.29-1.3,4.55-3.9,2.6-4.55.65-1.95-4.55-3.9-8.45,0-13.64l29.25-39c9.74-13,17.54-25.35,26.64-37.7,1.95-2,2.6-5.2,2.6-7.8-8.45,1.3-14.3,16.25-20.15,22.1-11.69,16.9-24,33.8-35.74,50.7-2,2.6-3.25,14.3-7.8,7.8-7.8-11.7-7.8-13,1.3-24.7,14.95-19.5,29.9-39.65,44.19-59.8,1.3-1.3.65-3.9.65-5.85-1.95.65-4.55,1.3-5.85,2.6-14.94,20.15-30.54,40.3-45.49,61.1-1.3,1.3-1.3,3.9-2.6,4.55s-5.2,2.6-6.5,1.95-7.15-3.25-3.25-8.45c21.45-28.6,45.5-56.55,63.69-87.1-8.45-1.3-11,9.1-16.24,14.3-16.9,22.75-35.75,44.85-50.7,68.9-6.5,3.9-10.4-5.85-4.55-11,10.4-11.7,19.5-24.7,29.25-37,9.75-15.6,25.35-28.6,31.85-46.15-1.95.65-5.2.65-6.5,2-19.5,26.65-40.3,52.65-59.8,79.3a18,18,0,0,1-2.6-18.2c15.6-9.75,22.75-26.65,33.15-41,30.55-40.95,58.49-84.49,91-124.14,12.35-15.6,24.7-31.85,37-48.1,8.45-9.1,13-23.4,24.05-29.25Zm653.21,358.78a19.13,19.13,0,0,1,22.75-11.7c-7.8,17.55-3.25,37.05-5.85,55.25a185.37,185.37,0,0,1-8.45,31.2C1261.27,800.43,1254.77,771.83,1268.41,747.13ZM1116.32,634.69c-1.3,25.35-2,50-12.35,73.44-7.15,15-10.4,42.25-24,51.35,1.3-22.75,10.4-45.5,8.45-68.89-.65-16.25-7.15-33.15-8.45-49.4C1083.17,633.39,1114.37,621,1116.32,634.69Zm-63,1.95c8.45,2.6,23.39,7.15,22.09,17.55A63.28,63.28,0,0,1,1050,636C1050.68,636.64,1052,636.64,1053.28,636.64Zm19.5-119.6c-4.55-3.9-11-7.15-12.35-13,5.2,0,9.1,7.14,13.65,10.39A9.26,9.26,0,0,1,1072.78,517Zm-217.09,54.6c.65,11.05-5.85,18.2-11.05,25.35a470.94,470.94,0,0,0-32.5,47.45,232.84,232.84,0,0,0-15.6,31.2c-.65,2-3.25,3.25-5.2,4.55-7.8-6.5-2.6-16.25-2.6-24.7a267.56,267.56,0,0,0,5.85-55.9,80.14,80.14,0,0,0-9.1-50.7c-2-9.1,15-13,21.45-13.65,18.2-.65,31.2-13,46.8-20.15C858.29,533.29,853.74,552.79,855.69,571.64ZM1083.17,493c-2.6-1.3-5.2-3.25-7.8-4.55l5.2-.65a18.44,18.44,0,0,1,5.85,3.9C1085.77,492.35,1083.82,493.65,1083.17,493Zm1.95-50.7c5.85,7.8,16.25,40.95-.65,39.65a28,28,0,0,1-20.79-9.1c-5.85-9.1-19.5-13.65-21.45-24.7-.65-11,1.3-22.1-1.3-33.15,0-7.15-3.25-13.65,0-18.85C1059.78,397.45,1076,428,1085.12,442.3Zm92.3-189.79c-22.1,24.7-38.35,53.95-57.85,81.24-16.25,20.8-35.1,40.3-52.64,61.1-5.85,8.45-16.25-4.55-23.4-6.5-4.55-3.25-10.4-2-13.65,2.6,0,.65-.65.65-.65,1.3-20.15,28.6-40.3,58.5-61.1,86.45-58.5,78-28,55.24-105.94,18.85-10.4-2.6-16.25,6.5-22.1,11.69-16.25,18.85-54,11.7-58.5,31.2,0,0-2.6,0-2.6-.65-10.4-15.6-19.5-31.84-30.55-46.79-11.7-16.25-25.35-31.2-38.35-46.8-18.85-13.65-38.34-26-49.39-47.45-6.5-10.4-16.9-17.55-25.35-26.65-18.85-52.65-8.45-126.74,9.1-180C715.29,6.17,949.93-36.08,1090.32,99.77c41.6,33.79,65,82.54,88.4,129.34C1187.82,238.21,1184.57,244.71,1177.42,252.51Z" transform="translate(-4.29 -2.42)"/><path class="cls-1" d="M1807.24,979.17a13.41,13.41,0,0,0-1.39-2.85C1806.3,977.27,1806.76,978.22,1807.24,979.17Z" transform="translate(-4.29 -2.42)"/><path class="cls-1" d="M1098.77,979.17a11.65,11.65,0,0,0-.59-1.43C1098.38,978.22,1098.58,978.69,1098.77,979.17Z" transform="translate(-4.29 -2.42)"/><path class="cls-1" d="M855,812.13c-9.1-11-20.8,15-28.6,20.15-9.75,11.05-19.5,21.45-29.25,32.5-3.25,3.25-5.85,3.9-10.4.65-11.7-8.45-24-15.6-36.4-23.4a865.2,865.2,0,0,1-84.49-52c-13-11.7-24,12.35-31.85,21.45-10.4,12.35-27.95,22.75-44.2,18.2-31.2-12.35-31.85-16.25-54.6,10.4-18.2,15.6-36.4,30.55-49.39,51.34-5.2,10.4-24.05,42.25-28.6,52l1.95,2a6.48,6.48,0,0,1,2.6-.65l.65-.65c-.65,0,.65-.65,0,0a4.93,4.93,0,0,0,1.3-2.6c-1.3,1.95.65-1.3,1.3-2.6,4.55-10.4,9.75-20.8,16.25-29.9,11.05-24.7,41.59-53.29,65-70.19,2-1.3,4.55-1.95,6.5-1.3-.65,0-.65.65-1.3.65a333.31,333.31,0,0,0-35.1,39.65c-1.3,1.3,3.25,5.2,4.55,3.9,9.1-9.1,16.9-18.85,26-28.6a42.4,42.4,0,0,0,10.4-13.65,41.73,41.73,0,0,1,6.5,8.45c-9.75,3.9-22.75,27.3-29.25,35.75-.65,1.29,3.25,5.19,3.9,4.54,9.1-12.34,20.15-24,26-38.34a65.6,65.6,0,0,1,4.55,9.75,7.43,7.43,0,0,0-5.2,4.55c-3.25,5.85-6.5,11-9.1,16.9-.65,1.3,4.55,4.55,4.55,3.25,2.6-6.5,10.4-14.95,10.4-22.1,3.25,7.8,5.2,15,6.5,18.2,3.9,11,2.6,24,9.1,34.44,6.5-11.7-1.3-24.7-2.6-36.39-2-19.5-14.3-31.85-23.4-47.45,21.45-4.55,36.4,22.1,69.55-4.55,3.9,5.2-.65,11.7.65,17.55,2,14.95,5.2,29.9,5.85,45.49,1.95,10.4-2,24,6.5,31.85,3.9-7.8,1.3-16.9,1.95-25.35,3.9-18.19,24.7-28.59,26.65-47.44-11.7,7.15-16.9,22.75-25.35,33.8-1.3-3.9-2.6-7.8.65-11.05,4.55-9.1,26-30.55,20.15-39.65-9.75,10.4-14.95,26-25.35,36.4.65-4.55-1.3-10.4,3.25-13.65,5.85-9.75,11.7-18.85,17.55-28.6.65-.65,0-2.6-.65-3.9-7.8,1.3-15.6,24-21.45,31.2-9.1-15,12.35-26.65,14.3-41.6-9.1,1.3-9.75,13-16.25,18.2-7.8-7.15,9.75-20.15,12.35-27.3,1.3-2,2.6-4.55,4.55-6.5,2.6,7.8,13,24.7,16.9,31.85,11.7,16.25,17.54,35.75,18.19,55.9-.65,12.34,4.55,24,14.3,31.19,5.85-9.1-9.75-8.45-8.45-37.69,0-13-3.9-25.35-10.4-36.4-11.69-17.55-18.84-37.7-28.59-46.15,2.6-1.3,5.2,0,11.7,3.9A1139.63,1139.63,0,0,0,780.94,870c5.85,3.25,4.55,5.85.65,9.1-26,18.84-37.05,48.09-55.9,72.79,9.75,2,14.3-9.75,19.5-16.25a163.1,163.1,0,0,1,30.55-42.25c24-22.74,47.45-46.14,69.55-69.54.65,1.95.65,4.55,1.3,6.5-15.6,11-26.65,28.6-40.3,42.9a22.79,22.79,0,0,0-3.9,9.1c15-7.8,23.4-23.4,35.1-35.75,3.25-4.55,7.8-7.15,9.1-12.35.65,5.2-.65,9.75-2.6,14.3-9.1,11.05-18.85,21.45-28,32.5-3.9,5.84-12.35,11-11,19.49,11-1.95,30.55-42.24,42.25-45.49.65,4.55-2.6,9.75-7.15,11.7C829,881,817.34,895.32,805.64,909.62c-1.3,1.3-.65,4.55-.65,6.5,2-.65,3.9-1.3,5.2-2.6,13-16.25,26.65-32.49,39-49.39l1.3,9.1c-8.45,3.9-13.65,13.65-20.8,20.14-1.3,2-.65,5.2-.65,7.8,3.25-1.3,6.5-3.9,7.8-7.15,4.55-5.2,13-12.34,13.65-19.49a73.06,73.06,0,0,1-2,40.94c-4.55,17.55-13.65,39-3.9,55.9,4.55-12.35.65-26,5.85-39a127.1,127.1,0,0,0,7.8-49.39c-1.95-19.5-7.15-39-6.5-57.85,11.05,2,15.6,14.3,24,20.8a84.26,84.26,0,0,0,33.8,17.55c13.65,3.9,26.65,6.5,40.3,10.4,4.55,1.3,5.85,4.55,4.55,9.1-2.6,14.94-3.9,31.84-15,43.54a76.63,76.63,0,0,0-26.65,35.75c-.65,2,.65,4.55,1.3,7.15,9.1-12.35,12.35-26.65,26-35.75,15.6-13,18.2-33.8,20.15-52.64L974,888.17c-7.8,7.15-15,28-20.8,35.1-5.2,12.35-22.75,35.1-20.15,46.8l13.65-21.45c-.12.35-.25.7-.37,1,3.09-4.31,5.09-9.13,8.92-12.72,0-.22-.07-.44-.1-.67,8.45-14.95,16.25-30.55,24.7-45.49v-.65L987,894c-12.72,15.9-19.22,35.52-28.62,54a23,23,0,0,0,2.88,9.75c9.67-20.14,22.65-39.72,27.69-60.52a59.34,59.34,0,0,1,8.45,5.2c-.65.65-.65,1.3-1.3,1.3-9.1,18.85-17.55,38.35-26.65,57.2a12.07,12.07,0,0,0-.65,12.35c8.45-7.8,10.4-18.85,15.6-29.9,5.2-13.65,13-25.35,16.9-39,1.3.65,2.6,2,3.9,2.6l3.25,2.6c-4.55,5.2-5.2,13.65-8.45,19.5-3.25,11-11.7,20.8-7.8,32.5a36.05,36.05,0,0,0,3.9-5.2c3.25-12.35,13.65-31.2,15.6-44.2l6.5,5.85c-7.15,7.8-8.45,19.5-12.35,29.25-.65,1.3.65,3.9,1.3,5.2,7.8-6.5,8.45-18.2,13.65-27.3v-4.55c10.4,9.75,20.8,19.5,31.85,29.25,1.95,2,3.9,6.5,7.8,3.25.65-.65-1.3-5.2-3.25-7.15C951.88,828.38,914.18,891.42,855,812.13Z" transform="translate(-4.29 -2.42)"/><path class="cls-1" d="M517.7,977.87a11.65,11.65,0,0,0-.59-1.43C517.31,976.92,517.51,977.39,517.7,977.87Z" transform="translate(-4.29 -2.42)"/><path class="cls-1" d="M1011,979.82a11.65,11.65,0,0,0-.59-1.43C1010.64,978.87,1010.84,979.34,1011,979.82Z" transform="translate(-4.29 -2.42)"/><polygon class="cls-1" points="312.58 905.9 313.23 903.3 311.93 900.7 312.58 905.9"/><polygon class="cls-1" points="366.52 920.2 366.52 919.55 365.87 918.25 366.52 920.2"/><polygon class="cls-1" points="766.25 920.2 766.25 919.55 765.6 918.25 766.25 920.2"/></svg>