<svg xmlns="http://www.w3.org/2000/svg" viewBox="0 0 234 236.3"><g id="Layer_2" data-name="Layer 2"><g id="Layer_4" data-name="Layer 4"><path d="M117,0C52.49,0,0,53,0,118.15a118.29,118.29,0,0,0,17.26,61.69c.24.36.48.72.69,1.09a117.8,117.8,0,0,0,59,48.23c.43.14.85.3,1.27.48h0A115.43,115.43,0,0,0,117,236.3c64.51,0,117-53,117-118.15S181.51,0,117,0ZM20.05,176.74c.3-.4.6-.79.89-1.19.47-.55.62-1.5,1.5-1.3.06.91-1.12,1.67-1.51,2.48a5.13,5.13,0,0,1-.45.73C20.34,177.22,20.2,177,20.05,176.74Zm.79,1.3A15.21,15.21,0,0,1,23,174.79c.42.52.31.56-.09,1a31.32,31.32,0,0,1-1.76,2.66Zm.66,1.07c.72-1.14,1.38-2.34,2.17-3.4a4.75,4.75,0,0,1,.5.58,7.44,7.44,0,0,0-.92,1.23c-.38.76-1.1,1.4-1.4,2.15Zm12.79,16.72-.36-1.11a5.06,5.06,0,0,1,.62,1.4A3.58,3.58,0,0,1,34.29,195.83Zm3,3.13-.51-.52a7.6,7.6,0,0,0,1.45-1.65A12,12,0,0,0,37.27,199Zm1.59,1.34.23-.36.12.36Zm1,0,.13-.47.35.47Zm.61-3.86a19.9,19.9,0,0,0,1.82,2.35c-.07.21-.14.42-.22.63l.45-.37.15.15c-.15.36-.31.73-.46,1.1h-1A19.75,19.75,0,0,0,40.51,196.44ZM117,232.3a111.72,111.72,0,0,1-24.28-2.66h48.56A111.72,111.72,0,0,1,117,232.3Zm25.66-3H91.34a111.33,111.33,0,0,1-12.2-3.63h75.72A111.33,111.33,0,0,1,142.66,229.33Zm13.07-3.94H78.27c-2.94-1.08-5.83-2.3-8.65-3.62h94.76C161.56,223.09,158.67,224.31,155.73,225.39Zm9.31-3.93H69q-3.55-1.69-7-3.63H172Q168.59,219.77,165,221.46Zm7.52-3.94H61.44q-3-1.72-5.9-3.62H178.46Q175.57,215.79,172.56,217.52Zm6.36-3.93H55.08c-1.75-1.17-3.47-2.37-5.15-3.63H184.07C182.39,211.22,180.67,212.42,178.92,213.59Zm5.57-3.94h-135Q47.19,207.9,45,206h144.1Q186.82,207.9,184.49,209.65Zm4.92-3.94H44.59q-1.7-1.44-3.35-2.94H192.76Q191.11,204.27,189.41,205.71Zm-144.15-7a2.9,2.9,0,0,1,.66.85l-.3.68Zm1.48,1.6.85-2a10.15,10.15,0,0,0,.43,2Zm2.22,0,.28-.92.35.92Zm3.23,0h-.33c-.25-1.68-.53-3.34-.87-5a23.86,23.86,0,0,0,1.86,3C52.62,199,52.4,199.64,52.19,200.3Zm1.32-1.2h0a7.8,7.8,0,0,0-.36,1.19h-.72Zm-2.33,1.2h-.41a5.85,5.85,0,0,0,.12-.73A6.52,6.52,0,0,0,51.18,200.3Zm5.16-.39a6.12,6.12,0,0,0,.5.39h-.47A2.56,2.56,0,0,0,56.34,199.91Zm1.61-.63,1.5,1H58.06A5.69,5.69,0,0,0,58,199.28Zm5.65.25.14.24c-.11.17-.21.35-.31.53h-.32c-.12-.75-.26-1.5-.42-2.24l.79,1.29c-.06.13-.13.27-.18.41Zm.15-1,.56-.62c-.18.26-.34.53-.5.8Zm3.71,1.37.38-.37-.23.79h0C67.55,200.16,67.5,200,67.46,199.88Zm4.63-.79.65,1-.12.2h-.33Zm3.28-.79,1.5-1.85a20.39,20.39,0,0,0-1.11,2.31l.91-1.3a7,7,0,0,0-.62,1.86,1.28,1.28,0,0,0,.65-.54A14.29,14.29,0,0,0,76,200.3h-.28c-.13-.61-.28-1.21-.46-1.8l.14-.18.1.19Zm-.18.14c-.15-.47-.31-.93-.49-1.38l.59,1.13Zm2,1.86c.06-.13.13-.26.2-.39l.21.39Zm.9-1.22a8.79,8.79,0,0,0,.42,1.22h-.26A9.93,9.93,0,0,0,78.08,199.08Zm3.66,1.22.23-.36.12.36Zm1,0,.14-.47.35.47Zm2.47-1.47.13.14-.7,1.33h-.55a19.75,19.75,0,0,0-.73-3.86A20,20,0,0,0,85,198.57l-.27.59Zm4.89-.85L89,199.78c-.32-1.47-.71-2.93-1.17-4.36a15,15,0,0,1,1.24,2.91l-.24.37Zm0,2.07a1,1,0,0,1,.08.25h-.46Zm-1.37.17-.05.08h-.55L88,198.76A4.73,4.73,0,0,1,88.76,200.22Zm2.22.08.1-.36c0-.09.07-.2.16-.22s.15,0,.22.07a3.13,3.13,0,0,1,.52.51Zm1.85-1.67c.34.37.68.75,1,1.09-.06.19-.13.38-.19.58h-.64C93,199.74,92.9,199.18,92.83,198.63Zm1.11,1.67.26-.28.34.28Zm.7-.78.38-.42a6.44,6.44,0,0,0-.25.74C94.73,199.73,94.68,199.63,94.64,199.52Zm3.2.39a6.12,6.12,0,0,0,.5.39h-.47A2.56,2.56,0,0,0,97.84,199.91Zm1.61-.63,1.5,1H99.56A5.69,5.69,0,0,0,99.45,199.28Zm5.65.25.14.24c-.11.17-.21.35-.31.53h-.31c-.12-.75-.26-1.5-.43-2.24l.79,1.29c-.06.13-.13.27-.18.41Zm.15-1,.56-.62c-.18.26-.34.53-.5.8Zm7.14-1.91c.29.54.55,1.11.8,1.67l-.66-1.76a5.59,5.59,0,0,0,1.62-1.7,23.57,23.57,0,0,1-1.16,4.12c-.41-1.2-.86-2.38-1.36-3.55a10,10,0,0,1,.73,1.17l0,.09Zm2,3.7h-.94v0l.64-1.43A8.18,8.18,0,0,0,114.37,200.3Zm-1.65-.72c-.1.24-.2.47-.31.7l-.36-1.58A3.07,3.07,0,0,1,112.72,199.58Zm2.61.72.18-.58.22.58Zm.76-13.59c.86-1.62,1.67-3.28,2.57-4.86l0-.08.72.43c-1.33,1.72-2,3.91-3,5.93C116.28,187.66,116.18,187.19,116.09,186.71Zm2.33,11.78.23.3a9.68,9.68,0,0,0-.65,1.51h-.23c-.21-1.37-.45-2.74-.74-4.09a24.38,24.38,0,0,0,1.37,2.24.29.29,0,0,0,0,.09Zm.42,1-.23.79H118C118.29,200,118.57,199.78,118.84,199.51Zm-1.74.79h-.21l.06-.41C117,200,117.05,200.16,117.1,200.3Zm1.78-2.3.47-.5-.39.68A1.42,1.42,0,0,0,118.88,198Zm4.6,1.69.21.32c-.06.1-.12.19-.17.29h-.23l-.2-1.21.35.55a.61.61,0,0,1,0,.12Zm.14-.1.67-.51c-.19.27-.36.54-.54.82Zm3.93.29.38-.37-.23.79h0C127.64,200.16,127.6,200,127.55,199.88Zm4.63-.79c.22.34.44.67.65,1a1.28,1.28,0,0,0-.11.2h-.33Zm3.28-.79,1.5-1.85a18.75,18.75,0,0,0-1.1,2.31c.3-.43.6-.87.91-1.3a6.37,6.37,0,0,0-.62,1.86,1.29,1.29,0,0,0,.64-.54,14.29,14.29,0,0,0-.75,1.52h-.28a15.82,15.82,0,0,0-.46-1.8l.15-.18.1.19Zm-.18.14c-.15-.47-.31-.93-.49-1.38l.59,1.13Zm3.9-.3a7.5,7.5,0,0,0,1.09-1.35,12.43,12.43,0,0,0-1.2,3l.74-.93c-.17.5-.37,1-.58,1.49H139c-.08-.58-.19-1.16-.32-1.73l.39-.34a1.37,1.37,0,0,0,.17.17A2,2,0,0,1,139.18,198.14Zm-.52.25c-.3-1.24-.7-2.46-1.1-3.67.67.94.72,2.27,1.32,3.22Zm-.07,1.91h-.26a9.93,9.93,0,0,0-.16-1.22A8.79,8.79,0,0,0,138.59,200.3Zm-.91,0h-.41c.07-.13.14-.26.2-.39Zm3.24,0,.23-.36.12.36Zm1,0,.14-.47.35.47Zm2.45-1.5.12.13-.73,1.37h-.49a19.75,19.75,0,0,0-.73-3.86,20.18,20.18,0,0,0,1.59,2.09c-.1.21-.2.42-.29.63Zm2.67,0a4.79,4.79,0,0,1,.82,1.49l0,.05h-.6C147.2,199.78,147.14,199.27,147.07,198.76Zm1.16,1.42,1-1.08a8.29,8.29,0,0,0-.36,1.2h-.59Zm3.79-.27a6.12,6.12,0,0,0,.5.39h-.47A2.56,2.56,0,0,0,152,199.91Zm1.6-.63,1,.69-.18.33h-.73A4.91,4.91,0,0,0,153.62,199.28Zm1.13-.9.76-.84a9.91,9.91,0,0,0-.63,1Zm4.19,1.32c.14-.13.28-.26.41-.4l-.26.89C159.05,200,159,199.87,158.94,199.7Zm5.05-.85c.2.32.41.63.62,1a3.6,3.6,0,0,0-.29.5h-.09Zm3.72,1.29.39-.43a5.84,5.84,0,0,0-.2.59h-.16Zm3.84-.3.67.46h-.6C171.6,200.14,171.58,200,171.55,199.84Zm1.28,0,.5-.36-.29.72Zm4.39-.09.22.34-.14.24h-.67c-.12-.75-.26-1.5-.43-2.24.34.54.67,1.09,1,1.63l0,.07Zm.38-.28.47-.36-.41.61Zm3.58,0,.75-.62c-.18.43-.36.86-.53,1.29C181.33,199.85,181.26,199.63,181.18,199.41Zm3.13-.71a5.78,5.78,0,0,1,1.08,1.6h-.7Zm1.23,1.09.71-.68-.35,1.19h-.2C185.65,200.13,185.59,200,185.54,199.79Zm5.7-1.17.88,1.36a1.87,1.87,0,0,0-.15.32h-.45Zm4.4,1.27c0-.19-.08-.38-.13-.57l1-.71A13.32,13.32,0,0,0,195.64,199.89Zm8.6-9.27c-.2-.46-.4-.92-.63-1.37l-.22,0-1.26,3.48.61-.86c-.11.3-.19.61-.28.92q-1.56,1.81-3.19,3.55c-.21-.61-.4-1.22-.58-1.84a8.69,8.69,0,0,0,.52,1.27c-.19-.54-.39-1.06-.61-1.59l-.06-.21a1.94,1.94,0,0,1,.05.2c-.17-.43-.36-.85-.56-1.27l.72,1.12a23.4,23.4,0,0,1-1.16-3.36l-.28,2.35c-.09,0-.14.1-.17.19L196.08,196l.87-1.21a17.67,17.67,0,0,0-1,2.12l.7-.62a7.87,7.87,0,0,0-1,1.92l.94-1a11,11,0,0,0-1.11,2,22.15,22.15,0,0,0-1-3l.88,1.69a22.55,22.55,0,0,1-1.39-4.57l.93,1.3a21.81,21.81,0,0,1-1.3-3l-.17.69-1,3.58.78-.91a13.05,13.05,0,0,0-.94,2.58l.71-.78a2.45,2.45,0,0,0-.48,1.64l.33-.14a3.08,3.08,0,0,1-.69,1.6,14.93,14.93,0,0,1-1.31-3.88l.56.89a.68.68,0,0,0-.06-.46l-1.34-3.8a7.44,7.44,0,0,1,.8,1.13c-.38-1-.74-1.93-1.06-2.92.14.16.27.32.41.47-.33-.79-.62-1.6-.89-2.42a4.31,4.31,0,0,1,.42.63c-.36-.83-.74-1.66-1.14-2.47l-.26,0-1.48,4.08c.24-.33.47-.67.71-1-.24.69-.45,1.39-.64,2.1a2.56,2.56,0,0,0,.64-.81c-.4.87-.76,1.75-1.08,2.66l.89-.94c-.38.76-.75,1.53-1.13,2.29a1.71,1.71,0,0,0-.23.81l.92-1.09a11.4,11.4,0,0,0-1.19,2.84l1.14-1.22a22.34,22.34,0,0,0-1.4,2.76c-.45-1.4-1-2.78-1.55-4.13a15.47,15.47,0,0,1,1.56,2.89c-.5-1.34-1-2.68-1.51-4-.4-.75-.79-1.52-1.15-2.3l-.19.32-1.05,3.64.82-1-1.06,2.79L182,197c-.28.81-.57,1.62-.86,2.43a16.72,16.72,0,0,0-1.13-2.56,17.21,17.21,0,0,1,1,1.84,31.25,31.25,0,0,1-1.08-3.13,8,8,0,0,0,.44,1.09c-.16-.46-.33-.91-.52-1.35a1.21,1.21,0,0,0,0-.18s0,.11,0,.17c-.15-.37-.31-.73-.48-1.09l.61,1a20.7,20.7,0,0,1-1-2.87l-.24,2c-.07,0-.12.08-.14.15l-.9,2.45c.24-.35.49-.69.74-1a14.67,14.67,0,0,0-.83,1.8l.59-.52a6.69,6.69,0,0,0-.86,1.63c.26-.29.53-.58.79-.88a11,11,0,0,0-.7,1.2l0-.12L176,195.06a14.61,14.61,0,0,1,1.26,2.17,33.11,33.11,0,0,1-1.46-4.59l.46,1.14a18.3,18.3,0,0,0-.87-2.93l-.49.89-1.8,3.95.92-.83a11.61,11.61,0,0,0-.8,2.08.81.81,0,0,0,.45-.46l-.78,2.08.62-.62a9.26,9.26,0,0,0-.73,1.71l-1.56-2.6,1,.61a14,14,0,0,1-.76-2.64,2.36,2.36,0,0,1,.63.63q-.8-1.87-1.47-3.81a2.38,2.38,0,0,0,1.14,1.16,27.16,27.16,0,0,1-2.09-4.09,44.3,44.3,0,0,1-1.64,5c.3-.34.61-.67.92-1l-.89,2.5.64-.69-1.09,3.06,1-.9c-.35.81-.66,1.64-1,2.47a20.13,20.13,0,0,0-.86-2.66l.82,1.57a21.51,21.51,0,0,1-1.29-4.25l.86,1.21a20.34,20.34,0,0,1-1.2-2.8l-.16.64c-.32,1.11-.64,2.21-1,3.32l.73-.84a11.23,11.23,0,0,0-.88,2.39l.66-.72a2.28,2.28,0,0,0-.45,1.52l.31-.13a2,2,0,0,1-.41,1.12,12.85,12.85,0,0,1-1.05-3.23l.52.82a.8.8,0,0,0,0-.43c-.42-1.17-.84-2.35-1.25-3.52a6.33,6.33,0,0,1,.74,1c-.35-.89-.68-1.79-1-2.71.12.15.25.29.38.44-.3-.74-.58-1.49-.83-2.25a3.76,3.76,0,0,1,.39.59c-.33-.78-.69-1.54-1.06-2.3l-.24,0-1.37,3.8.66-.94c-.22.64-.42,1.29-.6,1.94a2.19,2.19,0,0,0,.59-.75c-.36.81-.7,1.63-1,2.47l.83-.87-1.05,2.13a1.71,1.71,0,0,0-.22.75l.86-1a10.56,10.56,0,0,0-1.11,2.64l1.06-1.14c-.39.7-.79,1.41-1.12,2.14a18.68,18.68,0,0,0-1.26-2.86,19.6,19.6,0,0,1,1.1,2,34.28,34.28,0,0,1-1.17-3.41,8.1,8.1,0,0,0,.48,1.18q-.27-.75-.57-1.47a1.8,1.8,0,0,1-.05-.19,1.21,1.21,0,0,0,.05.18c-.17-.4-.34-.79-.53-1.18l.67,1a24.47,24.47,0,0,1-1.08-3.12l-.26,2.18c-.08,0-.13.09-.16.17l-1,2.67.8-1.13a16.73,16.73,0,0,0-.9,2l.65-.57a6.89,6.89,0,0,0-.87,1.6l-1.58-2.63,1.22.79a18,18,0,0,1-1-3.39,3.38,3.38,0,0,1,.8.8q-1-2.4-1.88-4.89a3,3,0,0,0,1.46,1.49,32.89,32.89,0,0,1-2.69-5.25,54,54,0,0,1-2.1,6.37c.39-.43.79-.86,1.18-1.3L149,193.52c.27-.3.55-.59.82-.88l-1.39,3.93,1.22-1.16c-.58,1.37-1.1,2.77-1.57,4.18q-.48-2.11-1.14-4.17a15.6,15.6,0,0,1,1.29,3c-.37-1.38-.75-2.77-1.12-4.16-.34-.79-.65-1.6-.93-2.41l-.22.3c-.46,1.18-.93,2.35-1.39,3.52l.91-.92-1.32,2.68.78-.65c-.2.42-.4.85-.59,1.27-.43-.74-.91-1.45-1.35-2.17a8.78,8.78,0,0,1-1.47-3.85,6.33,6.33,0,0,0,1.57,3.14,22,22,0,0,1-1.25-4.39l.07.06-.08-.31a52.38,52.38,0,0,1-2.83,7.09,49.14,49.14,0,0,1-1.19-4.82l.3,1c-.06-.3-.12-.6-.17-.9,0-.07,0-.16.05-.19h0l-.05-.49c0,.07.1-.07,0-.09s-.12.07-.15.13l-2.46,5.81a18.92,18.92,0,0,1-1-3.54l.79,1.11a19.66,19.66,0,0,1-1.11-2.58l-.14.59-.87,3.05.67-.77a10.75,10.75,0,0,0-.81,2.2c.21-.22.41-.45.61-.67a2.05,2.05,0,0,0-.41,1.4l.28-.12a2.07,2.07,0,0,1-.48,1.18,12.7,12.7,0,0,1-1-3.12l.48.76a.62.62,0,0,0-.05-.4L131.15,194a6.63,6.63,0,0,1,.68,1q-.5-1.23-.9-2.49l.34.4c-.27-.68-.53-1.37-.75-2.06a3.84,3.84,0,0,1,.35.54c-.3-.72-.63-1.42-1-2.11l-.22,0-1.26,3.48.61-.86c-.21.59-.39,1.19-.55,1.79a2.15,2.15,0,0,0,.54-.69c-.33.74-.64,1.49-.92,2.26l.76-.8-1,2a1.34,1.34,0,0,0-.2.69l.78-.93a9.85,9.85,0,0,0-1,2.42l1-1c-.36.64-.72,1.29-1,2a17.65,17.65,0,0,0-1.16-2.63,17.21,17.21,0,0,1,1,1.84,28.92,28.92,0,0,1-1.08-3.13,6.9,6.9,0,0,0,.44,1.09c-.16-.46-.33-.91-.52-1.35,0-.06,0-.12,0-.18a1.54,1.54,0,0,0,0,.17c-.15-.37-.31-.73-.48-1.09.2.32.4.64.61,1a20.7,20.7,0,0,1-1-2.87l-.24,2c-.07,0-.12.08-.15.15l-.89,2.45c.24-.35.49-.69.74-1a13.32,13.32,0,0,0-.83,1.8l.59-.52a6.69,6.69,0,0,0-.86,1.63l.79-.88a9.89,9.89,0,0,0-.86,1.52,11.2,11.2,0,0,1-.77-2.53l.48.76a.7.7,0,0,0,0-.4L122.05,194a6,6,0,0,1,.69,1c-.33-.82-.63-1.65-.91-2.49l.35.4c-.28-.68-.53-1.37-.76-2.06a5.07,5.07,0,0,1,.36.54c-.31-.72-.63-1.42-1-2.11l-.22,0c-.42,1.16-.84,2.32-1.27,3.48.21-.28.41-.57.61-.86-.2.59-.38,1.19-.55,1.79a2.18,2.18,0,0,0,.55-.69c-.34.74-.65,1.49-.92,2.26l.76-.8-1,2a1.34,1.34,0,0,0-.2.69l.78-.93a15.92,15.92,0,0,0-.7,1.44,39.9,39.9,0,0,1-2-5.84,7.53,7.53,0,0,0,2.17,3,28.11,28.11,0,0,1-2.22-5.69c1-2.23,2.42-4.38,3-6.75l.86.56a1,1,0,0,0-.11.17c-.94,2-1.83,4.1-2.74,6.15a1.4,1.4,0,0,0-.1,1.36c.86-.85,1.08-2.06,1.63-3.18.52-1.47,1.37-2.75,1.76-4.19.13.1.27.19.4.3l.35.29a11.21,11.21,0,0,0-.88,2.13c-.33,1.17-1.21,2.26-.8,3.52a4,4,0,0,0,.42-.57c.31-1.34,1.44-3.39,1.6-4.78l.71.64c-.76.81-.86,2.1-1.29,3.12-.05.16.09.39.14.58.83-.7.87-2,1.4-3,0-.16,0-.32,0-.48,1.1,1,2.18,2.1,3.28,3.12.22.21.39.72.8.33.06-.06-.16-.57-.36-.77-10.91-12.67-14.87-5.88-21-14.37-1-1.19-2.19,1.6-3,2.16-1,1.17-2,2.34-3,3.49-.31.34-.61.42-1.1,0-1.2-.91-2.49-1.69-3.77-2.48a88.17,88.17,0,0,1-8.8-5.64c-1.38-1.27-2.46,1.36-3.28,2.29-1,1.35-2.89,2.46-4.59,1.93-3.25-1.31-3.29-1.75-5.71,1.09a24.4,24.4,0,0,0-5.11,5.56c-.54,1.09-2.5,4.52-3,5.61a1.61,1.61,0,0,1,.23.22c.14,0,.31-.07.28-.05l.08-.05h0c-.06,0,0-.1,0,0a1.15,1.15,0,0,0,.16-.29c-.12.22,0-.14.1-.27a19.34,19.34,0,0,1,1.7-3.23c1.16-2.64,4.33-5.74,6.72-7.56a.68.68,0,0,1,.67-.12l-.12.09a38.55,38.55,0,0,0-3.68,4.29c-.1.16.34.55.45.43.94-1,1.77-2,2.68-3.07a5.61,5.61,0,0,0,1.09-1.46,4.13,4.13,0,0,1,.67.92c-1,.43-2.38,2.95-3,3.85-.07.13.35.55.41.47a21.35,21.35,0,0,0,2.72-4.15,10.51,10.51,0,0,1,.49,1.07.69.69,0,0,0-.52.5c-.36.62-.69,1.2-1,1.8-.06.15.44.49.5.38.27-.74,1.08-1.62,1.11-2.42.33.84.57,1.64.67,2,.42,1.2.28,2.6,1,3.7.7-1.28-.14-2.66-.29-3.94-.2-2.08-1.48-3.47-2.4-5.15,2.25-.49,3.76,2.37,7.25-.45.39.55-.06,1.25,0,1.86.18,1.63.53,3.24.58,4.88.22,1.1-.23,2.61.69,3.4.41-.84.1-1.82.22-2.73.39-1.92,2.59-3.07,2.78-5.11-1.22.8-1.74,2.46-2.63,3.62-.11-.44-.29-.85.09-1.21.47-1,2.72-3.28,2.08-4.27-1,1.15-1.56,2.77-2.64,3.92.08-.5-.1-1.1.34-1.44.6-1,1.21-2.06,1.79-3.1,0-.1,0-.28,0-.42-.83.16-1.62,2.56-2.23,3.33-1-1.61,1.26-2.89,1.45-4.45-1,.14-1,1.41-1.66,2-.79-.74,1-2.15,1.31-2.93.2-.29.35-.51.48-.66.3.81,1.38,2.67,1.75,3.4a11.29,11.29,0,0,1,1.92,6,3.83,3.83,0,0,0,1.46,3.33c.58-1-1-.91-.85-4.09a7.59,7.59,0,0,0-1.08-3.88c-1.18-1.88-2-4.09-3-5,.26-.14.54,0,1.17.4a105.93,105.93,0,0,0,11.77,7.72c.59.35.5.61.06,1-2.67,2-3.87,5.19-5.79,7.87,1,.23,1.5-1,2-1.75A17.46,17.46,0,0,1,97.52,182c2.46-2.44,4.9-4.93,7.19-7.51a6.78,6.78,0,0,1,.12.7c-1.61,1.2-2.76,3.1-4.16,4.58a3.91,3.91,0,0,0-.42.95c1.59-.83,2.41-2.55,3.66-3.86.34-.48.83-.8,1-1.31a2.89,2.89,0,0,1-.26,1.56c-.95,1.17-1.93,2.32-2.89,3.49-.44.66-1.26,1.2-1.14,2.08,1.12-.19,3.14-4.52,4.4-4.87a1.26,1.26,0,0,1-.7,1.23c-1.18,1.56-2.4,3.09-3.59,4.65-.12.17-.06.48-.08.73.18-.1.41-.15.52-.3,1.36-1.76,2.75-3.49,4-5.3.06.32.11.63.17.95-.87.45-1.45,1.49-2.14,2.21-.14.18,0,.57-.06.87a1.59,1.59,0,0,0,.83-.77,4.78,4.78,0,0,0,1.4-2.08,8.85,8.85,0,0,1-.19,4.42c-.46,1.88-1.42,4.16-.43,6,.49-1.33,0-2.83.62-4.2a12.92,12.92,0,0,0,.8-5.3c-.17-2.09-.77-4.17-.68-6.26,1.16.21,1.63,1.55,2.51,2.25a8.35,8.35,0,0,0,3.49,1.9c1.39.41,2.79.73,4.18,1.12.47.14.59.51.5,1-.3,1.62-.41,3.4-1.55,4.67a7.85,7.85,0,0,0-2.75,3.84c-.08.2.09.51.14.77.94-1.29,1.26-2.9,2.72-3.82,1.61-1.41,1.88-3.62,2.08-5.67l1.42.81c-.8.73-1.56,3-2.15,3.8-.51,1.34-2.38,3.78-2.09,5,.49-.74,1-1.51,1.39-2.3q-1.39,4.16-2.93,8.26c-.25-.69-.51-1.37-.77-2.06s-.79-1.52-1.15-2.3l-.19.32-1,3.64.82-1-1,2.79.7-.72-.86,2.45.76-.63-.59,1.43a17.84,17.84,0,0,0-1.4-3.38,17.14,17.14,0,0,1,1,1.84c-.41-1-.77-2.07-1.08-3.13a8,8,0,0,0,.44,1.09c-.15-.46-.33-.91-.51-1.35a1.21,1.21,0,0,1,0-.18s0,.11,0,.17c-.15-.37-.31-.73-.48-1.09.21.32.41.64.61,1a22.1,22.1,0,0,1-1-2.87l-.23,2c-.08,0-.12.08-.15.15l-.9,2.45.74-1a16.32,16.32,0,0,0-.83,1.8l.6-.52a6.58,6.58,0,0,0-.7,1.21c-.41-1.1-.83-2.19-1.24-3.29a14.61,14.61,0,0,1,1.26,2.17,31.81,31.81,0,0,1-1.46-4.59l.46,1.14a18.3,18.3,0,0,0-.87-2.93l-.49.89-1.8,3.95.92-.83a11.61,11.61,0,0,0-.8,2.08.81.81,0,0,0,.45-.46l-.78,2.08.62-.62A8.53,8.53,0,0,0,101,199l-2-3.31,1.22.79a18,18,0,0,1-1-3.39,3.38,3.38,0,0,1,.8.8q-1-2.4-1.88-4.89a3,3,0,0,0,1.46,1.49,33.68,33.68,0,0,1-2.68-5.25,55.9,55.9,0,0,1-2.11,6.37c.39-.43.79-.86,1.18-1.3l-1.14,3.21.82-.88-1.39,3.93,1.22-1.16c-.44,1.05-.86,2.12-1.23,3.2a21.53,21.53,0,0,1-1.33-4.29,2.62,2.62,0,0,0,1,1.14L93,191.8a3.9,3.9,0,0,0,1.16,1.5A13.26,13.26,0,0,1,93,189.07l-.27.3,0-.27A32,32,0,0,1,89.44,195a8.35,8.35,0,0,0,1.8-1.21c-.64.95-1.25,1.94-1.81,2.95l1.15-.71-1.48,2.3-1.09-4c-.33-.79-.64-1.6-.93-2.41l-.22.3c-.46,1.18-.93,2.35-1.39,3.52l.91-.92c-.44.9-.87,1.79-1.31,2.68l.77-.65-.62,1.33c-.43-.76-.93-1.49-1.38-2.23a8.78,8.78,0,0,1-1.47-3.85,6.33,6.33,0,0,0,1.57,3.14,22.73,22.73,0,0,1-1.25-4.39l.07.06-.08-.31a51.33,51.33,0,0,1-3.38,8.19,7.46,7.46,0,0,0,1.79-2,12.43,12.43,0,0,0-1.2,3l.74-.93c-.17.5-.37,1-.58,1.49H78.92a30.73,30.73,0,0,0-1.45-5.58c.78,1.11.71,2.76,1.69,3.68a49.89,49.89,0,0,1-1.41-5.57c.09.35.19.7.29,1l-.17-.9c0-.07,0-.16,0-.19h0l-.06-.49c0,.07.1-.07,0-.09s-.12.07-.15.13l-2.46,5.81a18.92,18.92,0,0,1-1-3.54l.78,1.11a18.35,18.35,0,0,1-1.1-2.58l-.15.59-.87,3.05c.23-.25.45-.51.67-.77a10.17,10.17,0,0,0-.8,2.2c.2-.22.4-.45.61-.67a2.11,2.11,0,0,0-.42,1.4l.28-.12A2,2,0,0,1,72.8,200a12.29,12.29,0,0,1-1-3.12l.48.76a.7.7,0,0,0,0-.4L71.05,194a6,6,0,0,1,.69,1c-.33-.82-.63-1.65-.91-2.49l.35.4c-.28-.68-.53-1.37-.76-2.06a5.07,5.07,0,0,1,.36.54c-.31-.72-.63-1.42-1-2.11l-.22,0c-.42,1.16-.84,2.32-1.27,3.48l.61-.86c-.2.59-.38,1.19-.55,1.79a2.18,2.18,0,0,0,.55-.69c-.34.74-.65,1.49-.92,2.26l.76-.8-1,2a1.34,1.34,0,0,0-.2.69l.78-.93a9.48,9.48,0,0,0-1,2.42c.32-.35.64-.7,1-1a20.46,20.46,0,0,0-1,2,16.67,16.67,0,0,0-1.16-2.63,15.61,15.61,0,0,1,1,1.84c-.41-1-.77-2.07-1.08-3.13a8,8,0,0,0,.44,1.09c-.15-.46-.33-.91-.51-1.35l-.06-.18a.84.84,0,0,1,.05.17c-.15-.37-.31-.73-.48-1.09.21.32.41.64.61,1a22.1,22.1,0,0,1-1-2.87l-.23,2c-.08,0-.12.08-.15.15l-.9,2.45.74-1a16.32,16.32,0,0,0-.83,1.8l.6-.52a6.05,6.05,0,0,0-.7,1.21l-1.24-3.29a14.61,14.61,0,0,1,1.26,2.17,31.81,31.81,0,0,1-1.46-4.59c.15.38.3.76.46,1.14a18.3,18.3,0,0,0-.87-2.93l-.49.89-1.8,3.95.92-.83a11.61,11.61,0,0,0-.8,2.08.85.85,0,0,0,.45-.46l-.78,2.08c.2-.21.41-.42.62-.62a8.53,8.53,0,0,0-.5,1.06l-2-3.31,1.22.79a18,18,0,0,1-1-3.39,3.38,3.38,0,0,1,.8.8q-1-2.4-1.88-4.89a3,3,0,0,0,1.46,1.49,33.68,33.68,0,0,1-2.68-5.25,55.9,55.9,0,0,1-2.11,6.37c.39-.43.79-.86,1.18-1.3l-1.14,3.21.82-.88-1.39,3.93L54,195.41q-.43,1.05-.84,2.1a46.06,46.06,0,0,1-2.57-7.41,8.68,8.68,0,0,0,2.47,3.52,33.18,33.18,0,0,1-3.24-10q-2,6.13-4.2,12.17a6.09,6.09,0,0,0,2.08-2.14,26.29,26.29,0,0,1-1.5,5.23c-.4-1.19-.85-2.36-1.35-3.52a15,15,0,0,1,1.57,2.89c-.5-1.34-1-2.68-1.51-4-.41-.75-.79-1.52-1.15-2.3l-.19.32c-.35,1.22-.7,2.43-1.06,3.64l.83-1c-.36.93-.71,1.86-1.06,2.79L43,197l-.5,1.42c-.46-.85-1-1.66-1.52-2.48a8.64,8.64,0,0,1-1.46-3.85,6.23,6.23,0,0,0,1.56,3.14,22.73,22.73,0,0,1-1.25-4.39l.07.06-.07-.31a52.34,52.34,0,0,1-3.18,7.75c-.49-.5-1-1-1.46-1.52-.37-1.31-.7-2.62-1-4,.1.35.2.7.29,1,0-.3-.11-.6-.16-.9,0-.07,0-.16,0-.19h0l-.06-.49c0,.07.11-.07,0-.09s-.12.07-.15.13l-1,2.35a115.33,115.33,0,0,1-11-14.47c.57-.67,1-1.52,1.48-2.24a10.46,10.46,0,0,0,.72-1.19c.29,1-.61,1.6-1.27,2.77-.08.12,0,.34,0,.52,1-.09,1.85-3.47,2.71-2.28a3.41,3.41,0,0,1,.25.37,2.24,2.24,0,0,0-.94,1.85c.66-.07.77-.59,1.06-1.14a.64.64,0,0,0,.13-.28,3.46,3.46,0,0,0,.6.82c.08-.19.29-.43.24-.55-.41-1.9-2.34-2.1-3.14-3.7-.25-.45-.78-.74-1.11-1.15.17,0,.38-.16.51-.1a6.66,6.66,0,0,0,3.12.38c.91-.05,1.81-.26,2.71-.27a1,1,0,0,0,1.12-.75c1.36-2.64,3.29-5,4.7-7.58,1.74-3.11,3.35-6.3,5-9.46a1,1,0,0,1,1.23-.63,11.49,11.49,0,0,0,5,.3c.12,0,.26.09.39.14-1,1.45-1.43,3.28-2.37,4.79a13.61,13.61,0,0,0-1.87-2.79c-.46-.5-1.06-.82-1.09-1.63,0-.15-.26-.29-.41-.44a1.34,1.34,0,0,0,0,1.43c.54.7.18,1.24-.18,1.85C40,161,36.61,165.52,36.93,167c1.89-2.44,3-5.51,4.62-8.18.06-.11.29-.13.43-.19a40.38,40.38,0,0,1-2.33,4.59c-.47,1.15-1.42,2.23-1.54,3.46,1.8-2.21,2.59-5.39,4.36-7.66.29.61-.27,1.13-.49,1.68-.72,1.36-1.47,2.72-2.2,4.08-.5,1.22-1.56,2.32-1.61,3.67.18-.09.44-.13.52-.28,1.58-2.63,2.59-5.83,4.47-8.17.27,1-1.33,2.89-1.71,4s-1.92,3.09-1.5,4c1.42-2.09,2.25-4.71,3.56-6.94.85.26-1.31,5-1.74,5.57,0-.06,0,0,0,0-1.52,2.86-3.37,5.53-5,8.31-.42.92-1.88,2.45-1.75,3.37,1-.27,1.37-1.83,2.05-2.6,1.3-2,2.56-4.08,3.92-6,2.63-4.36,4-9.33,6.55-13.74.64-1.15,3.37-2,4.48-1.38.68.28,1.51.37,1.64,1.27a9.49,9.49,0,0,0,.89,2.87c.43,1.63.81,3.27,1.17,4.91-.3.76-2.26-.5-2.84-.69-.66-.43-1.93-1.43-1.84-2.24-.69-1.31-1.37-2.62-2.09-3.88-.52-.92-.59-.9-1,.07-1.24,3.07-3.1,6-3.93,9.16,2-2.7,2.66-6.4,4.63-9.12-.17,1.67-1.3,3.12-1.86,4.69s-1.85,3.15-1.83,4.9c1.14-1.15,1.39-2.92,2.13-4.36.67-1.17,1.09-3.29,2.16-4,0,1.94-2.61,4.74-2.39,6.66.94-.33,2.1-5.55,3.1-5.61.07.42.38.74.08,1.28-.71,1.23-1.28,2.54-1.9,3.82-.09.26.09.53.17.77,1.12-1.18,1.45-3.13,2.27-4.58a2.86,2.86,0,0,1,.4.64c-.2.79-.69,1.75-.85,2.59,0,.09.1.26.15.39.63-.28.51-1.2,1-1.64.94,2,4.55,1.31,4.1,2.8-2.34,4-4.82,7.81-7.06,11.83-.11.2,0,.52,0,.78,2.17-2.85,3.86-6.11,5.8-9.14,1.08-1.8,2.14-3.62,3.16-5.45.36-.66.63-.62,1.06-.11.23.27.36.44,0,.72-.51.72-2.4,3-2.15,3.75,1.27-.37,2.45-4.77,3.56-3.74-.92,1.53-2.09,2.9-3.1,4.37-.07.1,0,.28,0,.42,1.55-1.06,2.33-3.19,3.8-4.41,0,1.47-3.79,4.55-3.64,6,1.63-1.33,2.66-3.47,4.06-5.09.25-.43.49-.45.71,0-1.27,1.7-2.5,3.56-3.75,5.31-.38.8-1.42,1.51-1.11,2.46.12,0,.29,0,.35-.14,1.71-2.34,3.07-5.05,5-7.2.08.2.28.49.21.58-.64,1.31-3.89,4.78-3.49,5.87,1.75-1.58,2.49-4.21,4.19-5.81.08.29.2.59,0,.84l-3.38,5.21c-.49,1-1.94,2.3-1.77,3.42a2.56,2.56,0,0,0,.87-.89,51.2,51.2,0,0,0,4.8-7.85c.36-.24.77,0,1.15.3-.78.42-1.07,1.39-1.62,2.09-1.29,1.92-2.58,3.83-3.88,5.82-.38.39-.3.71-.26,1.2,1.32-1.27,2.14-3,3.25-4.53.83-1.5,2.22-2.8,2.71-4.45a1.44,1.44,0,0,0,.36.17c1.39.57,1.08,1.17.15,2.15a21.78,21.78,0,0,0-4,6.88c-1.76,3.46-3.85,6.72-5,10.44a1.39,1.39,0,0,0,.19.15,10.34,10.34,0,0,0,1.22-1.92,149.46,149.46,0,0,1,7.22-14c1.75-2.85,4.48-4.84,6.73-7.23a41.39,41.39,0,0,0,5.51-7.22,55.91,55.91,0,0,0,4.89-9c.74-1.15.79-5.41,2.58-4.29a11.67,11.67,0,0,0-1,2.25c-.26.62-.57,1-.27,1.65.91-.92,1.17-2.38,1.75-3.54v0a3.4,3.4,0,0,1,.48.52c-.84.74-1.81,3.35-2.39,4.2-.08.16.09.45.14.67a2.56,2.56,0,0,0,.83-1.07,28.4,28.4,0,0,0,1.64-3.51,7,7,0,0,0,.69.84c-1,1.31-1.53,3.08-2.36,4.56a.68.68,0,0,0,0,.85,4.19,4.19,0,0,0,.85-1.37c.45-1.37,1.47-2.53,1.62-3.9.73.66.45,1.23.09,1.93-.69,1.71-2.08,3.29-2.11,5.17,1.35-1.43,1.8-3.56,2.74-5.3.12-.46.35-.42.68-.13a9.46,9.46,0,0,0-.76,1.3c-.43,1.4-1.46,2.66-1.33,4.11,1.17-1.11,1.43-3,2.19-4.4a1.23,1.23,0,0,0,.09-.84l.71.77c-.27.33-.35.84-.61,1.24-.38,1.12-1.27,2.1-1.11,3.26,1-1,1.37-2.69,2.09-4l0-.09.44.4a4.52,4.52,0,0,0-.43,1c-.38,1.27-1.93,3.44-1.65,4.61,1.21-1.45,1.68-3.46,2.55-5.23a4.1,4.1,0,0,0,.87.48c-.46.19-.51.72-.8,1.16-.35.93-1.37,1.91-1,2.89.13-.07.31-.11.36-.22.39-1.12,1.56-2.67,1.53-3.79a2.71,2.71,0,0,1,.73.62,20.53,20.53,0,0,0-2.11,4.61,4.9,4.9,0,0,0,.13.81c.87-.85,1-2.3,1.6-3.39a15.63,15.63,0,0,0,.64-1.68c.23.35.43.73.63,1.11a6.69,6.69,0,0,0-1.36,3.26c.65-.23.74-1,1.13-1.53a5.37,5.37,0,0,0,.45-1.31,4.75,4.75,0,0,0,.65.92c.58-.8-1-3.24-1.76-3.65a15.44,15.44,0,0,1-4.27-4c-2.1-3.48-3.55-2.39-5.27-4.7-1.71-2.91-4.08-4-2.41-7.75.51-2,1-3.95,1.51-5.93.16-.67.74-1,1.14-.48,1.82,2.12,3.24,5,5.38,6.68,3.53,2.37,5.45,6.19,7.73,9.68,3.7,4.69,3.44,9.39,2,14.95-.49,3.55-.87,7.12-1.5,10.65-.13,1.31-1,6.48-.88,8,.76-1.93,1.55-8,1.92-10.13.16-.89.25-1.86.47-2.75.63.72,1.07,1.74,2,2.08-.07-.23-.15-.46-.26-.73-.6-.57-1-1.34-1.64-1.72a3.23,3.23,0,0,1,.29-.66,44.26,44.26,0,0,1,3.2,4c.1.13.31.16.47.24-.08-1.18-2.39-3.27-3.15-4.36a1.29,1.29,0,0,1,0-1.73c.22.9,2.49,2.88,2.91,3.58a10.7,10.7,0,0,0,2.28,2c-.54-1.67-2.06-2.69-3.13-4-.63-.55-1.18-1.48-1.9-1.86l.47-.58a.62.62,0,0,0,.19.41c1.25,1.22,2.16,2.93,3.67,3.8a7.37,7.37,0,0,0-.26-.74c-1.19-1.2-2.06-2.82-3.36-3.76a3.24,3.24,0,0,0,.31-.48c.75.11,1.3,1.29,1.88,1.8,1.23,1.48,2.46,3,3.7,4.44.12.14.37.15.56.21,0-.23,0-.52-.15-.68-1.57-1.86-3.14-3.72-4.75-5.54-.7-.81-.87-1.16-.41-1.94.18.66.8,1,1.21,1.62,1.16,1.2,1.94,2.77,3.3,3.63-.07-1.26-1.32-2-2-3-.8-.74-1.37-2.18-2.43-2.46l0,0,.78-1.14a10.78,10.78,0,0,0,1.27,1.84c1.46,1.66,2.63,3.67,4.31,5.08,0-.4,0-.83-.34-1.11l-3-3.72a27.44,27.44,0,0,0-2.12-2.28l.55-.81c-.2.66.49,1,.83,1.51,1.17,1.13,2,2.55,3.35,3.42a1.46,1.46,0,0,0-.28-1c-1.32-1.25-2.39-3-3.89-3.95l.44-.64c.65,1.16,1.84,2,2.65,3.15.92.88,1.55,2,2.61,2.63a1.47,1.47,0,0,0-.39-1.1q-2.22-2.56-4.48-5.09l-.06-.06.4-.59c1,1.32,3.78,5.17,4.84,5.3-1.12-2.15-3.11-3.75-4.57-5.68h0l.77-1.12a21.46,21.46,0,0,0,2.39,3c1.15,1.1,2.23,3.34,3.64,3.73-.28-1.16-1.42-1.82-2.09-2.75-1.16-1.35-2.31-2.71-3.48-4.05a.68.68,0,0,0-.29-.16l.59-.87a12.91,12.91,0,0,0,1.39,1.68c.92,1.07,1.85,2.14,2.79,3.19,0,0,.24,0,.36-.15-1.3-1.77-2.68-3.31-4.11-4.94a.6.6,0,0,0-.2-.14l.13-.17.24-.38v.11c1.51,1.75,3,3.42,4.54,5.09.46.41.79,1.12,1.46,1.14,0-1.12-1.8-2.3-2.46-3.25a29.77,29.77,0,0,0-3.38-3.36,8,8,0,0,0,.58-1.08,1,1,0,0,0,.27.53c1,1,1.84,2.56,3,3.21.24-1.09-1.35-2.12-2-3-.46-.35-.75-.83-1.26-1a3.32,3.32,0,0,0,.15-2.08c-.06-1.78.18-3.58-.44-5.31-.09-.6.39-.74.83-.44,2.22,1.56,4.67,2.74,6.81,4.45,3.36,2.35,6.9,4.59,9.71,7.6a9.27,9.27,0,0,1,1.15,1.29c1.08,1.43,3.82,2.54,4,3.9-1.8-.82-3.19-2.53-4.84-3.68-.09-.07-.27,0-.41,0,.83,1.21,2.34,1.92,3.42,2.95.7.7,1.85,1.11,1.85,2.26-1.78-1.16-3.21-2.89-4.92-4.19a1.61,1.61,0,0,0-.56-.19c.61,1.44,2.19,2.17,3.24,3.26.63.77,2.47,1.37,2.25,2.5-1.27-.53-2.18-1.94-3.3-2.81-.65-.46-1.13-1.42-1.93-1.51,0,1,2.94,2.89,3.71,3.82.63.67,1.74,1.08,1.37,2.2-1-.8-3.2-3.56-4.25-3.64.67,1.42,2.29,2.4,3.33,3.6.53.5,1.36.68,1,1.61-1.26-.45-3-3.65-4.13-3.46.81,1.69,2.58,2.66,3.86,3.95.14.13,0,.57,0,.86-.91-.66-1.85-2.33-3-2.33.14.79.9,1.29,1.44,1.8,1.67,1,1.25,1.88.78,3.51,0,.34,0,.6.48.43,1.29-.05,2.08,2.11,3.31,2.1-.3-1.12-1.9-1.62-2.44-2.61a7.66,7.66,0,0,1,.83-.78c1.15,1.22,2.38,2.49,3.56,3.69.08.08.27,0,.41,0,0-.83-2.74-3.12-3.45-3.82-.59-.42.15-.88.35-1.32.56.21.8,1.17,1.28,1.59s1,1.29,1.78,1.1c-.33-1-3.75-3.07-2.54-3.93a29.49,29.49,0,0,0,3,3.45,2.38,2.38,0,0,0,.61.33c.09-1.56-3.85-3.4-3.29-4.88.54-.47.27.28.41.42,1,.8,2.42,3.08,3.5,3.35,0-.16,0-.37-.08-.47-1.12-1.21-2.26-2.39-3.38-3.6-.12-.09-.14-.4-.09-.76a.38.38,0,0,0,.11.11c1.2,1.2,2.14,2.74,3.65,3.54.19-.58-.3-.78-.6-1.15-1.08-1-1.84-2.35-3-3.11.14-.53.35-1,.51-1.08.36,0,.39.43.52.68q2,2.17,4,4.31c.1.11.31.11.46.16,0-.91-1-1.39-1.5-2.08a33.73,33.73,0,0,0-2.73-3c-.72-.49-.56-1.11-.42-1.76.23.72,1.27,1.61,1.63,2.25.88.78,1.44,2,2.5,2.43,0-.16.05-.38,0-.47-1.37-1.47-2.56-3.23-4-4.54a1.85,1.85,0,0,0,0-.81c.18-1.16,1.48,1.46,1.84,1.66.73.84,1.53,1.62,2.31,2.41,1.94.26-3.89-4.56-3.84-5.29a4.56,4.56,0,0,0,0-.73,1.13,1.13,0,0,0,.24.46c1.21,1.2,2.14,2.86,3.57,3.77.07-.79-.58-1.21-1-1.85a24.35,24.35,0,0,0-2.87-3,5.65,5.65,0,0,1,0-1.32c.44.72,1.27,1.19,1.82,1.82,1.12.78,2.31,2.57,3.64,2.68-.79-1.49-2.37-2.29-3.55-3.52-.63-.45-1.09-1.1-1.76-1.35.16-.26.45-.34.95-.11a24.46,24.46,0,0,1,5.08,3.72c2,1.83,3.86,3.86,5.85,5.71.66.78,1.87,1.18,2.25,2.13-.83,0-1.1-1.15-2-1.05.33,1.06,1.94,1.33,1.93,2.48-.73-.33-1.13-1.2-1.87-1.45,0,.56.55,1,.84,1.44s.85.47.84,1c-.71,0-.94-.84-1.8-.76.36.78,1.37,1,1.7,1.79-.72,0-1.24-.86-2-1.05.36,1.09,1.89,1.19,1.85,2.11-.58-.21-.93-.8-1.6-.82a5.13,5.13,0,0,0,1.21,1.25c.93,1.18.92,2.94,1.72,4.19,1.51,2.36,1.23,5.29,2.23,7.78.43-.64.09-1.5.06-2.22-.06-2-1.21-4-.58-5.91a9.57,9.57,0,0,0,.67-1.8c.36.66,1.69,1.15,2.24,1.69.81.26,1.59,1.49,2.44,1.1-.2-.47-.7-.64-1.08-.93-1.19-.62-2.27-1.79-3.54-2.12a9.36,9.36,0,0,0,.17-1.06c.28.31.75.49,1.09.79,1.16.61,2.07,1.6,3.26,2-.07-.15-.1-.35-.22-.42a42.47,42.47,0,0,0-4.11-2.63c0-.2,0-.41,0-.61,1.09.91,2.42,1.52,3.57,2.36.76.38,1.39,1.29,2.31,1.14-.38-.72-1.13-1-1.8-1.46-1.34-.8-2.61-1.61-3.89-2.4a.65.65,0,0,0-.21-.06c0-.06,0-.11,0-.17,0-.4,0-.5.42-.23,1.72,1.11,3.46,2.17,5.21,3.22.14.09.36,0,.55,0-.39-1.21-6.05-3.21-6.09-4.37,2.15,1,4.13,2.43,6.23,3.55.17.1.45,0,.67,0-1-1.42-6.82-3.4-7.12-4.84a1.89,1.89,0,0,1,.65.1c1.83,1.1,3.64,2.22,5.47,3.32a1.8,1.8,0,0,0,.67.07c-.39-1.37-6.32-3.32-6.49-4.73,2,.92,3.83,2.18,5.77,3.21.14.08.37,0,.55,0-.08-.15-.13-.36-.26-.43-1.85-1.09-3.85-1.94-5.62-3.15,1.71-.29,3.37,1.09,4.84,1.88a41.82,41.82,0,0,1,7.1,5.19c1.82,1.67,3.58,3.39,5.37,5.08.42.36.69,1,1.29,1-.06-.28-.05-.57-.31-.74a64.51,64.51,0,0,0-6.1-6.16c-3.21-2.77-11.37-9.75-15.53-6.59a.5.5,0,0,1-.5,0c-3.33-3.3-6.64-6.64-10.11-9.8-2.14-2-5.36-3-8.09-1.72-1.32,1.21-3.1.81-4.34-.36-3.6-2.87-7.09-5.92-10.81-8.63-.81-.57-.85-.84-.19-1.59s1.5-1.76,2.16-2.71c2-2.83,3.91-5.7,5.87-8.54.32-.4,1.84-2.72,2.16-1.79-.32,2.07.35,4.29-.82,6.15-.72,1.73-.46,3.81-.64,5.67.08,2.39-1.18,4.25-2,6.36.21,1,1.3-1.14,1.47-1.44a13.72,13.72,0,0,0,1.21-5.13c.12-1.27-.21-5.79,1.3-5.91,1.4,1.24,2.72,2.6,4,4,.09.1.09.31.12.47-1.07,0-1.48-1.59-2.51-1.72.29,1,1.5,1.46,2.07,2.34-1.06.13-1.4-1.29-2.38-1.4a1.87,1.87,0,0,1,.1.59c-1.25.47,1.62,1.66,1.45,2.59-.79,0-1-1-1.71-1.32-.12,1,1,1.39,1.26,2.25-1.07-.07-1.2-1.68-2.24-1.85.08,1.14,1.61,1.57,1.72,2.71-.91-.27-1-1.57-2-1.86.14,1.2,1.69,1.71,1.63,3-1-.41-1.29-1.91-2.32-2.24.25,1.2,1.63,1.85,2,3-.89.09-1.28-1.61-2.15-1.94.15,1.3,1.77,1.85,1.85,3.18-1-.37-1.23-1.74-2.26-2.15.2,1.24,1.5,2.29,2.31,3.18.77-2.61,2.38-4.91,3.48-7.4.85-1.7,1.21-3.68,2.67-5,.44-.55,1.08-1.33.94-2.11-.95.47-1.15,1.78-1.9,2.51-.86-.9,2.14-3,1.75-4.06-1.11.61-1.26,2.27-2.27,3.06-.14-1.14.89-2,1.35-2.93.31-.75,1.41-1.52,1-2.35-1.19,1.12-1.74,2.94-2.89,4.12-.16-.38-.24-.7.08-1,.74-1.07,1.48-2.15,2.23-3.22.34-.61,1.17-1.08.75-1.87-1.2,1.42-2.16,3.06-3.29,4.55-.07.1-.25.1-.38.15a.63.63,0,0,1,.12-.85c1-1.47,2.05-2.94,3.05-4.42a2.11,2.11,0,0,0,.14-.73c-1.62.83-2.55,3.76-4,5-.05-1.76,2.54-3.6,2.8-5.45-1.51,1.07-2.07,3.1-3.37,4.4-.11-.38-.65-.79-.27-1.12,1-1.87,2.54-3.25,3.8-4.87,3.39-4,5.76-8.67,8.9-12.81a37,37,0,0,0,.4,4.17c.22,1.6-.52,3-.87,4.5a11.74,11.74,0,0,0-.06,5.65,5.77,5.77,0,0,1-.07,2.83c-1.39,5.2-4.44,9.62-7,14.25-.43,1.06-1.6,2.08-1.5,3.25,1-1.45,2-2.94,2.93-4.47.17.56.52,1.17,1.12,1.14.05-.51-.31-.75-.6-1.15l-.41-.17.69-1.14a.42.42,0,0,0,.06.28,15.13,15.13,0,0,0,2.44,2.89,3.77,3.77,0,0,0,0-.66c-.82-.93-1.32-2.16-2.28-2.84l.45-.77c.12.25.33.5.47.74,1.13,1.3,1.95,3.08,3.31,4.07.38-.79-2-3.16-2.53-4.11-.36-.42-.63-.83-1-1.21.23-.39.45-.79.67-1.18a6.29,6.29,0,0,0,.83,1.4c1.08,1.41,1.78,3.24,3.13,4.36,0-.27.07-.61-.06-.84-1.17-1.78-2.34-3.57-3.55-5.39l-.07,0c.22-.4.44-.8.65-1.2a8.89,8.89,0,0,0,1.4,2.51c1,1.52,2.08,3,3.15,4.52.13.2.43.27.65.4a2.13,2.13,0,0,0-.17-.78c-.94-1.43-1.92-2.84-2.92-4.29-.72-.86-1.13-1.94-2-2.56l.55-1c.24,1.2,1.44,2.14,2.05,3.24,1.11,1.36,1.73,3.16,3.14,4.1a4.53,4.53,0,0,0-.31-1c-1.64-2.11-2.88-4.7-4.77-6.55l.31-.58a9.52,9.52,0,0,0,.5.82c1.53,2.44,3.12,4.67,4.75,7,.07.1.24.11.36.16.28-.83-1.56-2.78-2-3.68a36.84,36.84,0,0,0-3.4-4.75l.59-1.15a1.39,1.39,0,0,0,.29.68c1.68,2.36,2.89,5.19,4.94,7.22-.93-3-3.18-5.31-4.7-8.05a3.42,3.42,0,0,0-.34-.23c.2-.39.4-.78.59-1.17a4.6,4.6,0,0,0,.33-.81,2.39,2.39,0,0,0,.13.21c.9,1,1.89,3.15,3,3.51,0-.21,0-.48-.06-.63a32.53,32.53,0,0,0-2.89-3.68,8.38,8.38,0,0,0,.1-1.88c.16.71,1.08,1,1.57,1.55,1,.68,1.8,2,3,2.08-.45-1.28-3.08-2.78-4.14-3.86-.1-.08-.29,0-.45,0,0-.6-.11-1.22-.17-1.83.6.87,1.79,1.5,2.49,2.31.72.43,1.23,1.24,2.09,1.15-.73-1.24-2.19-1.95-3.2-3-.49-.31-.87-1-1.43-1.08a10.59,10.59,0,0,1,0-1.69c.56,1.08,3,2.56,3.71,3.32.66.56,1.27,1.48,2.2,1.35a4.68,4.68,0,0,0-1.06-1.24c-1.61-1.26-3.09-2.78-4.79-3.9a5.77,5.77,0,0,1,.2-.82c1.42,1.65,3.37,2.78,5,4.22.67.41,1.25,1.25,2.1,1.09-1.88-2.2-4.53-3.66-6.75-5.5a2.13,2.13,0,0,1-.06-1.79c0,.86,1.06,1.23,1.56,1.81,1.17.79,2.36,2.43,3.68,2.73-.06-.93-1-1.2-1.6-1.81-1.22-.93-2.23-2.25-3.62-2.81a5.71,5.71,0,0,0,.29-1.7,2.54,2.54,0,0,0,0-.29,1.17,1.17,0,0,0,.5.76l3.89,3.72c.42.4.83.9,1.44.5-1.76-1.76-3.53-3.44-5.3-5.1a1.14,1.14,0,0,0-.5-.17,12.33,12.33,0,0,0,0-1.72c.51,1.27,2.83,2.81,3.76,3.89.49.37,1,1,1.64.79a18.53,18.53,0,0,0-2.5-2.6c-1.06-.65-1.72-1.94-2.91-2.25,0-.59-.1-1.19-.16-1.78.57.71,1.57,1.55,1.79,1.87.76.58,2.82,3.39,3.51,3.25a.85.85,0,0,0-.3-.7L141.74,113a8.86,8.86,0,0,1,0-1.15c.34-.54,1.47,1.33,1.77,1.62a21.84,21.84,0,0,0,4.87,5.14c.9,1.22.31,3,.7,4.47-.22,1,.07,2.23-.08,3.36a35.39,35.39,0,0,0,.31,5,26.36,26.36,0,0,0-.26,4.8,10.81,10.81,0,0,0,1.79,5.22c2,3.37,3.88,6.86,6,10.15.08.12.33.11.5.16-2.16-4.47-5.06-8.63-7.14-13.19-.2-.64-.71-1.46-.46-2.11,1.72,2.76,3.47,5.43,5.29,8.18.5.62.78,1.32,1.45,1.71-.09-1.45-2.1-3.63-2.84-5-1.22-1.81-2.48-3.6-3.7-5.41a1.1,1.1,0,0,1-.16-.79c0-.14.06-.29.08-.43.68,1.61,2,3,2.82,4.51,1,1.35,1.8,3.06,3,4.17.36-.86-1.86-3.27-2.34-4.3-1.2-1.73-2.23-3.51-3.46-5.15a6.26,6.26,0,0,0-.38-2.43c.34-2.7-.21-5.91-.09-8.6v0a15.7,15.7,0,0,0-.05-3c-.22-.89,1.3-1.19,1.84-1.68.93-.71,1.69.59,1.38,1.5a3,3,0,0,0-.17.93,31.56,31.56,0,0,1-.75,8.11c-.11,1.82-1.37,3.84-.32,5.53,2,2.73,3.5,6,5.75,8.43.43-1.08-2.16-3.82-2.73-5-.95-1.45-1.94-2.87-2.82-4.36-.18-.31,0-.86,0-1.3,1.61,2,3,4.24,4.53,6.29a.84.84,0,0,0,0-1c-1.14-1.66-2.26-3.32-3.44-4.95-.66-.8-1.4-1.82-.47-2.83,2,2.75,3.7,5.69,5.81,8.33.13.17.4.22.61.33a2.07,2.07,0,0,0-.13-.73c-1.5-2.15-3-4.28-4.53-6.41-.56-1.05-1.91-1.88-1.48-3.21,1.64,2.13,3.21,4.32,4.78,6.5.26.36.42.73.94.57-1.28-2.7-3.4-4.92-5.1-7.36-1-.7-.17-.65-.28-1.89,2,2.7,3.9,5.5,5.88,8.22.15.21.45.29.68.43-.07-.37,0-.82-.31-1.06-1.94-2.76-3.95-5.47-6-8.19-.47-.65-.1-1.6,0-2.34.58.24.59,1,.94,1.45,1.68,2.34,3,5,5,7.12-.68-2.32-2.48-4.13-3.65-6.21a15.71,15.71,0,0,0-1.72-2.49,1.88,1.88,0,0,1-.55-1.72c.61.25.74,1,1.13,1.51,2,2.79,3.51,6.14,5.82,8.62,0-.23,0-.52-.09-.69-1.3-2-2.63-4-3.95-6-.63-1.24-2.84-3.53-2.76-4.72.25.11.7.18.73.33v0a2.2,2.2,0,0,0-.25-.17c1,1.85,2.29,3.51,3.44,5.34.3.35.45.71.82.92.55-.68-1.14-2.28-1.48-3-.63-.71-1.13-1.61-1.75-2.35.85.82,1.68,1.74,2.59,2.51,4.42,3.42,7.28,8.44,11.58,12a3.2,3.2,0,0,0,2,1,6.34,6.34,0,0,0-.15,1.21c-1.18-.77-2.12-1.94-3.48-2.33.72,1.62,3,2,3.65,3.64-1.5-.46-2.34-2.15-3.84-2.68.71,1.53,2.41,2.18,3.48,3.41.24.24.09.9.12,1.37-1.35-.32-3-3.43-4.12-3,.56,1,1.69,1.75,2.47,2.66.61.6,1.37,1,1.19,2-1.07-.44-2.75-3.36-3.66-3,.18,1,1.69,1.81,2.31,2.65.39.56,1.88,1.56,1.5,2.22-1.35-.67-2.06-2.44-3.52-2.85.21,1.23,2.3,2.54,3.2,3.45a1.49,1.49,0,0,1,.42,1.92c-1.16-.75-2-2.22-3.29-2.62-.06,1.12,1.87,2,2.56,2.83.67.34.69.9.64,1.59-1.12-.52-1.86-1.84-3.08-2.07.41,1.19,1.82,1.72,2.62,2.66.66.74-.24,1.5-.47,2.31-.7,1.91-1.4,3.75-2.08,5.6a1.86,1.86,0,0,0,0,.7c1.4-2.23,2.18-4.91,3.22-7.35a12.33,12.33,0,0,0,.61-4.68c-.07-1.67-.56-3.3,0-5,.23-1.15.9-3.88.17-4.64h0a13.09,13.09,0,0,0,2.78-.57,5.54,5.54,0,0,0,.38,2.63c1,2.48.85,5.21,1.26,7.82a2.38,2.38,0,0,0-.06.37,18.32,18.32,0,0,1-1.8,7,1.62,1.62,0,0,0-.1.18l-.15.31-.27.49c-.1.2-.22.41-.32.62a17.35,17.35,0,0,1-4.3,5c-.41.38-1,.7-1,1.34a2.22,2.22,0,0,0,.56-.21c.1,1,2.65,2.64,3.24,3.4.57.48.89,1.24,1.61,1.35.11-.36.1-.64-.24-.85l-4.16-4.15,0,0c.26-.2.52-.43.77-.66.4.91,1.67,1.57,2.28,2.36.91.73,1.53,1.83,2.6,2.18C174,163.55,172,162.2,171,161a11.11,11.11,0,0,0-1.09-1,5.09,5.09,0,0,1,.47-.34l.37-.42c.14.87,1.23,1.33,1.75,2,1.58,1.37,2.9,3.28,4.8,4.13,0-.93-.82-1.25-1.41-1.86-1.43-1.33-2.74-2.62-4.13-4a2.17,2.17,0,0,0-.83-.51c.21-.23.42-.47.62-.71l0,0q2.13,2.12,4.29,4.2c.63.51,1.15,1.34,2,1.4-.08-.18-.11-.41-.24-.53-1.43-1.4-2.74-2.86-4.28-4.15-.54-.43-.87-1.17-1.47-1.36.22-.26.44-.54.65-.81a.82.82,0,0,0,.19.41q2.63,2.44,5.27,4.86c.5.31,1.1,1.22,1.7,1.06.32-.93-3.61-3.53-4.39-4.47-.93-.67-1.6-1.7-2.65-2,.29-.39.55-.78.79-1.18.59,1.05,2.22,1.89,3,2.78,1.09.78,1.9,2,3.15,2.38-.09-.35-.1-.75-.44-1l-3.54-3.05a17.15,17.15,0,0,0-1.94-1.6c.09-.17.18-.34.26-.52s.24-.5.37-.75c.47,1.28,4.4,3.81,5.4,4.89a5.23,5.23,0,0,0,.75.07c-.74-1.26-2.1-2-3.13-3-1-.65-1.82-1.8-2.91-2.14a4,4,0,0,1,.27-.44l.45-1.29c.75,1.14,2.61,2.3,3.52,3.24a25,25,0,0,0,1.88,1.65c.21.15.46.91.86.31.09-.13-.28-.72-.54-1-1.77-1.59-3.63-3.07-5.46-4.58a.35.35,0,0,0-.12-.07c.12-.34.23-.69.34-1,.21.89,2.15,2,2.8,2.73,1.23.9,3,3.24,4.41,3.25-1-1.5-2.69-2.45-4-3.71-1-.71-2-2-3.22-2.39a14,14,0,0,0,.35-1.38,20.4,20.4,0,0,0,2,1.63c1,.59,2.34,2.31,3.51,2.12-.05-.11-.09-.22-.17-.37-1.26-.79-3.82-3.36-5.23-3.71a10.14,10.14,0,0,0,.17-1.73.64.64,0,0,0,.18.26c2.28,1.67,4.57,3.33,6.88,5a1.79,1.79,0,0,0,.75.15c-.1-.2-.21-.4-.35-.64-2.38-1.48-4.59-3.38-6.92-5a1.21,1.21,0,0,0-.55-.14,6.11,6.11,0,0,0-.13-1.12l0,0a5.5,5.5,0,0,0,0-.91,32.26,32.26,0,0,0,2.53,2.4c1,.71,3,3.16,4,3-.11-1.09-2.8-2.6-3.63-3.54-.55-.32-2.21-2.22-3-2.47a14.7,14.7,0,0,1-.11-1.5c.34.44.87.75,1.28,1.2,1.54,1.43,3,2.84,4.54,4.23a2.47,2.47,0,0,0,1.07.54c0-.55-.47-1-.8-1.32-2.08-1.69-3.88-3.93-6.12-5.33-.06-.57-.15-1.12-.25-1.66l.07.06c1.33,1.32,2.63,2.54,4.07,3.76,1.11.86,1.94,2.17,3.18,2.66.11-.61-.47-.9-.81-1.29-2.27-1.91-4.2-4.44-6.69-6-.13-.55-.28-1.1-.44-1.65.41.57,1,1,1.49,1.54,1.19.92,2.82,3.22,4.16,3.49-.57-1.41-1.93-2.11-3-3.18-1-.83-1.75-2.09-2.91-2.57-.16-.47-.33-.95-.51-1.43l.31-.06a24.82,24.82,0,0,0,2.39,2.43c1,.84,1.71,2,2.9,2.48-.57-1.49-2.52-2.71-3.59-3.95a10.91,10.91,0,0,0-1.23-1,2.91,2.91,0,0,1,2,.41c5.09,4.08,8.89,9.61,12.68,14.95l3.9,5.51c.89,1.47,2.28,2.69,2.79,4.35a2.08,2.08,0,0,0-1.23-.13c.2.71,1.11.63,1.18,1.42-.82.28-1.4-1.09-1.92-.43.27.57,2.13,1.38,1.86,2-1-.07-1.57-1.23-2.62-1,.36,1.23,3.15,1.24,2.42,2.75-1-.39-2.81-2.45-3.73-2,.93,1.09,2.35,1.67,3.43,2.59.13.1.07.47.1.72-1-.14-3.76-3-4.29-2.36,1,1.31,2.61,1.92,3.82,3,.18.14.06.67.07,1-1.2.18-3.54-3.24-4.94-3.23.13,1.38,5.58,3.8,4.33,4.75-1.22.13-3.88-3.54-5.28-3.61.54,1.43,2.72,2.37,3.77,3.56.5.45,1.44.74,1,1.83-.13.33-.12.39-.39.15-1.47-1.28-2.95-2.56-4.45-3.82-.16-.14-.43-.13-.65-.19.91,1.53,2.68,2.43,3.91,3.71.87.63,1.56,1.24,1.34,2.45a44,44,0,0,1-3.57-3.53c-.81-.61-1.65-2.09-2.66-2.08,1.24,2.24,3.57,3.75,5.24,5.68.45.57,1,.17,1.09,1.05.28.7.43,1.75,1.21,2-1.28-4.45-.6-5.8.76-7.18a.77.77,0,0,0,.24.44,15.74,15.74,0,0,0,2.15,2.75c.13-.45.22-.77-.16-1.15-.69-.77-1.17-1.7-1.89-2.36l.76-.72c.56,1.6,2,2.8,2.84,4.23.07.11.26.13.4.18a.75.75,0,0,0-.16-1,30.48,30.48,0,0,0-3-3.56c.17-.16.34-.34.52-.53.9,1.12,1.52,2.67,2.66,3.47.21-.7-.39-1.07-.73-1.64a21.71,21.71,0,0,0-1.67-2.12c.15-.17.29-.35.44-.54.19.39.53.71.77,1.12a48,48,0,0,0,3,4.1c.64-.93-1.59-2.87-2-3.81A12.65,12.65,0,0,0,199,167c.16-.23.32-.47.48-.73.35.88,1.63,2.29,1.95,3l.19-.18a7.83,7.83,0,0,0-2-3.08l.14-.24c.09-.14.25-.62.56-.18,1.07,1.21,2.12,3.91,3.48,4.48-.13-1.25-2.32-3.8-3.16-4.86a1,1,0,0,1-.11-1.54c1.38,1.4,2.2,3.49,3.7,4.71.22-1-1.87-2.63-2.34-3.68-.47-.75-1.51-1.12-1.45-2.24a1.41,1.41,0,0,0,.07-.41c.31,1.06,1.81,2.36,2.38,3.3,1.12,1.28,1.87,2.91,3.18,3.89.12-.88-.74-1.3-1.15-1.94-1.51-1.85-2.82-3.93-4.44-5.66a2.11,2.11,0,0,1,0-1.17c0,.71.76,1.17,1.12,1.81,1.34,1.86,2.7,3.64,4.09,5.46.1.13.34.14.51.21-.21-1.19-1.33-2-1.95-3-1.14-1.46-2.3-2.92-3.45-4.37-.06-.07-.18-.08-.28-.11a.68.68,0,0,1,.4-.26,1.22,1.22,0,0,1,1.53.44c1.15,1.78,2.34,3.54,3.55,5.28.77,1.16,1.56,2.31,2.37,3.43a4.63,4.63,0,0,0-.3,1.81c-.1,3.57-.48,6.78-1.72,9a3.32,3.32,0,0,0-.36,2.26,10.24,10.24,0,0,0,.92-1.57c.5,1.08,1.76,2,2.49,3Q207,187.29,204.24,190.62ZM54.66,156c1.12-.61,1.75-2,2.85-2.62.17,1.13-2.79,2.63-2.49,3.77.95-.45,1.31-1.67,2.16-2.26.66,1.13-1.88,1.95-1.73,3.16.65-.4,1-1.21,1.73-1.46.06,1-1,1.52-1.52,2.24-.65.1-.94-1.84-1.28-2.36a1,1,0,0,1,.09-1.47,14.56,14.56,0,0,1,3.33-2.71,6.8,6.8,0,0,1-.38.7c-.85.22-2,1.93-2.74,2.6C54.61,155.63,54.67,155.83,54.66,156Zm2.78,3.94c-.43.42-.89,1.59-1.49,1.56,0-.2,0-.41,0-.62.55-.54.77-1.21,1.47-1.39C57.42,159.61,57.5,159.81,57.44,159.91Zm0,1.53c-.3.4-.65,2-1.26,1.57C55.83,162.43,57.3,160.17,57.45,161.44Zm-1.86-1.55a3.36,3.36,0,0,1,1.66-2.13c.29.55-.35,1-.58,1.41C56.46,159.42,55.66,160.74,55.59,159.89Zm6.15-2.64c.37,1.39,1.9,1.82,2.33,3.16A57,57,0,0,1,66,167c-2.18-.33-3.69-2.27-5.51-3.36-.74-.6-2-.84-2.39-1.75a35.66,35.66,0,0,1,.13-9.57c1-.13,2.83.22,2.72,1.54A6.8,6.8,0,0,0,61.74,157.25Zm11.91-18.59c1.31-1.16,2.16-2.87,3.26-4.27,1-1.2,1.7-3,2.86-3.93A7.77,7.77,0,0,1,79,133.1c-2.45,2.22-4,5.23-6.11,7.73-.17.33-.76.85-.26,1.19.07,0,.52-.33.71-.58,1.82-2.23,3.47-5.16,5.33-7.19.19,1.56-1.19,2.48-1.9,3.6-1.26,2.06-2.65,4-4,6-.32.33-.22.85-.32,1.28,2.5-2.29,3.69-6,6.11-8.37.08.34.33.79.2,1-.66,1-1.43,1.91-2.12,2.88-1.25,1.78-2.47,3.58-3.7,5.38a.78.78,0,0,0-.07.9c1.08-.57,2-2.77,2.85-3.81,1.1-1.67,2.19-3.34,3.3-5,0-.06.23,0,.35,0,0,.24,0,.54-.1.73-1.41,2.16-2.84,4.3-4.26,6.45a.71.71,0,0,0-.13,1c1.37-1.17,2.12-3.12,3.23-4.59.51-.54,1.25-2.68,2-2.54.16.24.43.65.34.77-.68,1-1.47,1.93-2.17,2.93-1,1.5-2,3-3.07,4.56-.35.26,0,.65,0,1a88.43,88.43,0,0,0,5.51-8.3c.22.31.54.65.86,1-1.32,1.07-2,2.86-3.12,4.23-.48.92-1.46,1.73-1.46,2.82,1-.49,1.34-1.71,2.09-2.55.85-1.49,2.14-2.7,2.68-4.28a6.17,6.17,0,0,1,.64.86,4.08,4.08,0,0,0-.66.95c-1.08,1.63-2.13,3.15-3.13,4.81-.07.13,0,.34,0,.52.59-.16.8-.81,1.15-1.27.56-1.13,2.38-3.27,2.82-4.62a1.37,1.37,0,0,1,.1.48A56.17,56.17,0,0,1,70,164.36c-.9.67-2.09,2.89-3.12,2.87a.78.78,0,0,1-.12-1.1c1.22-1.76,2.37-3.56,3.55-5.35.59-1,1.43-1.67,1.47-2.81-.23.14-.53.24-.67.45-1.65,2.32-3,4.86-4.6,7.22-.35-.8-1-1.92-.45-2.76,1.87-2.46,3.77-4.9,5.52-7.46.11-.16.08-.42.12-.63-.21.08-.5.1-.61.25-1.67,2.4-3.66,4.63-5.1,7.17-.14.49-.39.31-.49,0a1.33,1.33,0,0,1,0-1.47c1-1.38,2-2.78,3-4.2s1.84-2.72,2.75-4.08a1.06,1.06,0,0,0,.25-.85c-.84.16-1.48,1.73-2.09,2.39q-1.87,2.72-3.7,5.46c-.22.26-.35,1.53-.79.82-.78-1.28-.79-1.44.13-2.64,1.56-2.13,3.08-4.3,4.59-6.46.11-.15.07-.42.1-.63-.21.09-.5.12-.62.28-1.58,2.17-3.14,4.37-4.7,6.56-.11.15-.12.42-.25.5s-.58.28-.71.19-.73-.38-.35-.89c2.2-3.13,4.68-6.14,6.62-9.43-.86-.1-1.14,1-1.67,1.52-1.73,2.47-3.69,4.8-5.24,7.4-.67.41-1-.65-.5-1.2,1.09-1.27,2-2.67,3-4,1-1.67,2.65-3.11,3.31-5-.23.07-.54.07-.66.22-2.06,2.84-4.16,5.65-6.19,8.51a2.15,2.15,0,0,1-.34-2.06c1.64-1,2.39-2.84,3.45-4.38,3.18-4.43,6-9.09,9.45-13.34,1.29-1.71,2.56-3.43,3.83-5.17.88-1,1.37-2.49,2.5-3.17a3.57,3.57,0,0,1,0,.57c-.07,1.58-1.3,2.36-2.23,3.42-1.62,2.21-3.21,4.44-4.81,6.67C73.34,138,73.59,138.35,73.65,138.66Zm55.87-.86a3,3,0,0,1-2.15-1c-.62-1-2-1.45-2.22-2.66a20.09,20.09,0,0,0-.17-3.56c0-.77-.35-1.45,0-2,1.92.07,3.58,3.37,4.56,4.91C130.19,134.34,131.27,137.91,129.52,137.8Zm.2,1c-.12.05-.27.19-.35.15a6.72,6.72,0,0,1-.79-.52l.51-.06A2.08,2.08,0,0,1,129.72,138.85Zm-4.47-11.11c-.66-.4-1.13-.09-1.49.43-2.08,3.08-4.21,6.32-6.31,9.31-6.11,8.42-2.92,5.93-11,2-1.08-.26-1.68.69-2.3,1.28-1.7,2-5.62,1.22-6.07,3.36,0,0-.24,0-.28,0-1-1.69-2-3.44-3.16-5.05s-2.64-3.37-4-5c-2-1.49-4-2.8-5.15-5.13A19,19,0,0,0,82.84,126c-2-5.76-.85-13.69,1-19.44,7.36-20,31.71-24.53,46.33-9.92,4.3,3.65,6.75,8.86,9.16,13.92,1,1,.6,1.69-.14,2.55-2.28,2.69-4,5.81-6,8.71-1.71,2.27-3.68,4.34-5.47,6.56C127.14,129.33,126,128,125.25,127.74Zm-19.5,19.72a4.41,4.41,0,0,1-1.19,2.74,45.57,45.57,0,0,0-3.37,5.11c-.55,1.1-1.18,2.17-1.63,3.33-.08.21-.34.34-.51.51-.84-.67-.3-1.72-.25-2.63a29.07,29.07,0,0,0,.58-6,9.06,9.06,0,0,0-1-5.5c-.19-1,1.53-1.37,2.23-1.46,1.91-.05,3.23-1.39,4.87-2.16C106,143.34,105.55,145.44,105.75,147.46Zm20.13,7c.12,0,.24,0,.35.05.87.29,2.4.75,2.27,1.87A6.47,6.47,0,0,1,125.88,154.44Zm4,5.82c-.1-1.78-.75-3.55-.9-5.3.37-.84,3.6-2.16,3.77-.73a21.75,21.75,0,0,1-1.29,7.89c-.76,1.6-1.1,4.56-2.51,5.54C129.16,165.2,130.11,162.77,129.87,160.26Zm18.71,6.09a1.92,1.92,0,0,1,2.38-1.22c-.8,1.88-.33,4-.63,5.93a26.27,26.27,0,0,1-.86,3.33A7.71,7.71,0,0,1,148.58,166.35ZM128.4,141.29s-.08.2-.13.3c-.47-.41-1.16-.78-1.31-1.43C127.53,140.19,127.93,141,128.4,141.29Zm68.54,20.23c0-.8.29-1.08,1.07-1.13.49.11,1.84-.6,1.77.25-.22,4.17-.43,5.51-3.44,8.49-.27-1.49.53-3.1.57-4.62A29.76,29.76,0,0,0,196.94,161.52Zm12.81,21.76-2.44-2.91a.46.46,0,0,0-.16-.11,14.59,14.59,0,0,0,.58-1.69c.39,1.2,1.82,2.28,2.53,3.37l.21.29Zm1-1.52c-1-1.36-2.15-3.09-3-3.47.08-.3.14-.6.2-.91.31.48.86.94,1.08,1.38.68.84,1.32,1.73,1.95,2.63Zm.57-.88a39.82,39.82,0,0,0-3.23-4.17c.05-.31.09-.62.13-.94.29.6.89,1.08,1.22,1.65l2.24,2.91Zm.71-1.09c-1.14-1.52-2.29-3-3.44-4.56a.56.56,0,0,0-.29-.14c0-.49.1-1,.13-1.48a1.63,1.63,0,0,0,.11.17l3.42,4.78a6.28,6.28,0,0,1,.47.6C212.33,179.37,212.2,179.58,212.07,179.79Zm1.49-2.4c-.87-1.18-1.72-2.36-2.6-3.55-.79-.89-1.27-2.21-2.31-2.79,0,.31-.1.62.15.86q1.81,2.51,3.64,5c.27.32.52.68.77,1l-.4.65c-.54-.76-1.09-1.53-1.66-2.31-.79-.89-1.64-2.8-2.64-3.29.05-.94.08-1.89.1-2.85a3.75,3.75,0,0,0-.07-.66c1.75,2.41,3.62,4.73,5.56,7Zm-1.39-4.26c-3.08-4.22-6-8.55-9.12-12.78-.29-.4-.68-1-1.06-1a15.68,15.68,0,0,0-3.75,0,1.34,1.34,0,0,1-1.44-.44c-5.17-6-9.17-13-14.54-18.88-1.88-1.93-3.82-4.23-6.3-5.3a7.69,7.69,0,0,0-4.4.19,1.47,1.47,0,0,1-1.23,0c-4.12-2.27-6.34-6.63-9.72-9.76a73.11,73.11,0,0,1-8.12-7.82c-1.59-1.92-2.11,1.4-3.56.34-1.19-1.16-2.53-2.19-3.62-3.45s-2.14-2.93-3.85-3.71a.8.8,0,0,1-.34-.53,23.05,23.05,0,0,0-3.48-7.56c-10.72-17.68-36.68-22.66-50.46-6-6.06,7.45-8.3,15.8-7.56,25.41-.05,1.27.9,3.32.07,4.37-4.31,5.35-7.9,11.3-12,16.81-1.79,2.65-3.49,5.36-5.23,8-.91,1.39-.9,1.36-2.36.69a3,3,0,0,0-2.71-.14c-1.88.82-3,3.81-5.23,2.15a2.12,2.12,0,0,0-1.28-.29c-4.08.88-4.25,3-9,1.54-1.32-.23-1.89-.32-2.3.74a45.51,45.51,0,0,1-4,7c-1.77,2.95-3.67,5.8-5.4,8.76-.67,1.13-1.32,2-2.74,1.69-2.09.78-5-1.22-6.58.65-.23.43-.74,1.16-1.3,2A114.28,114.28,0,0,1,4,118.15C4,55.21,54.69,4,117,4S230,55.21,230,118.15a114.37,114.37,0,0,1-15.53,57.7C213.69,175,212.88,174.09,212.17,173.13Z"/><path d="M49.73,183.11c0,.18.05.35.08.53l.09-.28Z"/><path d="M34.4,192.79v.09C34.47,192.91,34.45,192.79,34.4,192.79Z"/><path d="M44.66,193.59l.24.65c.17.31.33.62.51.92A5.17,5.17,0,0,0,44.66,193.59Z"/><path d="M111.44,193.59l.24.65.51.92A5.17,5.17,0,0,0,111.44,193.59Z"/><path d="M77.94,192.79v.09S78,192.79,77.94,192.79Z"/><path d="M87.83,193.62l.18.67.42,1A5.15,5.15,0,0,0,87.83,193.62Z"/><path d="M55.33,185.05a1.54,1.54,0,0,0,.08.19v0Z"/><path d="M96.83,185.05a1.54,1.54,0,0,0,.08.19v0Z"/><path d="M183.71,193.59l.24.65.51.92A5.17,5.17,0,0,0,183.71,193.59Z"/><path d="M169.51,188.76l.06.15v0Z"/><path d="M151,185.05a1.54,1.54,0,0,1,.08.19l0,0Z"/><path d="M138,192.79v.09C138.1,192.91,138.08,192.79,138,192.79Z"/><path d="M147,193.62l.18.67q.19.48.42,1A5.41,5.41,0,0,0,147,193.62Z"/><path d="M35.48,51.86a1.67,1.67,0,0,0-1.72,1.27l0,40.73v7c0,2.11-.08,4.45-.08,7l-.16,15.72q-.16,7-.17,15.72a13.8,13.8,0,0,1-.49,4.34q-1.87-6-4.25-17.17-4.18-17.07-5.9-24.57c-.54-2.17-1.2-5.36-2-9.57l-1.72-8.86a2.37,2.37,0,0,0-.78-1.17,1.76,1.76,0,0,0-1.1-.54,2.77,2.77,0,0,0-1.68.4A1.76,1.76,0,0,0,15,83.65v.91a6,6,0,0,1,.08,1q0,4.7.08,8.49v20.42l.17,15.72-.09,26.55c0,1.81-.41,3-.16,3.62l.24.72h1.88l.5-.72V136.68l-.16-12.92V91.06c0-2.11,0-3.34.08-3.7q2.61,14.81,3.35,18.06.9,4.44,10.07,40.65a8.15,8.15,0,0,0,.25,1.36l.24,1.72a3.39,3.39,0,0,0,.66,1.44,1.36,1.36,0,0,0,1.06.63c1.42,0,2.13-.87,2.13-2.62l.16-7.13q.25-4.87.25-7.14,0-11.84.08-21.32t.08-21.41V85.82a3.61,3.61,0,0,1,0-.41,8.43,8.43,0,0,0,0-1c.06-.48.12-29.11.12-29.9C36.13,52.74,35.92,51.86,35.48,51.86Z"/><path d="M54.63,124.77h-10v-4.23q0-10.28-.21-18.16l-.22-16.91c0-.38.14-.57.43-.57h6.08a1.65,1.65,0,0,0,1.23-.4A2.33,2.33,0,0,0,52.28,83c0-1.06-.57-1.6-1.71-1.6-2.06,0-4,.08-5.76.23H44.6c-.14,0-.21-.07-.21-.23v-24c-.08-2.89-.11-6.13-.11-9.71a1.63,1.63,0,0,1,.27-1.09,1.36,1.36,0,0,1,1-.28l1.71.11,1.7.12h1.82a2.7,2.7,0,0,0,1.38-.69,1.87,1.87,0,0,0,.64-1.48c0-1.07-.35-1.72-1.06-2a8.31,8.31,0,0,0-2.24-.23H42.89a1.59,1.59,0,0,0-1.39.92A4.52,4.52,0,0,0,41,45.36c.14,3.59.22,7.81.22,12.69l.1,47.18-.1,16.68v.23a18.21,18.21,0,0,0,.1,2.06v2.17a2,2,0,0,0,1,2,8.69,8.69,0,0,0,3.57.51h4.48a19.22,19.22,0,0,0,5.23-.45c.64-.23,1-1,1-2.17C56.55,125.27,55.91,124.77,54.63,124.77Z"/><path d="M104.11,8a1.76,1.76,0,0,0-1.84,1.14l.09,17.79v6.28q-.09,2.87-.09,6.36l-.17,14.2q-.18,6.28-.18,14.2a10.65,10.65,0,0,1-.52,3.91,154.2,154.2,0,0,1-4.54-15.5Q92.41,41,90.57,34.2q-.87-2.94-2.09-8.65l-1.84-8a2.08,2.08,0,0,0-.83-1.06A2,2,0,0,0,84.63,16a3.45,3.45,0,0,0-1.79.36,1.51,1.51,0,0,0-.56,1.35v.82a4.91,4.91,0,0,1,.08.89q0,4.25.09,7.67V45.54l.18,14.2,0,25.48a18.71,18.71,0,0,1-.18,3.27l.26.65h2l.53-.65-.06-22.88L85,53.94V24.41a32.16,32.16,0,0,1,.09-3.35q2.79,13.4,3.58,16.32,1,4,10.74,36.72a7.33,7.33,0,0,0,.26,1.22l.26,1.55a2.93,2.93,0,0,0,.7,1.31,1.54,1.54,0,0,0,1.14.57c1.51,0,2.27-.79,2.27-2.37l.17-6.44q.27-4.41.27-6.45,0-10.69.08-19.25t.09-19.34V13.39a3.05,3.05,0,0,1,0-.37,6.51,6.51,0,0,0,0-.93,15.61,15.61,0,0,0,.08-1.72C104.8,8.8,104.57,8,104.11,8Z"/><path d="M146.31,60.89q0-7.39-.66-19.58-.85-13.22-.85-19.75V13a1.84,1.84,0,0,0-.38-1.22,1.12,1.12,0,0,0-.85-.43,1.42,1.42,0,0,0-1,.48,2.16,2.16,0,0,0-.57,1.35l-.47,2.61-1,4.87-.86,4.52-4.35,21.31c-.19.58-.66,3.14-1.41,7.66-.38,1.86-.67,3.31-.86,4.35l-.66,3.39q-1.89-10.35-2.74-14.44-1.71-7-5.11-19.75t-4.25-15.39a1,1,0,0,0-1-.7,1.4,1.4,0,0,0-.9.35,1,1,0,0,0-.43.78v7.66l-.19,10.35q-.09,4.53-.09,10.26,0,5-.1,8.88l-.09,8.78V78q0,4.53,2.74,4.53a3,3,0,0,0,.66-2.27l-.18-4.17c-.19-1.86-.29-8.06-.29-8.93q0-7.65-.09-13.83t-.1-13.83q0-9.75.29-17.58.46.7,4.63,19.84t4.82,23.31a3.54,3.54,0,0,0,.67,2,1.63,1.63,0,0,0,1.32.7,1.8,1.8,0,0,0,1.37-.7,3.51,3.51,0,0,0,.8-1.83c.26-1.56.82-4.2,1.71-7.91q1.32-6.27,3.4-16.62T142.24,24l.19-.61a12.13,12.13,0,0,1,.14,1.39c0,.58.08,1.31.14,2.18.07,1.22.1,2.61.1,4.17,0,1.8,0,3.43-.1,4.88l-.09,4.87c0,2.38.09,5.62.28,9.74,0,2,0,3.48.1,4.52q.38,8.45.38,14.36V97.32a3.21,3.21,0,0,0,.42,1.87,2,2,0,0,0,1.66.56,1.21,1.21,0,0,0,1-.52,7.15,7.15,0,0,0,.28-2.52c0-1.63-.06-24.43-.19-28.6Q146.31,63.24,146.31,60.89Z"/><path d="M168.13,37.81A43.22,43.22,0,0,0,167,33.13a16.65,16.65,0,0,0-1.68-3.94,8.75,8.75,0,0,0-2.77-2.61,7,7,0,0,0-3.69-1,4.47,4.47,0,0,0-3.69,1.81,11.16,11.16,0,0,0-2.39,4.26,35.22,35.22,0,0,0-1.38,6.81A124.92,124.92,0,0,0,150.52,54v4.26q0,51.21,11.66,51.21,3.18,0,4.95-3.84a29.18,29.18,0,0,0,1.63-4.25,30.74,30.74,0,0,0,1-5q.75-5.85.92-11.18.16-4.47.17-9.79v-.32a297.8,297.8,0,0,0-2-32.26Zm.17,35.45c0,3.62-.05,7.35-.17,11.18A112,112,0,0,1,166.46,99a17.42,17.42,0,0,1-1.68,5.49c-.73,1.31-1.54,2-2.43,2-1.46,0-2.74-1.25-3.86-3.73a36.41,36.41,0,0,1-2.69-8.62q-1-5.11-1.68-12Q153,71.14,153,64V58.78q0-5.53.26-10.75A74.21,74.21,0,0,1,155,34.83,14.78,14.78,0,0,1,156.73,30a3,3,0,0,1,2.51-1.71,4.06,4.06,0,0,1,3,1.49A10.88,10.88,0,0,1,164.44,34a69.63,69.63,0,0,1,2.77,13.3q.84,9.16,1,14.91l.08,10.64Z"/><path d="M190.21,53.28c-.26-1.57-.61-3.21-1.06-4.92a19.93,19.93,0,0,0-1.52-4.15,8.78,8.78,0,0,0-2.5-2.74,5.67,5.67,0,0,0-3.34-1.06,3.88,3.88,0,0,0-3.33,1.9,12.4,12.4,0,0,0-2.16,4.48A43.06,43.06,0,0,0,175.05,54a151.57,151.57,0,0,0-.76,16.34v4.48q0,53.83,10.54,53.83,2.88,0,4.47-4a35.42,35.42,0,0,0,1.48-4.47,36.22,36.22,0,0,0,.87-5.26c.45-4.11.73-8,.83-11.76q.15-4.69.15-10.29v-.34q0-14.78-1.82-33.91Zm.15,37.27c0,3.81-.05,7.72-.15,11.75a135.63,135.63,0,0,1-1.52,15.34,20.75,20.75,0,0,1-1.51,5.76c-.66,1.38-1.39,2.07-2.2,2.07q-2,0-3.49-3.92a42.65,42.65,0,0,1-2.42-9.06q-.91-5.38-1.52-12.65-1-11.52-1-19V75.33q0-5.82.23-11.31a89.66,89.66,0,0,1,1.52-13.87,17,17,0,0,1,1.59-5c.66-1.19,1.41-1.79,2.27-1.79a3.48,3.48,0,0,1,2.69,1.57,11.8,11.8,0,0,1,2,4.36,82.63,82.63,0,0,1,2.5,14q.76,9.63.91,15.67l.08,11.19Z"/><path d="M74.73,38a36.11,36.11,0,0,0-1.21-4.29,15.32,15.32,0,0,0-1.72-3.62A9,9,0,0,0,69,27.72a8,8,0,0,0-3.79-.92,4.8,4.8,0,0,0-3.79,1.66,9.89,9.89,0,0,0-2.46,3.9,29.89,29.89,0,0,0-1.42,6.25,103.16,103.16,0,0,0-.86,14.25v3.91q0,46.95,12,46.95c2.18,0,3.88-1.17,5.08-3.51a23,23,0,0,0,2.67-8.49,96,96,0,0,0,1-10.25c.11-2.74.17-5.73.17-9v-.29a243.52,243.52,0,0,0-2.07-29.58Zm.17,32.51q0,5-.17,10.25A92.22,92.22,0,0,1,73,94.16a14.77,14.77,0,0,1-1.72,5,3.1,3.1,0,0,1-2.5,1.8q-2.23,0-4-3.42a30.81,30.81,0,0,1-2.76-7.9,106.71,106.71,0,0,1-1.72-11A157,157,0,0,1,59.22,62V57.25q0-5.07.26-9.86a61.52,61.52,0,0,1,1.72-12.1A12.86,12.86,0,0,1,63,30.9a3.2,3.2,0,0,1,2.59-1.57,4.34,4.34,0,0,1,3.05,1.37,9.65,9.65,0,0,1,2.29,3.81,58.14,58.14,0,0,1,2.84,12.2q.85,8.4,1,13.67l.09,9.76Z"/><path d="M219.18,84.94c-.93,0-1.54.54-1.83,1.64l.08.21v9c-.05,2.73-.08,5.78-.08,9.13l-.18,20.37q-.16,9-.17,20.37a21.45,21.45,0,0,1-.53,5.62c-1.34-5.15-2.59-12.64-4.54-22.24-3.55-17.54-5.35-26.73-6.28-31.85-.59-2.81-1.28-6.94-2.1-12.41l-1.83-11.47a3.28,3.28,0,0,0-.83-1.52,1.77,1.77,0,0,0-1.18-.7,2,2,0,0,0-2.36,2.45v1.17a8.61,8.61,0,0,1,.09,1.29q0,6.09.09,11v26.46l.17,20.37V145a38.26,38.26,0,0,1-.18,4.69l.27.93h2l.53-.93-.09-7.36-.17-16.74V83.16q0-4.09.09-4.8,2.79,19.22,3.58,23.42,1,5.73,10.74,52.68a12.66,12.66,0,0,0,.26,1.76l.26,2.22a5,5,0,0,0,.7,1.88c.35.54.73.82,1.13.82,1.52,0,2.27-1.14,2.27-3.4l.18-9.25q.25-6.31.26-9.25,0-15.33.09-27.63c0-8.11.08-9.41.08-19.79v.84c0-.07,0-.25.05-.52s0-.72,0-1.35.09-1.44.09-2.46C219.88,86.07,219.65,84.94,219.18,84.94Z"/></g></g></svg>